<svg xmlns="http://www.w3.org/2000/svg" width="24.581" height="24.581" viewBox="0 0 24.581 24.581">
  <path id="Path_36" data-name="Path 36" d="M21.27,0H3.314A3.312,3.312,0,0,0,0,3.312V21.268a3.312,3.312,0,0,0,3.312,3.312H12.17l.015-8.784H9.9a.538.538,0,0,1-.538-.536l-.011-2.831a.538.538,0,0,1,.538-.541H12.17V9.153c0-3.175,1.939-4.9,4.771-4.9h2.324a.538.538,0,0,1,.538.538V7.175a.539.539,0,0,1-.538.538H17.84C16.3,7.714,16,8.446,16,9.52v2.369h3.384a.538.538,0,0,1,.535.6l-.336,2.831a.538.538,0,0,1-.535.475H16.016L16,24.581H21.27a3.312,3.312,0,0,0,3.312-3.312V3.312A3.312,3.312,0,0,0,21.27,0Z" transform="translate(-0.002)"/>
</svg>
