<svg xmlns="http://www.w3.org/2000/svg" width="24.58" height="24.581" viewBox="0 0 24.58 24.581">
  <g id="Group_17" data-name="Group 17" transform="translate(-1583.417 -2536.426)">
    <g id="Group_16" data-name="Group 16" transform="translate(1583.417 2536.426)">
      <path id="Path_37" data-name="Path 37" d="M131.022,124.544a6.307,6.307,0,1,0,6.307,6.307,6.306,6.306,0,0,0-6.307-6.307Zm0,10.4a4.094,4.094,0,1,1,4.094-4.094A4.092,4.092,0,0,1,131.022,134.945Z" transform="translate(-118.727 -118.565)"/>
      <path id="Path_38" data-name="Path 38" d="M17.353.09c-2.261-.105-7.863-.1-10.126,0A7.345,7.345,0,0,0,2.069,2.078C-.294,4.442.008,7.627.008,12.3c0,4.781-.266,7.892,2.062,10.22,2.373,2.372,5.6,2.062,10.22,2.062,4.736,0,6.37,0,8.045-.645,2.277-.884,4-2.919,4.163-6.574.106-2.262.1-7.863,0-10.126C24.3,2.92,21.979.3,17.353.09Zm3.58,20.865c-1.55,1.55-3.7,1.411-8.673,1.411-5.121,0-7.174.076-8.673-1.427-1.726-1.718-1.413-4.476-1.413-8.657,0-5.659-.581-9.734,5.1-10.025,1.3-.046,1.689-.061,4.973-.061l.046.031c5.458,0,9.74-.571,10,5.107.058,1.3.072,1.685.072,4.964,0,5.062.1,7.127-1.428,8.657Z" transform="translate(0.005 -0.013)"/>
      <circle id="Ellipse_1" data-name="Ellipse 1" cx="1.474" cy="1.474" r="1.474" transform="translate(17.378 4.256)"/>
    </g>
  </g>
</svg>
