<svg xmlns="http://www.w3.org/2000/svg" width="24.581" height="24.581" viewBox="0 0 24.581 24.581">
  <path id="Path_39" data-name="Path 39" d="M80.808,56H59.773A1.773,1.773,0,0,0,58,57.773V78.808a1.773,1.773,0,0,0,1.773,1.773H80.808a1.773,1.773,0,0,0,1.773-1.773V57.773A1.773,1.773,0,0,0,80.808,56ZM66.719,74.58H63.726V65.574h2.993Zm-1.5-10.235H65.2a1.71,1.71,0,1,1,.019,0ZM77.512,74.58H74.519V69.762c0-1.211-.433-2.036-1.516-2.036a1.639,1.639,0,0,0-1.536,1.095,2.049,2.049,0,0,0-.1.73V74.58H68.375s.039-8.16,0-9.005h2.993v1.275a2.972,2.972,0,0,1,2.7-1.486c1.969,0,3.446,1.287,3.446,4.053Z" transform="translate(-58 -56)"/>
</svg>
