<svg xmlns="http://www.w3.org/2000/svg" width="166.682" height="203.353" viewBox="0 0 166.682 203.353"><g transform="translate(-812.982 429)"><g transform="translate(813.071 -270.06)"><path d="M813.617-154.6a17.509,17.509,0,0,1,16.572-13.008c3.416,0,5.831.695,7.755,2.375.119.11.134.329.06.621a10.6,10.6,0,0,1-1.329,2.54c-.9,1.352-1.909,2.594-2.567,2.594a.416.416,0,0,1-.287-.091,7.948,7.948,0,0,0-5.179-1.736,9.015,9.015,0,0,0-8.228,6.7c-1.02,3.964,1.27,6.851,4.7,6.887,2.872-.018,4.721-1.1,5.676-3.032H826c-.749,0-.424-1.333-.082-2.667.339-1.316.7-2.649,1.449-2.649h11.326c.566,0,.317,1.041.153,1.68-1.908,7.418-7.241,12.806-15.278,12.806C815.491-141.579,811.7-147.169,813.617-154.6Z" transform="translate(-813.129 167.648)" fill="#fff"/><path d="M862.308-142.282l6.216-24.169a.706.706,0,0,1,.63-.53h10.5c4.22,0,7.1,3.27,5.8,8.33a10.955,10.955,0,0,1-5.48,6.96l2.532,9.189a.661.661,0,0,1,.012.31c-.169.658-1.631.658-3.074.658-1.662,0-3.324,0-3.458-.549l-2.009-8.239h-3.343l-2.067,8.038c-.189.731-1.764.749-3.335.749S862.119-141.551,862.308-142.282Zm16.536-16.35a1.7,1.7,0,0,0-1.678-2.284h-3.8l-1.175,4.567h3.8A3.128,3.128,0,0,0,878.844-158.631Z" transform="translate(-832.391 167.4)" fill="#fff"/><path d="M907.187-142.418l6.2-24.114c.188-.73,1.746-.749,3.335-.749,1.571,0,3.119.018,2.931.749l-6.2,24.114c-.193.749-1.75.768-3.321.768C908.543-141.65,906.994-141.669,907.187-142.418Z" transform="translate(-849.975 167.518)" fill="#fff"/><path d="M933.037-142.282l6.217-24.169a.688.688,0,0,1,.629-.53h16.642c.8,0,.432,1.516.047,3.014-.395,1.534-.8,3.05-1.607,3.05H944.1l-1.311,5.1h8.988c.767,0,.443,1.333.1,2.649-.343,1.334-.7,2.667-1.471,2.667h-8.988l-2.11,8.2c-.193.749-1.769.768-3.339.768S932.849-141.551,933.037-142.282Z" transform="translate(-860.103 167.4)" fill="#fff"/><path d="M973.553-142.282l6.217-24.169a.688.688,0,0,1,.63-.53h16.642c.8,0,.432,1.516.047,3.014-.395,1.534-.8,3.05-1.607,3.05H984.612l-1.311,5.1h8.988c.767,0,.443,1.333.1,2.649-.343,1.334-.7,2.667-1.471,2.667h-8.988l-2.11,8.2c-.193.749-1.769.768-3.339.768S973.365-141.551,973.553-142.282Z" transform="translate(-875.977 167.4)" fill="#fff"/><path d="M1014.078-142.418l6.2-24.114c.188-.73,1.746-.749,3.335-.749,1.571,0,3.119.018,2.931.749l-6.2,24.114c-.193.749-1.75.768-3.321.768C1015.433-141.65,1013.884-141.669,1014.078-142.418Z" transform="translate(-891.855 167.518)" fill="#fff"/><path d="M1059.853-141.8l-10.38-13.336-3.233,12.568c-.2.768-1.75.768-3.322.768s-3.123,0-2.93-.749l6.32-24.571c.141-.547.58-.547,1.036-.547.439,0,.877,0,1.09.237l10.268,13.628,3.313-12.879c.192-.749,1.745-.749,3.317-.749,1.589,0,3.142,0,2.949.749l-6.315,24.552c-.145.567-.566.567-1.022.567C1060.5-141.566,1060.047-141.566,1059.853-141.8Z" transform="translate(-902.006 167.671)" fill="#fff"/></g><g transform="translate(812.982 -235.371)"><path d="M812.982-110.248h3.11a6.242,6.242,0,0,1,1.287.131,3.163,3.163,0,0,1,1.091.438,2.242,2.242,0,0,1,.752.823,2.666,2.666,0,0,1,.281,1.287,2.874,2.874,0,0,1-.3,1.412,2.149,2.149,0,0,1-.81.83,3.387,3.387,0,0,1-1.183.4,9.116,9.116,0,0,1-1.4.1h-1.176v3.829h-1.646Zm2.64,4.012q.353,0,.732-.026a2.244,2.244,0,0,0,.7-.157,1.235,1.235,0,0,0,.522-.392,1.168,1.168,0,0,0,.2-.732,1.155,1.155,0,0,0-.183-.686,1.214,1.214,0,0,0-.471-.392,1.989,1.989,0,0,0-.64-.176,6.148,6.148,0,0,0-.679-.039h-1.176v2.6Z" transform="translate(-812.982 110.483)" fill="#fff"/><path d="M831.146-110.248h1.425l3.986,9.253h-1.882l-.862-2.117H829.8l-.836,2.117h-1.843Zm2.091,5.724-1.424-3.764-1.451,3.764Z" transform="translate(-818.522 110.483)" fill="#fff"/><path d="M848.565-110.248h1.647v9.253h-1.647Z" transform="translate(-826.924 110.483)" fill="#fff"/><path d="M858.9-110.248h2.183l4.482,6.874h.026v-6.874h1.647v9.253h-2.092l-4.574-7.1h-.026v7.1H858.9Z" transform="translate(-830.973 110.483)" fill="#fff"/><path d="M881.592-108.758h-2.836v-1.49h7.319v1.49h-2.836v7.763h-1.647Z" transform="translate(-838.752 110.483)" fill="#fff"/><path d="M896.87-110.248h1.647v9.253H896.87Z" transform="translate(-845.85 110.483)" fill="#fff"/><path d="M907.207-110.248h2.182l4.483,6.874h.026v-6.874h1.647v9.253h-2.092l-4.574-7.1h-.026v7.1h-1.646Z" transform="translate(-849.899 110.483)" fill="#fff"/><path d="M936.509-101.826a8,8,0,0,1-3.829.915,5.4,5.4,0,0,1-1.967-.347,4.475,4.475,0,0,1-1.542-.98,4.5,4.5,0,0,1-1.013-1.523,5.135,5.135,0,0,1-.366-1.973,5.365,5.365,0,0,1,.366-2.02,4.534,4.534,0,0,1,1.013-1.548,4.429,4.429,0,0,1,1.542-.986,5.414,5.414,0,0,1,1.967-.347,7.485,7.485,0,0,1,1.986.255,4.1,4.1,0,0,1,1.659.908l-1.215,1.229a3.049,3.049,0,0,0-1.078-.667,3.818,3.818,0,0,0-1.34-.235,3.2,3.2,0,0,0-1.3.255,2.968,2.968,0,0,0-1,.706,3.2,3.2,0,0,0-.646,1.052,3.591,3.591,0,0,0-.229,1.294,3.962,3.962,0,0,0,.229,1.373,3.22,3.22,0,0,0,.646,1.084,3.011,3.011,0,0,0,1,.719,3.132,3.132,0,0,0,1.3.262,5.649,5.649,0,0,0,1.182-.118,3.366,3.366,0,0,0,.987-.366v-2.183h-1.9v-1.489h3.542Z" transform="translate(-857.965 110.635)" fill="#fff"/><path d="M964.412-108.413a1.521,1.521,0,0,0-.7-.555,2.436,2.436,0,0,0-.921-.176,2.322,2.322,0,0,0-.555.066,1.488,1.488,0,0,0-.483.209,1.081,1.081,0,0,0-.346.373,1.067,1.067,0,0,0-.131.542.849.849,0,0,0,.327.719,3.172,3.172,0,0,0,.81.431q.483.183,1.059.353a4.31,4.31,0,0,1,1.058.47,2.622,2.622,0,0,1,.81.8,2.369,2.369,0,0,1,.327,1.32,2.9,2.9,0,0,1-.275,1.3,2.652,2.652,0,0,1-.738.922,3.191,3.191,0,0,1-1.078.549,4.518,4.518,0,0,1-1.294.183,4.873,4.873,0,0,1-1.66-.288,3.194,3.194,0,0,1-1.372-.967l1.241-1.2a2.077,2.077,0,0,0,.791.712,2.22,2.22,0,0,0,1.038.255,2.177,2.177,0,0,0,.575-.078,1.781,1.781,0,0,0,.523-.235,1.226,1.226,0,0,0,.378-.4,1.062,1.062,0,0,0,.144-.555.966.966,0,0,0-.327-.784,2.877,2.877,0,0,0-.811-.465q-.482-.189-1.058-.359a4.453,4.453,0,0,1-1.058-.465,2.56,2.56,0,0,1-.81-.784,2.329,2.329,0,0,1-.327-1.313,2.492,2.492,0,0,1,.294-1.241,2.7,2.7,0,0,1,.771-.869,3.373,3.373,0,0,1,1.092-.517,4.711,4.711,0,0,1,1.255-.17,4.564,4.564,0,0,1,1.418.223,3.275,3.275,0,0,1,1.235.732Z" transform="translate(-870.29 110.635)" fill="#fff"/><path d="M976.914-110.248h6.129v1.49H978.56v2.273h4.248v1.49H978.56v2.509h4.718v1.49h-6.364Z" transform="translate(-877.211 110.483)" fill="#fff"/><path d="M994.34-110.248h3.215a6.556,6.556,0,0,1,1.288.124,3.305,3.305,0,0,1,1.1.425,2.228,2.228,0,0,1,.771.81,2.616,2.616,0,0,1,.287,1.294,2.574,2.574,0,0,1-.555,1.686,2.385,2.385,0,0,1-1.588.824l2.457,4.091h-1.986l-2.144-3.921h-1.2v3.921H994.34Zm2.927,3.921q.353,0,.706-.033a2.167,2.167,0,0,0,.647-.157,1.1,1.1,0,0,0,.477-.38,1.2,1.2,0,0,0,.182-.712,1.14,1.14,0,0,0-.17-.654,1.062,1.062,0,0,0-.444-.372,2.049,2.049,0,0,0-.607-.164,5.539,5.539,0,0,0-.647-.039h-1.424v2.509Z" transform="translate(-884.038 110.483)" fill="#fff"/><path d="M1010.413-110.248h1.9l2.522,6.992,2.6-6.992h1.777l-3.737,9.253h-1.425Z" transform="translate(-890.336 110.483)" fill="#fff"/><path d="M1030.74-110.248h1.647v9.253h-1.647Z" transform="translate(-898.3 110.483)" fill="#fff"/><path d="M1047.108-108.23a2.775,2.775,0,0,0-.987-.732,2.685,2.685,0,0,0-.961-.182,3.2,3.2,0,0,0-1.3.255,2.962,2.962,0,0,0-1,.706,3.206,3.206,0,0,0-.647,1.052,3.6,3.6,0,0,0-.229,1.294,3.975,3.975,0,0,0,.229,1.373,3.221,3.221,0,0,0,.647,1.084,3,3,0,0,0,1,.719,3.128,3.128,0,0,0,1.3.262,2.387,2.387,0,0,0,1.092-.268,2.968,2.968,0,0,0,.986-.856l1.359.967a3.7,3.7,0,0,1-1.529,1.255,4.774,4.774,0,0,1-1.921.392,5.4,5.4,0,0,1-1.966-.347,4.476,4.476,0,0,1-1.542-.98,4.494,4.494,0,0,1-1.013-1.523,5.135,5.135,0,0,1-.365-1.973,5.365,5.365,0,0,1,.365-2.02,4.527,4.527,0,0,1,1.013-1.548,4.43,4.43,0,0,1,1.542-.986,5.408,5.408,0,0,1,1.966-.347,4.513,4.513,0,0,1,1.745.333,4.07,4.07,0,0,1,1.5,1.131Z" transform="translate(-902.03 110.635)" fill="#fff"/><path d="M1060.093-110.248h6.13v1.49h-4.483v2.273h4.247v1.49h-4.247v2.509h4.718v1.49h-6.365Z" transform="translate(-909.8 110.483)" fill="#fff"/><path d="M1081.651-108.413a1.52,1.52,0,0,0-.7-.555,2.434,2.434,0,0,0-.921-.176,2.321,2.321,0,0,0-.555.066,1.487,1.487,0,0,0-.484.209,1.092,1.092,0,0,0-.346.373,1.067,1.067,0,0,0-.132.542.849.849,0,0,0,.327.719,3.175,3.175,0,0,0,.81.431q.484.183,1.059.353a4.31,4.31,0,0,1,1.058.47,2.622,2.622,0,0,1,.81.8,2.364,2.364,0,0,1,.327,1.32,2.9,2.9,0,0,1-.275,1.3,2.648,2.648,0,0,1-.738.922,3.19,3.19,0,0,1-1.078.549,4.516,4.516,0,0,1-1.294.183,4.874,4.874,0,0,1-1.66-.288,3.194,3.194,0,0,1-1.372-.967l1.241-1.2a2.075,2.075,0,0,0,.791.712,2.22,2.22,0,0,0,1.038.255,2.175,2.175,0,0,0,.575-.078,1.783,1.783,0,0,0,.523-.235,1.238,1.238,0,0,0,.379-.4,1.07,1.07,0,0,0,.143-.555.966.966,0,0,0-.327-.784,2.879,2.879,0,0,0-.811-.465q-.482-.189-1.058-.359a4.45,4.45,0,0,1-1.058-.465,2.559,2.559,0,0,1-.81-.784,2.329,2.329,0,0,1-.327-1.313,2.491,2.491,0,0,1,.294-1.241,2.7,2.7,0,0,1,.771-.869,3.372,3.372,0,0,1,1.092-.517,4.71,4.71,0,0,1,1.255-.17,4.565,4.565,0,0,1,1.418.223,3.275,3.275,0,0,1,1.235.732Z" transform="translate(-916.224 110.635)" fill="#fff"/></g><g transform="translate(847.641 -429)"><path d="M917.878-426.156c15.863,4.409,24.376,12.642,28.871,19.392q.2.3.386.592c.627.979,1.169,1.922,1.637,2.814q.28.536.526,1.044t.459.986q.107.239.206.47.2.462.366.889c.337.854.589,1.6.773,2.205.061.2.116.389.163.558.212.766.288,1.2.288,1.2l-.018-6.7c15.35,16.417,5.757,37.311,5.757,37.311l4.477-4.049c1.265,34.282-25.514,43.507-25.514,43.507l-.406-.033q.716.587,1.414,1.2.443.387.873.773.83.744,1.615,1.485l.094.088q.387.365.763.729h0c11.222,10.851,15.433,20.876,16.789,28.338a32.341,32.341,0,0,1,.429,8.894,18.858,18.858,0,0,1-.788,4.125H909.9a9.852,9.852,0,0,1,1.8-7.557,13.017,13.017,0,0,1,9.556-5.4c-4.119-1.018-7.792-1.941-10.577-2.669l-.068-.018-.456-.119-.1-.026-.4-.106-.121-.032-.346-.092-.155-.041-.308-.083-.134-.037-.285-.078-.157-.043-.242-.067-.158-.044-.221-.061-.148-.042-.207-.059-.133-.038-.19-.055-.128-.037-.171-.051-.113-.033-.158-.048-.1-.031-.139-.044-.088-.028-.122-.04-.075-.026-.111-.039-.054-.019-.133-.051a92.2,92.2,0,0,0-7.52,13.385c-1.053,2.312-1.572,3.733-1.572,3.733h-21.71l.364-1.474a12.826,12.826,0,0,1,10.443-9.711,12.418,12.418,0,0,1,1.811-.134c1.063-5.046,2.252-9.692,3.53-13.979l-.054-.038c-.018-.012-.036-.025-.053-.038a30.011,30.011,0,0,1-8-9.293h0c-.093-.167-.181-.337-.271-.507a29.672,29.672,0,0,1-3.144-9.661c-.029-.2-.057-.4-.081-.606-.062-.51-.113-1.023-.148-1.541-.026-.373-.047-.747-.06-1.125q-.016-.487-.016-.977c0-5.813,4.313-13.459,7.552-18.383,1.932-2.938,3.481-4.908,3.5-4.942,1.538-2.281-.279-6.483-3.888-6.483a5.526,5.526,0,0,0-1.97.387c-2.854,1.089-8.14,7.323-8.14,7.323a17.37,17.37,0,0,1-1.795-2.954c-2.062-4.262-3.723-12.009,8.742-15.539,0,0-1.247-8.551,18.218-8.551a97.194,97.194,0,0,1,12.338.89c1.921.248,3.956.55,6.125.917l-5.109,5.313s.274.389.726,1.115l.031.049a11.014,11.014,0,0,1,1.206,8.647,27.555,27.555,0,0,0-.926,6.443c-.006.235-.018.469-.018.706a16.547,16.547,0,0,0,.675,4.541A23.779,23.779,0,0,0,917.7-346.2c.31.646.65,1.285,1.01,1.918l.044-.392h0l.014-.019,1.044-1.389c8.833-11.9,13.517-22.549,15.49-31.9q.163-.775.3-1.538c.021-.114.041-.227.061-.339q.309-1.758.494-3.452.109-.993.178-1.963.06-.846.091-1.676l0-.062q.031-.857.032-1.7v-.009c.027-24.511-18.579-37.441-18.579-37.441h0m22.695,104.438.007,0h0l.021.014h0l-.025-.016-.007,0h0M917.877-429a2.843,2.843,0,0,0-2.572,1.634,2.844,2.844,0,0,0,.945,3.542h0a42.929,42.929,0,0,1,8.763,9.055,43.235,43.235,0,0,1,8.6,26.052c0,.532-.011,1.07-.03,1.606l0,.063c-.019.516-.048,1.047-.085,1.576-.043.606-.1,1.23-.168,1.854-.118,1.074-.275,2.174-.468,3.269l-.058.322c-.087.478-.184.969-.288,1.461-1.923,9.113-6.4,18.687-13.329,28.5q-.108-.33-.2-.653a13.779,13.779,0,0,1-.566-3.761c0-.125,0-.248.009-.372,0-.088.006-.175.008-.263a24.825,24.825,0,0,1,.83-5.779,13.948,13.948,0,0,0-1.125-10.171l3.575-3.718a2.844,2.844,0,0,0,.651-2.862,2.844,2.844,0,0,0-2.226-1.913c-2.117-.358-4.215-.673-6.235-.933a100.56,100.56,0,0,0-12.7-.914c-9.313,0-15.676,1.9-18.913,5.639a8.819,8.819,0,0,0-1.918,3.6c-4.776,1.677-7.951,4.214-9.453,7.557-1.493,3.326-1.229,7.26.763,11.376a19.983,19.983,0,0,0,2.129,3.485,2.84,2.84,0,0,0,2.18,1.073h.045a2.843,2.843,0,0,0,2.169-1c2.327-2.742,5.689-6.011,6.984-6.5a2.736,2.736,0,0,1,.957-.2,1.519,1.519,0,0,1,1.367.885,1.489,1.489,0,0,1,.18,1.135c-.676.88-1.994,2.651-3.539,5-3.658,5.564-8.019,13.54-8.019,19.946,0,.356.005.715.017,1.069.012.376.033.78.065,1.232.039.554.094,1.122.163,1.687.027.222.058.443.089.664a32.444,32.444,0,0,0,3.445,10.585l.059.112c.078.148.156.3.237.443a32.668,32.668,0,0,0,7.331,9.018c-.948,3.323-1.82,6.77-2.6,10.291a15.581,15.581,0,0,0-12.682,11.827l-.364,1.473a2.842,2.842,0,0,0,.522,2.435,2.843,2.843,0,0,0,2.239,1.09h21.71a2.843,2.843,0,0,0,2.67-1.867c0-.012.5-1.366,1.49-3.531a89.731,89.731,0,0,1,6.126-11.216l.109.031.227.063.161.044.249.069.159.044.291.079.029.008.108.029.311.084.063.017.095.026.35.093.058.015.063.017.406.108.037.01.063.016.46.121.046.012.022.005q1.044.273,2.3.594a15.277,15.277,0,0,0-2.884,3.1,12.728,12.728,0,0,0-2.27,9.685,2.843,2.843,0,0,0,2.8,2.346h47.131a2.844,2.844,0,0,0,2.678-1.887,21.456,21.456,0,0,0,.94-4.808,35.176,35.176,0,0,0-.461-9.676c-1.88-10.341-7.8-20.392-17.61-29.874q-.389-.375-.788-.752l-.061-.058-.035-.033q-.265-.249-.53-.5A44.267,44.267,0,0,0,951.5-332.83a43.734,43.734,0,0,0,9.442-14.271,53.594,53.594,0,0,0,3.664-22.445,2.844,2.844,0,0,0-1.736-2.515,2.859,2.859,0,0,0-.584-.176,43.49,43.49,0,0,0,.716-5.468,35.08,35.08,0,0,0-9.4-26.941,2.843,2.843,0,0,0-2.077-.9,2.815,2.815,0,0,0-.67.08c-.419-.756-.866-1.506-1.334-2.239q-.2-.315-.415-.634c-4.505-6.766-13.45-15.823-30.476-20.556a2.857,2.857,0,0,0-.762-.1Z" transform="translate(-869.968 429)" fill="#fff"/></g></g></svg>