<svg xmlns="http://www.w3.org/2000/svg" width="181.333" height="210.936" viewBox="0 0 181.333 210.936"><g transform="translate(-80.78 -65.534)"><path d="M187.747,68.807c-6.394-1.965-13.878,1.92-20.611,9.694,5.161,7.313,9.467,17.488,11.836,29.122,2.846,13.962,2.3,27.081-.856,36.4a11.79,11.79,0,0,1-.546,4.622,13.224,13.224,0,0,1-5.722,6.917c9.276-5.165,18.668-18.605,23.959-35.816,7.519-24.451,3.91-47.255-8.06-50.936" fill="none" stroke="#fff" stroke-miterlimit="10" stroke-width="2"/><path d="M153.564,67.127a12.157,12.157,0,0,0-6.059-.363c-6.676,1.361-11.439,8.6-13.572,18.947a75.112,75.112,0,0,1,20.688,14.452A74.207,74.207,0,0,1,167.136,78.5c-4.157-5.894-8.869-9.929-13.572-11.374" fill="none" stroke="#fff" stroke-miterlimit="10" stroke-width="2"/><path d="M167.136,78.5a74.207,74.207,0,0,0-12.515,21.662q2.115,2.032,4.166,4.265c11.319,12.328,18.035,26.068,18.74,36.469a14.772,14.772,0,0,1,.589,3.123c3.159-9.316,3.7-22.435.856-36.4C176.6,95.989,172.3,85.814,167.136,78.5" fill="none" stroke="#fff" stroke-miterlimit="10" stroke-width="2"/><path d="M108.734,108.4c-9.849,1.094-17.04,4.9-19.093,11.1-3.939,11.889,12.551,28.052,36.83,36.1q1,.332,1.994.637c17.819,5.478,34.618,4.937,43.383-.67-3.9,2.173-7.781,2.882-11.326,1.792-.09-.027-.18-.057-.269-.086l-.311-.092a15.989,15.989,0,0,1-1.745-.654q-1.362-.3-2.777-.736c-9.411-2.894-20.382-10.164-30.042-20.687-8.036-8.754-13.753-18.221-16.644-26.7" fill="none" stroke="#fff" stroke-miterlimit="10" stroke-width="2"/><path d="M178.116,144.02q-.376,1.107-.8,2.143a13.1,13.1,0,0,1-3.91,7.72,11.763,11.763,0,0,1-4.139,2.444A11.47,11.47,0,0,1,166,157.534a12.081,12.081,0,0,1-5.748-.269c.089.029.179.059.269.086,3.545,1.09,7.424.381,11.326-1.792a13.224,13.224,0,0,0,5.722-6.917,11.79,11.79,0,0,0,.546-4.622" fill="none" stroke="#fff" stroke-miterlimit="10" stroke-width="2"/><path d="M158.743,156.635c-.181-.038-.363-.076-.546-.116a15.989,15.989,0,0,0,1.745.654l.311.092a11.363,11.363,0,0,1-1.51-.63" fill="none" stroke="#fff" stroke-miterlimit="10" stroke-width="2"/><path d="M169.266,156.327a20.012,20.012,0,0,1-10.523.308,11.363,11.363,0,0,0,1.51.63,12.081,12.081,0,0,0,5.748.269,11.47,11.47,0,0,0,3.265-1.207m8.261-15.43a22.775,22.775,0,0,1-.212,5.266q.425-1.035.8-2.143a14.772,14.772,0,0,0-.589-3.123" fill="none" stroke="#fff" stroke-miterlimit="10" stroke-width="2"/><path d="M128.745,83.742c-7.443-2.288-13.912-1.84-17.986,1.9-4.939,4.535-5.357,12.988-2.025,22.756a72.657,72.657,0,0,1,24.744,2.054,75.011,75.011,0,0,1,.455-24.741,45.1,45.1,0,0,0-5.188-1.969" fill="none" stroke="#fff" stroke-miterlimit="10" stroke-width="2"/><path d="M133.933,85.711a75.011,75.011,0,0,0-.455,24.741q2.613.639,5.27,1.455,1,.306,1.994.636a93.394,93.394,0,0,1,9.277,3.628,93.508,93.508,0,0,1,2.44-9.755q.99-3.221,2.162-6.253a75.112,75.112,0,0,0-20.688-14.452" fill="none" stroke="#fff" stroke-miterlimit="10" stroke-width="2"/><path d="M154.621,100.163q-1.169,3.031-2.162,6.253a93.508,93.508,0,0,0-2.44,9.755c14.536,6.61,24.924,16.046,27.508,24.726-.7-10.4-7.421-24.141-18.74-36.469q-2.048-2.232-4.166-4.265" fill="none" stroke="#fff" stroke-miterlimit="10" stroke-width="2"/><path d="M133.478,110.452a72.657,72.657,0,0,0-24.744-2.054c2.891,8.477,8.608,17.944,16.644,26.7,9.66,10.523,20.631,17.793,30.042,20.687q1.413.434,2.777.736c-9.945-4.4-19.619-19.995-23.664-39.842q-.639-3.147-1.055-6.225" fill="none" stroke="#fff" stroke-miterlimit="10" stroke-width="2"/><path d="M177.315,146.163c-1.957,4.764-4.68,8.315-8.049,10.164a11.763,11.763,0,0,0,4.139-2.444,13.1,13.1,0,0,0,3.91-7.72" fill="none" stroke="#fff" stroke-miterlimit="10" stroke-width="2"/><path d="M138.748,111.907q-2.655-.816-5.27-1.455.416,3.073,1.055,6.225c4.045,19.847,13.719,35.447,23.664,39.842.183.04.365.078.546.116-9.036-4.558-12.441-21.186-8.724-40.464a93.394,93.394,0,0,0-9.277-3.628q-1-.332-1.994-.636" fill="none" stroke="#fff" stroke-miterlimit="10" stroke-width="2"/><path d="M150.019,116.171c-3.717,19.278-.312,35.906,8.724,40.464a20.012,20.012,0,0,0,10.523-.308c3.369-1.849,6.092-5.4,8.049-10.164a22.775,22.775,0,0,0,.212-5.266c-2.584-8.68-12.972-18.116-27.508-24.726" fill="none" stroke="#fff" stroke-miterlimit="10" stroke-width="2"/><path d="M87.787,205.387v8.244a8.681,8.681,0,0,1,3.3-3.195,9.235,9.235,0,0,1,4.534-1.03,9.585,9.585,0,0,1,7.934,4.018q3.09,4.02,3.091,10.407t-3.091,10.408a8.646,8.646,0,0,1-4.174,2.834,16.407,16.407,0,0,1-5.2.876A17.287,17.287,0,0,1,85,235.372q-4.226-2.574-4.224-9.891v-23.6h3.5a3.52,3.52,0,0,1,3.5,3.5Zm11.746,18.136a9.448,9.448,0,0,0-1.546-5.771,4.918,4.918,0,0,0-4.224-2.164,5.2,5.2,0,0,0-4.431,2.062,9.928,9.928,0,0,0-1.545,5.873q0,4.328,1.442,6.285a5.016,5.016,0,0,0,4.328,2.164,5.116,5.116,0,0,0,4.43-2.164A10.738,10.738,0,0,0,99.533,223.523Z" fill="#fff"/><path d="M129.052,228.984H134.2a11.256,11.256,0,0,1-4.328,6.594,13.117,13.117,0,0,1-8.037,2.371q-5.874,0-9.171-3.813-3.3-3.711-3.3-10.613,0-6.594,3.194-10.3,3.3-3.812,9.171-3.813,6.182,0,9.582,3.71,3.3,3.813,3.3,10.613v1.133a1.791,1.791,0,0,1-.1.721H116.687a7.093,7.093,0,0,0,1.545,4.741,4.872,4.872,0,0,0,4.019,1.648,5.824,5.824,0,0,0,2.988-.722,1.426,1.426,0,0,0,.567-.36l.567-.566a2.218,2.218,0,0,1,.773-.825A3.069,3.069,0,0,1,129.052,228.984Zm-12.365-8.037H127.2a6.676,6.676,0,0,0-1.443-4.122,4.948,4.948,0,0,0-3.812-1.443,5.023,5.023,0,0,0-3.71,1.443A5.909,5.909,0,0,0,116.687,220.947Z" fill="#fff"/><path d="M138.665,247.118v-5.667h1.957a4.956,4.956,0,0,0,3.246-.978q1.184-.981.464-3.144l-9.583-27.3h7.934l5.564,19.372,4.843-16.9a3.043,3.043,0,0,1,3.3-2.473h4.946l-10.51,31.221a10.555,10.555,0,0,1-3.091,4.843q-1.854,1.236-6.079,1.236H140.21a3.772,3.772,0,0,0-.772-.154A7.09,7.09,0,0,0,138.665,247.118Z" fill="#fff"/><path d="M165.025,234.96a10.18,10.18,0,0,1-3.091-5,23,23,0,0,1-.927-6.543,20.668,20.668,0,0,1,.773-5.563,11.469,11.469,0,0,1,2.421-4.637,10.693,10.693,0,0,1,6.9-3.658,15.9,15.9,0,0,1,7.625.669,10.516,10.516,0,0,1,5.77,5.358,17.112,17.112,0,0,1,1.751,7.935,19.7,19.7,0,0,1-.72,5.667,14.526,14.526,0,0,1-1.856,4.018,10.293,10.293,0,0,1-6.285,4.225,14.011,14.011,0,0,1-6.851.154A11.962,11.962,0,0,1,165.025,234.96Zm4.947-18.135q-2.164,2.372-1.958,7.058t1.751,6.543a4.608,4.608,0,0,0,2.164,1.392,4.914,4.914,0,0,0,3.143.1,5.265,5.265,0,0,0,2.834-2.318q1.236-1.854,1.34-5.977a10.478,10.478,0,0,0-1.186-5.563,5.367,5.367,0,0,0-2.73-2.37,5.012,5.012,0,0,0-3.092-.052A5.365,5.365,0,0,0,169.972,216.825Z" fill="#fff"/><path d="M213.4,237.433h-3.607a3.353,3.353,0,0,1-3.5-3.5V219.916a4.241,4.241,0,0,0-1.5-3.606,5.41,5.41,0,0,0-3.349-1.134,5.192,5.192,0,0,0-3.3,1.134,4.3,4.3,0,0,0-1.442,3.606v17.517H189.5V221.359q0-7.006,3.658-9.377a15.994,15.994,0,0,1,8.088-2.576,15.515,15.515,0,0,1,8.346,2.37q3.81,2.373,3.813,9.583Z" fill="#fff"/><path d="M235.834,201.884h3.5a3.3,3.3,0,0,1,2.473,1.082,3.434,3.434,0,0,1,1.03,2.421v20.094q0,7.317-4.224,9.891a17.292,17.292,0,0,1-9.171,2.577,16.238,16.238,0,0,1-5.255-.876,8.647,8.647,0,0,1-4.121-2.834q-2.989-3.81-2.988-10.408,0-6.49,2.988-10.407a10.045,10.045,0,0,1,12.468-2.988,9.812,9.812,0,0,1,3.3,3.195Zm-11.747,21.639a10.746,10.746,0,0,0,1.545,6.285,5.118,5.118,0,0,0,4.432,2.164,5.015,5.015,0,0,0,4.327-2.164,11.346,11.346,0,0,0,1.443-6.285,9.928,9.928,0,0,0-1.545-5.873,5.385,5.385,0,0,0-4.432-2.062,4.92,4.92,0,0,0-4.225,2.164A9.455,9.455,0,0,0,224.087,223.523Z" fill="#fff"/><path d="M170.445,268.837v-1.015a4.558,4.558,0,0,1-2.892,2.088,5.931,5.931,0,0,1-3.607-.3,6.689,6.689,0,0,1-3.072-2.654,9.085,9.085,0,0,1-1.282-5.1,9.822,9.822,0,0,1,1.7-5.993q1.7-2.295,5.456-2.3a9.721,9.721,0,0,1,5.308,1.551q2.445,1.551,2.445,5.724v8.409q0,4.174-2.445,5.7a9.861,9.861,0,0,1-5.308,1.521q-5.485,0-6.8-5.129H164.3a3.32,3.32,0,0,0,3.429,1.52,3.224,3.224,0,0,0,1.788-1.162A4.843,4.843,0,0,0,170.445,268.837Zm-6.8-6.858q0,4.114,2.385,4.562a3.251,3.251,0,0,0,3.519-1.1,4.457,4.457,0,0,0,.775-2.057,8.664,8.664,0,0,0,.029-2.773,5.533,5.533,0,0,0-.983-2.445,2.62,2.62,0,0,0-2.267-1.073,2.747,2.747,0,0,0-2.742,1.49A7.767,7.767,0,0,0,163.647,261.979Z" fill="#fff"/><path d="M186.575,269.135a7.366,7.366,0,0,1-2.654.8,23.813,23.813,0,0,1-2.475.149,6.248,6.248,0,0,1-3.756-1.163,4.421,4.421,0,0,1-1.611-3.847,4.146,4.146,0,0,1,1.461-3.578,8.43,8.43,0,0,1,3.727-1.431,3.535,3.535,0,0,0,.716-.089,9.388,9.388,0,0,1,.955-.149q2.622-.359,2.623-1.551a1.13,1.13,0,0,0-.924-1.163,6.175,6.175,0,0,0-1.7-.269,4.348,4.348,0,0,0-1.492.24,1.617,1.617,0,0,0-.953.894h-4a4.585,4.585,0,0,1,1.67-3.041,6.877,6.877,0,0,1,4.592-1.372,8.982,8.982,0,0,1,5.009,1.133,3.827,3.827,0,0,1,1.729,3.339v5.427a6.849,6.849,0,0,1-.865,3.727A5.288,5.288,0,0,1,186.575,269.135Zm-.954-7.335a11.343,11.343,0,0,1-2.326.775l-1.372.3a3.53,3.53,0,0,0-1.55.775,2.432,2.432,0,0,0-.417,1.312,1.938,1.938,0,0,0,.537,1.432,2.258,2.258,0,0,0,1.549.477,3.3,3.3,0,0,0,3.579-3.579Z" fill="#fff"/><path d="M190.7,269.791V262.1a9.8,9.8,0,0,1,.686-3.906,6.481,6.481,0,0,1,1.878-2.535,7.4,7.4,0,0,1,2.654-1.312,11.83,11.83,0,0,1,3.131-.417h.6v4.234h-1.372a3.5,3.5,0,0,0-2.565.834,3.587,3.587,0,0,0-.834,2.625v8.17Z" fill="#fff"/><path d="M211.173,249.216H213.2a1.909,1.909,0,0,1,1.431.626,1.99,1.99,0,0,1,.6,1.4v11.629q0,4.235-2.445,5.724a10,10,0,0,1-5.307,1.492,9.4,9.4,0,0,1-3.041-.507,5.014,5.014,0,0,1-2.386-1.64,9.519,9.519,0,0,1-1.729-6.023,9.674,9.674,0,0,1,1.729-6.023,5.813,5.813,0,0,1,7.216-1.73,5.678,5.678,0,0,1,1.908,1.849Zm-6.8,12.524a6.218,6.218,0,0,0,.894,3.637,2.961,2.961,0,0,0,2.565,1.253,2.9,2.9,0,0,0,2.5-1.253,6.558,6.558,0,0,0,.835-3.637,5.746,5.746,0,0,0-.894-3.4,3.115,3.115,0,0,0-2.565-1.193,2.848,2.848,0,0,0-2.445,1.252A5.474,5.474,0,0,0,204.375,261.74Z" fill="#fff"/><path d="M228.2,264.9h2.982a6.509,6.509,0,0,1-2.5,3.816,7.589,7.589,0,0,1-4.651,1.372,6.642,6.642,0,0,1-5.308-2.207,8.951,8.951,0,0,1-1.908-6.142,8.845,8.845,0,0,1,1.849-5.964,6.644,6.644,0,0,1,5.307-2.206,7.141,7.141,0,0,1,5.546,2.147,9.09,9.09,0,0,1,1.908,6.142v.656a1.031,1.031,0,0,1-.059.417H221.042a4.105,4.105,0,0,0,.894,2.744,2.82,2.82,0,0,0,2.326.954,3.371,3.371,0,0,0,1.73-.418.829.829,0,0,0,.328-.209l.328-.327a1.284,1.284,0,0,1,.447-.477A1.774,1.774,0,0,1,228.2,264.9Zm-7.156-4.652h6.082a3.858,3.858,0,0,0-.834-2.385,2.863,2.863,0,0,0-2.207-.835,2.9,2.9,0,0,0-2.147.835A3.418,3.418,0,0,0,221.042,260.249Z" fill="#fff"/><path d="M246.52,269.791h-2.087a1.941,1.941,0,0,1-2.028-2.028v-8.11a2.45,2.45,0,0,0-.864-2.087,3.127,3.127,0,0,0-1.939-.657,3,3,0,0,0-1.908.657,2.486,2.486,0,0,0-.835,2.087v10.138h-4.174v-9.3q0-4.053,2.117-5.426a9.249,9.249,0,0,1,4.681-1.491,8.972,8.972,0,0,1,4.831,1.372q2.205,1.371,2.206,5.545Z" fill="#fff"/><path d="M248.039,264.543H252.1a2.191,2.191,0,0,0,.894,1.789,4.241,4.241,0,0,0,2.385.6,3.851,3.851,0,0,0,1.849-.417,1.27,1.27,0,0,0,.716-1.134q0-1.073-2.5-1.61a11.247,11.247,0,0,1-1.61-.358,9.4,9.4,0,0,1-4.234-1.848A3.661,3.661,0,0,1,248.4,258.7a4.746,4.746,0,0,1,1.73-3.756,7.429,7.429,0,0,1,4.651-1.372,8.119,8.119,0,0,1,4.95,1.372,5.25,5.25,0,0,1,1.849,3.875h-2.565a1.892,1.892,0,0,1-1.729-1.013q-.24-.238-.477-.477a3.216,3.216,0,0,0-1.968-.537,3.539,3.539,0,0,0-1.789.358,1.2,1.2,0,0,0-.537,1.073q0,.955,3.1,1.611.357.119.626.179a2.324,2.324,0,0,0,.507.059,11.046,11.046,0,0,1,4.234,1.789,3.76,3.76,0,0,1,1.133,2.863,4.772,4.772,0,0,1-1.908,4.055,9.051,9.051,0,0,1-5.367,1.312,7.869,7.869,0,0,1-5.069-1.372,4.792,4.792,0,0,1-1.73-4Z" fill="#fff"/><path d="M246.671,182.716v-.006a53.554,53.554,0,0,0,6.256-10.726l0-.007q1.086-3.477,1.752-6.538a2.784,2.784,0,0,0,.055-.337,8.711,8.711,0,0,0-.466-3.63q-.672-2.013-4.249-2.013h-8.049q-.452,2.907-1.117,7.149l0,.011A39.416,39.416,0,0,1,238.4,172.2h-.009L227.219,158.57v-.008a31.937,31.937,0,0,0,9.61-8.494,18.861,18.861,0,0,0,2.907-10.509q0-7.824-5.143-12.3-5.146-4.7-13.863-4.695-9.171,0-14.534,5.142-5.591,4.7-5.589,13.193a16.018,16.018,0,0,0,1.118,5.813,16.644,16.644,0,0,0,3.353,5.814l3.127,4.02v.008q-8.718,4.693-12.516,10.058a22.456,22.456,0,0,0-3.578,12.745,26,26,0,0,0,.683,5.989l2.523-8.753a3.243,3.243,0,0,1,3.308-2.481H204l-6.967,19.717a20.423,20.423,0,0,0,1.563,1.627h0a23.468,23.468,0,0,0,10.277,4.663,10.634,10.634,0,0,1-2.05-1.824q-3.311-3.72-3.307-10.645,0-6.612,3.2-10.334,3.306-3.823,9.2-3.824,6.2,0,9.612,3.72,3.306,3.825,3.306,10.645V189a1.781,1.781,0,0,1-.1.723H210.852a7.116,7.116,0,0,0,1.55,4.755,4.887,4.887,0,0,0,4.031,1.653,5.849,5.849,0,0,0,3-.723,1.44,1.44,0,0,0,.57-.363l.568-.567a2.24,2.24,0,0,1,.774-.828,3.092,3.092,0,0,1,1.912-.516h5.169a11.292,11.292,0,0,1-4.342,6.614,10.944,10.944,0,0,1-1.112.714c1.586-.18,3.152-.425,4.694-.752a14.8,14.8,0,0,0,5.143-2.459,58.707,58.707,0,0,0,4.916-4.021h.007l5.138,6.478,0,0h17.874s.007,0,0-.008Zm-21.244-38.238a12.166,12.166,0,0,1-3.578,3.8l-2.007,1.339,0,0c-.063-.106-5.591-9.467-5.591-10.061a5.8,5.8,0,0,1,1.789-4.248,7.17,7.17,0,0,1,8.945,0,5.36,5.36,0,0,1,1.788,4.248A9.387,9.387,0,0,1,225.427,144.478Z" fill="#fff"/><path d="M219.947,180.935a4.966,4.966,0,0,0-3.824-1.447,5.037,5.037,0,0,0-3.721,1.447,5.932,5.932,0,0,0-1.55,4.134h10.541A6.707,6.707,0,0,0,219.947,180.935Z" fill="#fff"/><path d="M115.042,175.458q-2.9-1.962-8.681-1.964-5.169,0-7.958,2.377a7.958,7.958,0,0,0-2.893,5.271h6.924a2.814,2.814,0,0,1,1.653-1.551,7.56,7.56,0,0,1,2.584-.413,10.637,10.637,0,0,1,2.945.465,1.958,1.958,0,0,1,1.6,2.015q0,2.068-4.547,2.688a16.677,16.677,0,0,0-1.654.258,6.093,6.093,0,0,1-1.24.155,14.579,14.579,0,0,0-6.459,2.48q-2.534,1.86-2.532,6.2,0,4.65,2.79,6.666a10.833,10.833,0,0,0,6.511,2.015,41.2,41.2,0,0,0,4.289-.259,12.708,12.708,0,0,0,4.6-1.4,9.165,9.165,0,0,0,3.566-3.358,11.879,11.879,0,0,0,1.5-6.459v-9.4A6.635,6.635,0,0,0,115.042,175.458Zm-3.721,14.882a5.719,5.719,0,0,1-6.2,6.2,3.912,3.912,0,0,1-2.687-.826,3.355,3.355,0,0,1-.93-2.481,4.209,4.209,0,0,1,.723-2.274,6.111,6.111,0,0,1,2.687-1.343l2.377-.517a19.455,19.455,0,0,0,4.03-1.343Z" fill="#fff"/><path d="M137.13,173.494a9.264,9.264,0,0,0-4.548,1.033,8.71,8.71,0,0,0-3.307,3.2v-8.268a3.527,3.527,0,0,0-3.514-3.513h-3.514v23.666q0,7.34,4.238,9.922a17.345,17.345,0,0,0,9.2,2.583,16.477,16.477,0,0,0,5.218-.878,8.662,8.662,0,0,0,4.186-2.843q3.1-4.029,3.1-10.437t-3.1-10.439A9.611,9.611,0,0,0,137.13,173.494Zm2.376,20.463a5.13,5.13,0,0,1-4.444,2.17,5.027,5.027,0,0,1-4.34-2.17q-1.449-1.962-1.447-6.305a9.957,9.957,0,0,1,1.55-5.89,5.22,5.22,0,0,1,4.444-2.067,4.931,4.931,0,0,1,4.237,2.17,9.473,9.473,0,0,1,1.55,5.787A10.775,10.775,0,0,1,139.506,193.957Z" fill="#fff"/><path d="M169.758,174.32a15.955,15.955,0,0,0-7.648-.671,10.724,10.724,0,0,0-6.924,3.669,11.509,11.509,0,0,0-2.429,4.65,20.805,20.805,0,0,0-.775,5.581,23.057,23.057,0,0,0,.93,6.562,10.211,10.211,0,0,0,3.1,5.013,12.007,12.007,0,0,0,5.529,2.635,14.06,14.06,0,0,0,6.872-.155,10.33,10.33,0,0,0,6.3-4.237,14.548,14.548,0,0,0,1.861-4.031,19.731,19.731,0,0,0,.723-5.684,17.148,17.148,0,0,0-1.757-7.957A10.541,10.541,0,0,0,169.758,174.32Zm-.827,19.43a5.286,5.286,0,0,1-2.842,2.325,4.935,4.935,0,0,1-3.152-.1,4.621,4.621,0,0,1-2.17-1.4q-1.551-1.86-1.757-6.562t1.963-7.079a5.39,5.39,0,0,1,2.274-1.188,5.015,5.015,0,0,1,3.1.051,5.384,5.384,0,0,1,2.739,2.377,10.519,10.519,0,0,1,1.188,5.581Q170.171,191.89,168.931,193.75Z" fill="#fff"/><path d="M190.461,193.44l-5.478-19.326h-7.648l9.612,27.49h7.338l2.747-7.773a19.67,19.67,0,0,1-4.238-8.483Z" fill="#fff"/></g></svg>