<svg xmlns="http://www.w3.org/2000/svg" width="229.113" height="225.312" viewBox="0 0 229.113 225.312">
  <g id="Group_77" data-name="Group 77" transform="translate(-229.8 -105.218)">
    <path id="Path_795" data-name="Path 795" d="M432.036,208.154A45.74,45.74,0,0,0,444.3,183.481l.6.08a14.205,14.205,0,0,1-.007,1.509c-.992,9.195-5.66,16.549-11.727,23.166a4.2,4.2,0,0,0-1.207,3.233,51.156,51.156,0,0,1-4.2,21.14c-2.111,5.081-5.4,9.124-10.874,10.957a2.072,2.072,0,0,0-1.013,1.182,50.277,50.277,0,0,1-6.811,12.152,3.2,3.2,0,0,0-.675,1.908,64.409,64.409,0,0,0,3.69,18.085,4.218,4.218,0,0,0,.431.611c.177-.729.329-1.262.435-1.8,1.206-6.151,3.01-12.1,6.353-17.456a32.283,32.283,0,0,1,3.558-4.514,3.2,3.2,0,0,1,3.571-1.079,2.727,2.727,0,0,1,1.675,2.972c-.2,4.079-.4,8.168-.852,12.223-.541,4.807-.885,9.589.184,14.349a13.616,13.616,0,0,0,1.355,3.356,1.347,1.347,0,0,0,2.378.345,9.464,9.464,0,0,0,2.122-3.075c1.128-3.3,2.042-6.673,2.971-10.037a4.291,4.291,0,0,0-.084-1.8,22.037,22.037,0,0,1,.558-9.92c.134-.477.679-.839,1.034-1.254a6.025,6.025,0,0,1,.532,1.441c.354,3.618.432,7.28,1.065,10.846a17.461,17.461,0,0,0,2.5,5.958c1.558,2.5,3.3,2.377,4.349-.35a40.236,40.236,0,0,0,2.467-8.888c.936-6.812,1.524-13.672,2.2-20.519a30,30,0,0,0-.183-3.024,4.642,4.642,0,0,1,.377-1.286c.433.2,1.048.276,1.266.613a12.683,12.683,0,0,1,1.771,3.329c1.417,5.114,2.761,10.251,3.991,15.413.808,3.392,1.376,6.841,2.106,10.531,8.354-7.311,12.229-16.655,13.394-27.369l.493.092c0,.5.037,1-.005,1.5a38.9,38.9,0,0,1-12.949,26.5,2.923,2.923,0,0,0-.709,2.1c.469,7.94.388,15.8-2.643,23.344-2.132,5.312-5.419,9.355-11.3,10.684a8.848,8.848,0,0,1-7.361-1.446,15.432,15.432,0,0,1-6.876-11.783,8.253,8.253,0,0,1,3.419-7.849c2.451-1.76,5.168-3.154,7.777-4.694,4.22-2.49,8.468-4.935,12.644-7.5a2.214,2.214,0,0,0,.828-1.829c-1.481-8.269-3.057-16.52-4.616-24.775a5.867,5.867,0,0,0-.374-.8c-.187,1.964-.332,3.557-.489,5.149-.686,6.952-1.259,13.924-3.372,20.64a17.783,17.783,0,0,1-1.269,3.082,3.183,3.183,0,0,1-3.975,1.664,7.569,7.569,0,0,1-4.681-3.84c-.394-.685-.731-1.4-1.288-2.48-.57,2.042-.987,3.732-1.519,5.386a30.96,30.96,0,0,1-1.834,4.966c-1.756,3.344-4.854,3.551-7.128.518a14.653,14.653,0,0,1-3.038-9.683c.28-4.935,1.043-9.843,1.631-14.759.286-2.387.644-4.765.969-7.147l-.544-.365a15.8,15.8,0,0,0-2.211,1.515,21.658,21.658,0,0,0-5.408,8.531c-1.65,4.714-2.9,9.569-4.3,14.37-.211.724-.3,1.483-.451,2.253-1.358.331-1.791-.771-2.1-1.535-1.434-3.555-2.755-7.156-4.051-10.764a26.629,26.629,0,0,0-.983-3.083c-.224.648-.4,1.316-.678,1.942-1.443,3.282-2.694,6.672-4.421,9.8-2.2,3.992-6.238,4.629-9.707,1.632a25.2,25.2,0,0,1-3.425-4.381,15.6,15.6,0,0,1-1.008-2.025c-.251.978-.386,1.571-.556,2.155-1.087,3.735-2.111,7.492-3.315,11.189a11.024,11.024,0,0,1-1.918,3.247,2.973,2.973,0,0,1-4.545.6,11.949,11.949,0,0,1-2.825-3.3,43.839,43.839,0,0,1-4.607-14.232c-.1-.583-.218-1.164-.411-2.192-.709,1.721-1.146,3.067-1.8,4.3a35.5,35.5,0,0,1-3.185,5.316c-1.962,2.505-4.81,2.8-7.418.891a15.954,15.954,0,0,1-6.329-11.023,14.782,14.782,0,0,1,2.092-10.774,9.024,9.024,0,0,1,4.577-3.829,3.856,3.856,0,0,1,5.4,3.685c.218,4.489-2.8,8.133-7.52,9.075-.489.1-.98.189-1.59.306.166,4.441,1.04,8.52,4.215,11.765a3.383,3.383,0,0,0,5.136.053,13.139,13.139,0,0,0,2.581-3.525c1.236-2.542,2.248-5.195,3.312-7.818a3.215,3.215,0,0,0,.221-1.48,86.154,86.154,0,0,1,.466-18.639c.137-1.207-.149-1.736-1.36-1.689a54.834,54.834,0,0,0-5.725.267,7.378,7.378,0,0,0-5.5,3.685l-.422-.332a7.06,7.06,0,0,1,.64-1.422,6.743,6.743,0,0,1,4.638-2.645c2.581-.334,5.2-.374,8.033-.555.144-.794.286-1.887.547-2.95.687-2.8,1.412-5.589,2.15-8.375.253-.958.812-1.477,1.8-1.1-.6,3.924-1.112,7.772-1.8,11.588-.295,1.628.273,2.181,1.773,2.582,3.921,1.048,7.775,1.3,11.626-.221a1.867,1.867,0,0,1,.61-.008c-.732,1.121-3.778,2.086-6.815,1.869-2.4-.172-4.775-.731-7.289-1.139a4.738,4.738,0,0,0-.236.994c-.482,10.449-.338,20.869,2.073,31.113A34.217,34.217,0,0,0,376,286.1c1.552,3.141,3.39,3.161,4.982,0a53,53,0,0,0,3.1-8.207,59.971,59.971,0,0,0,1.743-7.539,14.386,14.386,0,0,0-.108-3.747,13.114,13.114,0,0,1,3.686-10.848c4.166-4.316,8.288-3.411,10.213,2.25a35.5,35.5,0,0,1,.907,4.269l-.654.182c-.157-.507-.3-1.021-.475-1.52a39.723,39.723,0,0,0-2.057-5.492c-1.059-1.965-2.462-2.119-4.326-.9a8.089,8.089,0,0,0-3.258,4.972c-1.512,5.661-.541,11.039,2.092,16.174a8.206,8.206,0,0,0,1.337,1.834,3.438,3.438,0,0,0,5.341.095,14.535,14.535,0,0,0,2.808-4.1c1.542-3.624,2.86-7.346,4.183-11.058a5.316,5.316,0,0,0,.08-2.25,79.257,79.257,0,0,1,.474-18.935,3.019,3.019,0,0,0-.272-1.708c-3.465-6.557-2.175-13.208,3.775-17.685,2.153-1.62,4.755-2.643,7.152-3.938,3.645-1.969,7.312-3.9,10.91-5.952a2.316,2.316,0,0,0,1.012-1.786c-.845-8.761-1.788-17.512-2.714-26.266-.008-.078-.109-.146-.359-.46-.1.825-.215,1.437-.247,2.052a96.042,96.042,0,0,1-3.7,21.651,22.971,22.971,0,0,1-1.592,3.934,4.581,4.581,0,0,1-7.925.779,19.663,19.663,0,0,1-1.649-2.89c-.207-.376-.383-.767-.756-1.52a44.892,44.892,0,0,1-1.073,4.6,34.471,34.471,0,0,1-2.734,6.7c-2.046,3.342-5.665,3.072-7.552-.4a21.2,21.2,0,0,1-2.134-9.1,45.7,45.7,0,0,1,1.964-15.9,14.055,14.055,0,0,0,.6-3.875c.015-1.719-.791-2.194-2.192-1.257a14.24,14.24,0,0,0-3.206,2.945,23.535,23.535,0,0,0-4.181,9.364c-.919,3.878-1.618,7.807-2.377,11.721-.227,1.175-.966,1.556-1.875.695a11.443,11.443,0,0,1-2.565-3.157c-1.347-2.821-2.44-5.764-3.631-8.659-.167-.405-.308-.82-.585-1.563-.774,2.305-1.371,4.31-2.121,6.255a38.518,38.518,0,0,1-2.616,5.959c-2.486,4.161-7.129,4.534-10.261.833a48.768,48.768,0,0,1-3.452-5.332c-.118.527-.212,1.072-.363,1.6-1.011,3.546-2.013,7.094-3.068,10.627a8.466,8.466,0,0,1-.944,1.9c-2.758,4.543-6.989,4.993-10.418.9a18.887,18.887,0,0,1-3.065-5.522,63.324,63.324,0,0,1-3.475-17.059c-.044-.555-.1-1.11-.167-1.661a2.061,2.061,0,0,0-.233-.488c-.749,2.5-1.356,4.953-2.227,7.308a42.361,42.361,0,0,1-2.8,6.042c-1.049,1.867-2.364,2.2-4.4,1.508a8.156,8.156,0,0,1-5.064-4.531,23.669,23.669,0,0,1-.839-17.47,10.214,10.214,0,0,1,1.034-1.8l.608.142c.1,1.063.2,2.126.288,3.19.346,4.028.46,8.094,1.128,12.068a18.236,18.236,0,0,0,2.6,6.08c1.319,2.195,2.82,2.215,3.932-.057a86.914,86.914,0,0,0,4.1-10.25,45.427,45.427,0,0,0,2.031-13.145c.132-3.728.7-7.441,1.1-11.393-3.343-.21-6.681-.1-9.636,2.082l-.318-.305A6.487,6.487,0,0,1,330.688,176a13.842,13.842,0,0,1,7.511-1.449c1.371.063,1.9-.427,2.305-1.706.86-2.694,1.929-5.324,2.989-7.949.167-.414.738-.667,1.122-.994a3.859,3.859,0,0,1,.332,1.426c-.467,2.589-1.027,5.162-1.54,7.742-.107.537-.146,1.088-.237,1.793,7.744,1.61,15.1.956,22.106-2.8l.2.434a10.187,10.187,0,0,1-1.3.9,31.5,31.5,0,0,1-17.162,2.786,23.353,23.353,0,0,1-2.7-.393c-.961-.207-1.417.114-1.547,1.088-1.751,13.172-1.985,26.269,2.322,39.06a31.49,31.49,0,0,0,3.362,6.59c1.286,2.038,2.656,2.161,4.349.433a14.965,14.965,0,0,0,2.827-4.074,40.343,40.343,0,0,0,3.452-13.624,18.57,18.57,0,0,0-.361-3.456c-.379-3.577-.275-7.133,1.372-10.395a11.715,11.715,0,0,1,3-3.726c2.471-2,5.408-1.424,7.257,1.152,1.446,2.016,1.889,4.942.748,6.907-.054-.933-.1-1.489-.116-2.045a7.17,7.17,0,0,0-1.87-5c-1.714-1.8-3.249-1.646-4.517.485a18.613,18.613,0,0,0-2.3,12.892,35.506,35.506,0,0,0,2.261,7.2,10.832,10.832,0,0,0,2.264,3.2c1.753,1.867,3.026,1.868,4.663-.106A16.862,16.862,0,0,0,374,208.241c1.066-2.511,1.891-5.124,2.8-7.7a12.135,12.135,0,0,0,.211-6.416,57.173,57.173,0,0,1,.354-24.262,24.048,24.048,0,0,1,4.573-9.344,15.833,15.833,0,0,1,4.033-3.6c2.389-1.452,4.568-.476,4.946,2.288a23.294,23.294,0,0,1-.13,6.777c-1.423,8.8-5.282,16.623-10.028,24.067a3.567,3.567,0,0,0-.6,2.193c.863,6.058,2.993,11.752,5.182,17.424.05.128.186.222.411.481.569-2.3,1.015-4.5,1.664-6.635a90.256,90.256,0,0,1,3.159-9.328,24.328,24.328,0,0,1,3.453-5.124,6.268,6.268,0,0,1,2.2-1.57c2.469-1.2,4.407-.233,4.695,2.513a21.7,21.7,0,0,1-.142,5.735c-.929,5.618-1.735,11.234-.666,16.9a42.76,42.76,0,0,0,1.836,6.246c.479,1.356,1.147,1.5,2.08.394a11.954,11.954,0,0,0,2.214-3.571,39.587,39.587,0,0,0,2.5-14.858,53.58,53.58,0,0,1,.6-7.369,3.047,3.047,0,0,1,.524-1.41,4.424,4.424,0,0,1,1.1-.821c.2.366.549.719.58,1.1.263,3.228.414,6.466.706,9.691a18.636,18.636,0,0,0,3.157,9.39c1.09,1.526,1.888,1.6,2.851-.017a22.55,22.55,0,0,0,2.27-5.1,100.127,100.127,0,0,0,3.8-23.93c.1-2.167.315-4.329.48-6.539,1.207-.318,1.425.666,1.619,1.336a101.754,101.754,0,0,1,3.044,11.261c1.011,5.979,1.552,12.037,2.3,18.061C431.838,206.95,431.918,207.387,432.036,208.154ZM457.336,278c-.427.2-.61.263-.778.357-4.528,2.556-9.074,5.083-13.573,7.689a75.641,75.641,0,0,0-6.646,4.2,6.813,6.813,0,0,0-2.871,5.152c-.362,5.321,1.782,9.478,5.874,12.794a7.592,7.592,0,0,0,8.775.892,14.914,14.914,0,0,0,7.063-7.628c2.726-5.882,3.134-12.08,2.632-18.412C457.684,281.411,457.506,279.782,457.336,278ZM406.711,237.64c.15-.574.262-1.162.456-1.721a73.687,73.687,0,0,1,2.849-7.818,14.388,14.388,0,0,1,3.448-4.335c1.62-1.434,3.569-.774,4.43,1.223a7.411,7.411,0,0,1,.461,1.6,29.885,29.885,0,0,1-1.054,13.941c-.145.492-.264.993-.394,1.489l.332.227a14.028,14.028,0,0,0,2.27-1.669,29.846,29.846,0,0,0,3.525-4.339,40.593,40.593,0,0,0,5.419-16.918c.261-2.213.25-4.457.376-6.946-2.446,1.373-4.465,2.617-6.579,3.666-3.034,1.506-6.181,2.784-9.2,4.319a14.626,14.626,0,0,0-7.1,7.421A10.121,10.121,0,0,0,406.711,237.64Zm-26.939-48.16.49.337a5.235,5.235,0,0,1,.287-.7c4.544-7.762,8.412-15.792,9.586-24.842a16.258,16.258,0,0,0,0-4.954c-.494-2.68-2.22-3.235-3.992-1.209a19.775,19.775,0,0,0-3.582,5.717C379.36,172.11,378.879,180.736,379.772,189.479Zm38.42,41.7a54.805,54.805,0,0,0-1.348-6.34c-.527-1.565-1.7-1.686-2.772-.49a10.883,10.883,0,0,0-1.7,2.486,41.732,41.732,0,0,0-3.472,13.417,1.831,1.831,0,0,0,.612,1.377,6.025,6.025,0,0,0,4.65,1.391c1.042-.117,1.674-.485,1.891-1.562C416.759,237.964,417.5,234.477,418.192,231.182Zm-65.526,34.953a8.424,8.424,0,0,0,8.365-8.5c-.021-1.372-.293-2.724-1.693-3.281-1.348-.537-2.468.252-3.353,1.2C353.211,258.516,352.607,262.159,352.666,266.135Zm55.788-23.461v13.781a41.271,41.271,0,0,0,6.59-12.319,26.588,26.588,0,0,1-3.266-.31A29.976,29.976,0,0,1,408.453,242.674Z" transform="translate(-35.931 -20.022)" fill="#fff"/>
    <path id="Path_796" data-name="Path 796" d="M452.64,124.278c2.052,1.1,4.163,2.106,6.134,3.336,1.5.938,3.027.825,5.023.723-.716-.526-1.124-.861-1.564-1.145-8.3-5.363-17.026-9.778-26.68-12.183-.543-.135-.986-.67-1.745-1.211-3.878.765-7.938-1.178-12.18-1.395-2.526-.129-5.04-.5-7.566-.589-.659-.023-1.342.6-2.013.932l.193.394,16.389,2.445.027.777a7.034,7.034,0,0,1-1.819.233c-4.711-.637-9.421-1.289-14.116-2.033-1.778-.281-2.814.563-3.78,1.876l16.53,2.279q.005.374.012.747a5.945,5.945,0,0,1-1.62.251q-7.3-.924-14.587-1.943a5.145,5.145,0,0,0-3.856.907c-1.291.894-2.739,1.559-4.119,2.324l-.4-.465,2.11-2.86A100.258,100.258,0,0,0,379.09,120.5c.052-1.119.049-1.132,1.248-1.407a96.066,96.066,0,0,1,22.283-2.53c1.751.013,2.818-.712,3.968-2.225a106.176,106.176,0,0,0-26.816,2.8L379,114.594c2.14-.538,4.31-1.16,6.513-1.621,2.625-.549,5.272-1,7.924-1.4a7.32,7.32,0,0,1,2.045.276l-.035.437-13.361,2.584.078.408c2.836-.434,5.662-.969,8.512-1.277,2.937-.317,5.86-1.117,8.872-.261.66.187,1.529-.542,2.318-.588,1.716-.1,3.449.059,5.162-.068a17.9,17.9,0,0,0,3.051-.755l-.1-.58c-2.17,0-4.34-.018-6.509.008-1.011.012-2.023.169-3.031.141a4.467,4.467,0,0,1-1.337-.492l.1-.6h16.738q.008-.3.016-.605c-4.745-.18-9.489-.371-14.234-.533-1.01-.035-2.03.109-3.033.029a2.663,2.663,0,0,1-1.53-.825,104.61,104.61,0,0,1,39.646,4.8l-5.21-8.039.407-.411a7.277,7.277,0,0,1,1.437.788,24.055,24.055,0,0,1,6.371,7.837,3.486,3.486,0,0,0,1.729,1.475c5.524,2.394,11.117,4.633,16.595,7.127,1.28.583,2.222,1.938,3.273,2.984.713.71,1.337,1.286,1.963-.462,4.009,2.79,7.961,5.346,11.7,8.183a104.869,104.869,0,0,1,20.433,20.688c.512.682,1.139,1.349.255,2.331A98.169,98.169,0,0,0,471.85,132.6c.374.338.738.687,1.122,1.012a115.25,115.25,0,0,1,19.583,21.3c1.894,2.651,3.387,5.317,3.328,8.667a7.865,7.865,0,0,0,.536,1.858l1.495-1.881c.356.616.718,1.142.982,1.714,2.041,4.406,4.09,8.809,6.06,13.246a9.1,9.1,0,0,1,.363,2.4l-.591.263A17.1,17.1,0,0,1,503.166,179c-1.539-3.02-3.016-6.072-4.488-9.126a1.99,1.99,0,0,0-1.873-1.234c-1.392-.1-2.769-.4-4.358-.648l4.542,9.023-.442.394a5.217,5.217,0,0,1-1.146-1.1q-1.913-3.539-3.7-7.146a5.123,5.123,0,0,0-3.12-2.874,4.13,4.13,0,0,1-1.893-1.446l2.281-.106a102.589,102.589,0,0,0-11.693-15.208l.312-.416a5.215,5.215,0,0,1,1.577.934c3.526,4.5,7.049,9,10.445,13.595a4.757,4.757,0,0,0,2.933,2.107c1.412.318,2.769.884,4.15,1.341l.374-.28c-2.235-3.249-4.366-6.576-6.734-9.724s-4.973-6.119-7.615-9.339l.887-.783,9.176,11.051.16-.049a6.691,6.691,0,0,0-.433-.9A105.235,105.235,0,0,0,467.041,130.6c-.692-.5-1.873-.335-2.936-.167a134.184,134.184,0,0,1,18.6,15.824l-.284.461a9.975,9.975,0,0,1-2.149-1.251,103.832,103.832,0,0,0-16.9-13.592,16.356,16.356,0,0,0-3.876-1.464c-1.163-.369-2.366-.616-3.551-.916l.036-.39,1.524-.859c-1.325-.719-2.457-1.429-3.668-1.961-.964-.425-1.444-.973-1.17-2.036Z" transform="translate(-58.535)" fill="#fff"/>
    <path id="Path_797" data-name="Path 797" d="M294.692,390.428c.9-1.839.32-2.565-.958-3.407-4.436-2.92-8.89-5.845-13.074-9.106a97.1,97.1,0,0,1-16.887-17.107c-1.358-1.746-2.605-3.579-4.116-5.666.021,1.767,2.155,2.543.947,4.5-2.1-3.89-5.71-6.8-5.031-12.043l-1.473.927a2.709,2.709,0,0,1-.335-.431,106.678,106.678,0,0,1-8.136-20.74,9.3,9.3,0,0,1-.16-1.948c-.059-1.084.78-2.468-1.042-2.965-.163-.045-.245-.533-.3-.827-1.08-6.226-2.191-12.447-3.179-18.687a8.922,8.922,0,0,1,.5-2.823l.66-.05a10.838,10.838,0,0,1,.826,2.727,92.276,92.276,0,0,0,9.387,37.576c1.02,2.124,2.4,2.845,4.776,2.895a109.052,109.052,0,0,1-10.392-35.681l.536-.26a11,11,0,0,1,1.159,2.31c1.322,5.609,2.578,11.235,3.811,16.865.1.477-.186,1.029-.153,1.536a3.184,3.184,0,0,0,.407,1.3c.606,1.083,1.37,2.086,1.9,3.2,1.689,3.566,3.246,7.2,4.985,10.736a5.254,5.254,0,0,0,2,1.882c1.852,1.135,3.807,2.1,5.676,3.21a11.03,11.03,0,0,1,1.655,1.589c-2.185.826-3.768-.4-5.776-.56.411.7.666,1.211.99,1.673,1.537,2.2,3.122,4.365,4.624,6.588a8.4,8.4,0,0,1,.7,1.875c4.112,4.023,8.28,8.1,12.452,12.18.362.354.782.649,1.133,1.012a7.513,7.513,0,0,0,5.345,2.391,25.668,25.668,0,0,1,5.215,1.331l-.028.651-4.161.5a15.362,15.362,0,0,0,1.33,1.105c2.679,1.729,5.389,3.411,8.049,5.169a16.288,16.288,0,0,1,1.73,1.632,1.832,1.832,0,0,0,.655.305,28.006,28.006,0,0,1,3.393,1.129,108.987,108.987,0,0,0,18.456,6.936,7.447,7.447,0,0,1,1.524.838l-.251.572c-.559-.128-1.124-.238-1.677-.388a103.45,103.45,0,0,1-34.659-16.78,17.521,17.521,0,0,0-2.14-1.173l-.276.4c.343.324.667.672,1.032.968,11.195,9.048,23.509,15.97,37.473,19.786.62.17,1.1.833,1.652,1.266l-.319.512c-2.4-.717-4.818-1.4-7.206-2.162-2.506-.8-4.99-1.675-7.476-2.536a10.173,10.173,0,0,1-5.172-3.246c-.888-1.167-1.259-1.057-2.326.065l-6.037-2.993c-.119,1.646.089,2.854,1.727,3.524a33.232,33.232,0,0,1,4.175,2.168,8,8,0,0,1,1.384,1.335l-.332.476-6.561-3.264c-.312,1.607-.6,3.085-.887,4.562l-.518-.03a6.838,6.838,0,0,1-1.035-4.383,2.68,2.68,0,0,0-1.516-2.62c-3.817-2.574-7.561-5.259-11.28-7.973a6.694,6.694,0,0,1-1.235-1.8l.309-.2Zm-2.618-5.784.216-.3-2.064-1.523a106.388,106.388,0,0,1-29.761-33.408c-1.209-2.132-3.2-2.659-5.053-3.646A105.241,105.241,0,0,0,292.075,384.644ZM274.98,367.016c1.691,2.888,7.28,8.05,8.541,7.913Z" transform="translate(-4.365 -76.441)" fill="#fff"/>
    <path id="Path_798" data-name="Path 798" d="M314.428,308.562c5.839-4.248,9.132-10.24,12.294-16.674.547,1.967-.529,5-3.582,9.362-1.89,2.7-4.24,5.073-6.349,7.553,4.623,1.184,7.84,4.572,10.631,8.4,2.713,3.721,5.078,7.7,7.881,11.348a48.917,48.917,0,0,0,6.918,7.392,13.83,13.83,0,0,0,13.117,2.841,26.908,26.908,0,0,0,2.984-1.173l.244.571a21.127,21.127,0,0,1-3.283,1.376c-7.227,1.718-13.688.012-18.835-5.248-2.869-2.932-5.076-6.532-7.449-9.924-1.594-2.278-2.766-4.867-4.475-7.043a68.755,68.755,0,0,0-6.227-6.572,3.555,3.555,0,0,0-3.913-.665c1.883,5.725,3.754,11.412,5.783,17.579-.784-.408-1.506-.544-1.78-.969a26.669,26.669,0,0,1-2.831-5c-1.629-4.406-3.016-8.9-4.5-13.361-.121-.365-.207-.742-.357-1.289-2.566,2.156-5.015,4.211-8.653,4.426.306.857.544,1.548.8,2.233,2.163,5.8,2.883,11.686.982,17.693a15.8,15.8,0,0,1-1.717,3.7c-2.827,4.426-7.674,5.461-11.958,2.436-4.655-3.286-7.191-7.995-8.342-13.487a15.287,15.287,0,0,1,.481-8.089c1.22-3.662,5.123-7.358,10.339-6.1,1.708.411,3.445.7,5.5,1.1a15.207,15.207,0,0,0-.622-1.74q-2.73-5.253-5.5-10.486c-1.3-2.472-2.595-4.967-2.677-7.829a10.781,10.781,0,0,1,.462-3.723c.87-2.55,3.688-3.085,5.614-1.19,1.425,1.4,2.128,4.39,1.163,6.1-.083-.772-.12-1.233-.185-1.691-.249-1.731-.632-3.424-2.161-4.519-1.213-.868-2.431-.47-2.6.992a8.559,8.559,0,0,0,.357,3.858,81.93,81.93,0,0,0,3.406,7.609c1.979,3.987,4.036,7.936,6.139,11.857a1.8,1.8,0,0,0,1.474.766,11.778,11.778,0,0,0,7-4.211,2.733,2.733,0,0,0,.359-1.957c-.9-6.221-1.128-12.44.692-18.515a54.168,54.168,0,0,1,3.3-7.293,4.714,4.714,0,0,1,.815-1.093c1.112-1.228,2.313-2.46,4.156-1.862,1.813.588,2.343,2.268,2.351,3.905a35.691,35.691,0,0,1-.561,6.63,44.03,44.03,0,0,1-6.007,15.16C313.306,304.655,313.263,304.956,314.428,308.562Zm-12.3,17.846c-.044-4.266-1.353-8.249-2.615-12.265-.615-1.955-1.5-3.139-3.689-3.207a20.653,20.653,0,0,1-3.411-.7A7.019,7.019,0,0,0,284.6,313.3a13,13,0,0,0-1.945,4.7c-1.232,6.694,2.8,15.424,8.6,19.052,3.618,2.261,6.672,1.511,8.829-2.183A17.288,17.288,0,0,0,302.123,326.408Zm11.188-23.747c.4-.329.552-.4.624-.516.424-.69.851-1.378,1.239-2.089,3.263-5.983,5.51-12.281,5.678-19.165a7.55,7.55,0,0,0-.811-3.325c-.685-1.415-1.744-1.57-2.762-.388a12.929,12.929,0,0,0-2.333,3.681C312.266,287.867,312.536,295.116,313.311,302.66Z" transform="translate(-20.275 -66.964)" fill="#fff"/>
    <path id="Path_799" data-name="Path 799" d="M380.491,443.163c1.969.385,3.926.871,5.911,1.132,4.013.527,8.037.987,12.068,1.345a5.51,5.51,0,0,0,2.534-.679c2.19-.984,4.338-2.062,6.5-3.1l.434.549-2.984,3.311a95.975,95.975,0,0,0,17.649-1.619l.221.465c-.5.275-.976.743-1.5.8-5.231.543-10.462,1.2-15.71,1.43-2.351.1-3.974,1.1-5.979,2.685a17.855,17.855,0,0,0,1.9.113c6.158-.388,12.314-.8,18.472-1.18a10.738,10.738,0,0,1,1.681.216,2.276,2.276,0,0,0,.874-.026c1.96-.6,3.9-1.274,5.868-1.849,4.416-1.289,8.844-2.534,13.29-3.8.41.877.434.967-.733,1.292-5.747,1.6-11.439,3.52-17.283,4.621-6.395,1.2-12.935,1.638-19.154,2.377,28.6.6,54.222-7.643,75.781-27.542l1,1.369c-2.017,1.644-3.907,3.326-5.941,4.812-4.169,3.045-8.414,5.987-12.63,8.967a5.919,5.919,0,0,1-4.189,1.416c-1.069-.12-1.478.329-.495,1.408l-8.379,4.276,6.843,4.906-.262.582a4.949,4.949,0,0,1-1.644-.188c-2.261-1.123-4.456-2.377-6.724-3.484a2.837,2.837,0,0,0-2.012-.255,110.11,110.11,0,0,1-27.874,7.133,4.55,4.55,0,0,1-2.477-.537c8.3-1.305,16.472-2.857,24.267-6-.526.12-1.059.216-1.577.363a103.543,103.543,0,0,1-23.949,3.831,107.3,107.3,0,0,1-27.958-2.31c-1.522-.341-1.522-.341-2.206-2.173,1.27.206,2.433.425,3.6.577,2.007.261,4.05.338,6.023.755a3.508,3.508,0,0,0,4.5-2.285c-1.9-.191-3.774-.314-5.627-.58-3.407-.487-6.808-1.019-10.2-1.624a9.171,9.171,0,0,1-2.14-.991Z" transform="translate(-59.043 -124.949)" fill="#fff"/>
    <path id="Path_800" data-name="Path 800" d="M307.526,125.649c2.313,1.638,3.972,1.774,6.153.711,4.129-2.011,8.511-3.5,12.764-5.261,1.2-.5,2.122-.1,3.352.6-.688.6-1.156,1.308-1.79,1.525-4.206,1.442-8.448,2.779-12.77,4.18-.091-1.686-1.02-1.291-1.729-.422-2.036,2.491-5.01,3.481-7.617,5.079-4.008,2.456-7.865,5.155-11.807,7.719a15.584,15.584,0,0,1-1.928.884,1.637,1.637,0,0,0-.48.338c-1.522,1.588-3.018,3.2-4.558,4.772-1.523,1.555-3.105,3.054-4.624,4.612a6.73,6.73,0,0,0-.792,1.283l.32.261,8.129-7.27.467.356a8.347,8.347,0,0,1-1.076,1.667c-2.234,2.13-4.565,4.162-6.769,6.322a5.364,5.364,0,0,0-1.16,2.194c-.584,1.846-1.048,3.729-1.56,5.6l-.591-.1V157.24l-.454-.213L276.2,160.2l-.442-.088c.064-.441-.02-1,.218-1.3.935-1.194,1.986-2.3,2.962-3.46a11.181,11.181,0,0,0,.814-1.276l-.456-.312c-1.833,2.375-4.525,4.5-5.3,7.185-1.12,3.9-3.549,6.815-5.5,10.092a109.812,109.812,0,0,0-9.079,18.853c-.185.51-.4,1.009-.7,1.751a4.968,4.968,0,0,1-.459-4.177A111.3,111.3,0,0,1,273.131,159.7a8.026,8.026,0,0,0,1.158-1.924,111.53,111.53,0,0,0-17.961,28.6c-.129-.427-.493-.97-.349-1.262,1.266-2.559,2.649-5.061,3.934-7.611.346-.685.354-1.545.718-2.214a101.985,101.985,0,0,1,16.957-23.226c1.6-1.617,3.156-3.284,4.832-4.82a9.561,9.561,0,0,1,2.426-1.38c.55-.259,1.249-.284.854-1.217-.064-.153.2-.547.414-.7,4.369-3.2,8.693-6.46,13.155-9.522,2.774-1.9,5.764-3.492,8.652-5.23.116-.069.187-.215.341-.4-2.448-.746-4.766-1.469-7,.465a11.4,11.4,0,0,1-2.6,1.551,7.377,7.377,0,0,1-1.724.366l-.221-.546,5.448-3.322-4.1-1.635v-.422a6.83,6.83,0,0,1,1.585-.368,14.337,14.337,0,0,1,3.472.254c1.857.481,3.377-.081,5.063-.8,4.788-2.044,9.666-3.877,14.531-5.734a5.475,5.475,0,0,1,1.833-.027l.01.438Z" transform="translate(-10.257 -5.214)" fill="#fff"/>
    <path id="Path_801" data-name="Path 801" d="M548.338,341.5a7.8,7.8,0,0,1,.76-1.7c3.4-4.4,7.085-8.608,10.219-13.191a102.432,102.432,0,0,0,13.858-29.822,9.5,9.5,0,0,1,1.235-2.028c.1-.163.249-.383.209-.532-.8-2.97.824-5.623,1.1-8.453.265-2.717.7-5.419,1.081-8.124a2.132,2.132,0,0,0-.881-2.2,45.874,45.874,0,0,1-3.4-3.348c-.214,2.694-.36,5.139-.615,7.573-.258,2.457-.623,4.9-.941,7.353l-.6.051a8.635,8.635,0,0,1-.261-1.884c.359-4.536.82-9.065,1.127-13.6a8.242,8.242,0,0,0-.61-2.885c-.549-1.732-1.19-3.436-1.793-5.151l.456-.22,1.965,1.534c-.219-2.9-.414-5.467-.608-8.038l.43-.141a6.333,6.333,0,0,1,.761,1.745c.246,2.313.325,4.644.572,6.957a5.8,5.8,0,0,0,.757,2.226c1.183,2.036,2.46,4.017,3.955,6.431v-12.9l1.192-.269c.061-.125.166-.247.139-.3-2.53-4.734-1.98-10.155-3.382-15.136q-1.521-5.4-3.241-10.745c-.336-1.037-.3-1.629.964-1.89a4.465,4.465,0,0,1,.385.736c3.611,11.646,6.249,23.475,6.459,35.729a19.776,19.776,0,0,1-.721,4.026,5.524,5.524,0,0,1,.715,1.85,108.8,108.8,0,0,1-6.1,32.7,7.8,7.8,0,0,1-1.125,1.655l-.346-.227c1.366-5.084,2.956-10.12,4.035-15.264,1.087-5.179,1.664-10.465,2.346-15.7-1.484,6.642-2.8,13.327-4.517,19.91a54.128,54.128,0,0,1-4.108,11.233c-1.023,1.976-1.6,4.073-2.58,6.028a110.432,110.432,0,0,1-17.316,25.206c-.337.367-.613.79-.917,1.187Z" transform="translate(-124.972 -50.057)" fill="#fff"/>
    <path id="Path_802" data-name="Path 802" d="M241.662,261.435a110.751,110.751,0,0,1,3.785-25.917,3.975,3.975,0,0,1,.8,3.807c-.516,1.636-.775,3.351-1.213,5.014a6.945,6.945,0,0,1-.733,1.355,1.924,1.924,0,0,0-.326.752c-.03,1.53.065,3.065-.029,4.59-.227,3.686-.529,7.367-.814,11.049a6.208,6.208,0,0,0,1,4.183,8.563,8.563,0,0,1,.605,1.4l-1.436-.219v4.581l-.393.162c-.383-1.009-1.176-2.063-1.073-3.02.33-3.038-1.181-5.193-3.18-7.57l-.269,5.352-2.112.6a119.2,119.2,0,0,1,1.377-24.64c-2.305,2.386-4.665,4.643-7.858,5.987a4.708,4.708,0,0,1,.384-1.005,24.124,24.124,0,0,1,6.96-7.32,3.749,3.749,0,0,0,1.67-2.358c1.65-5.574,3.4-11.117,5.2-16.647a3.467,3.467,0,0,1,1.584-1.619c-4.221,11.017-7.147,22.249-7.751,34.011a127.9,127.9,0,0,1,4.95-21.375c.475-1.434,1-2.851,1.5-4.276l.431.06a19.334,19.334,0,0,1-.5,3.652,124.069,124.069,0,0,0-5.268,23.824C238.639,258.351,239.428,259.982,241.662,261.435Z" transform="translate(0 -45.012)" fill="#fff"/>
    <path id="Path_803" data-name="Path 803" d="M574.312,363.591a109.62,109.62,0,0,1-11.334,20.052c2.632-.8,4.832-1.916,7.7-1.377a7.55,7.55,0,0,1-1.524,1.221c-2.252.887-4.552,1.653-6.8,2.548a6.153,6.153,0,0,0-2.222,1.355c-3.339,3.593-6.585,7.273-9.908,10.881a12.291,12.291,0,0,1-1.978,1.445l-.52-.4a12.774,12.774,0,0,1,1.532-2.866,109.026,109.026,0,0,0,20.46-31.559c.288-.678.451-1.537,1.714-1.09a140.389,140.389,0,0,1-10.112,19.978c.394-.526.8-1.041,1.18-1.578a109.622,109.622,0,0,0,10.064-17.471,8.06,8.06,0,0,1,1.233-1.543Z" transform="translate(-124.733 -101.209)" fill="#fff"/>
    <path id="Path_804" data-name="Path 804" d="M425.852,261.754a6.188,6.188,0,0,1-3.755,6.632,11.516,11.516,0,0,1,1.326,2.268,12.626,12.626,0,0,1,.853,4.229c-.136,2.326-1.143,4.355-3.619,5.109-2.154.656-5.081-.542-6.545-2.605-2.776-3.915-2.534-10.953,3.428-13.487.222-.095.427-.232.851-.466a5.9,5.9,0,0,1-1.264-.934c-.648-.867-1.583-1.77-1.678-2.73a3.825,3.825,0,0,1,1.224-2.819,3.272,3.272,0,0,1,2.632-.117c1.074.341,1.485,1.415,1.424,2.892a9.136,9.136,0,0,0-1.022-1.957,2.024,2.024,0,0,0-1.491-.73,1.931,1.931,0,0,0-1.156,1.207,3.593,3.593,0,0,0,1.31,3.8c.582.538,1.231,1,2,1.623a7.969,7.969,0,0,0-5.147,5.56,10.422,10.422,0,0,0,.9,7.529c1.586,3.073,4.347,3.17,6.2.245a6.723,6.723,0,0,0-.161-7.456c-.452-.648-1.021-.871-1.437-.217a35.33,35.33,0,0,0-1.723,3.4,2.467,2.467,0,0,1,.314-3.269,5.582,5.582,0,0,1,1.647-1.32A8.528,8.528,0,0,0,425.852,261.754Z" transform="translate(-71.64 -59.4)" fill="#fff"/>
    <path id="Path_805" data-name="Path 805" d="M495.764,416.52a12.351,12.351,0,0,1,1.969-1.7,101.568,101.568,0,0,0,38.819-37.527,2.181,2.181,0,0,1,1.1-1,5.545,5.545,0,0,1-.34,1.877A101.94,101.94,0,0,1,496.324,416.8a1.117,1.117,0,0,1-.28.063Z" transform="translate(-104.346 -106.35)" fill="#fff"/>
    <path id="Path_806" data-name="Path 806" d="M485.517,439.035a29.506,29.506,0,0,1,3.636-2.325,109.066,109.066,0,0,0,30.764-20.876c.327-.315.662-.622,1-.927a3.2,3.2,0,0,1,.567-.134,6.5,6.5,0,0,1-.864,2.018A107.34,107.34,0,0,1,486.1,439.283a1.224,1.224,0,0,1-.43.006Z" transform="translate(-100.325 -121.447)" fill="#fff"/>
    <path id="Path_807" data-name="Path 807" d="M599.944,264.829c-.314-3.825-.542-7.66-.958-11.473a104.5,104.5,0,0,0-6.234-25.444,9.739,9.739,0,0,1-.29-2.231l.563-.107c.2.44.411.872.585,1.32a109.275,109.275,0,0,1,7.307,35.981,8.842,8.842,0,0,1-.435,2.079Z" transform="translate(-142.283 -47.219)" fill="#fff"/>
    <path id="Path_808" data-name="Path 808" d="M601.161,297.336c-.608,5.162-1.068,10.346-1.862,15.479a95.513,95.513,0,0,1-5.329,19.6,8.022,8.022,0,0,1-1.124,1.607l-.474-.27a8.081,8.081,0,0,1,.26-1.087,108.5,108.5,0,0,0,7.069-33.891,6.348,6.348,0,0,1,.582-1.675Z" transform="translate(-142.248 -75.281)" fill="#fff"/>
    <path id="Path_809" data-name="Path 809" d="M519.256,160.751a6.487,6.487,0,0,1-1.746-.76,102.441,102.441,0,0,0-25.424-17.713,6.783,6.783,0,0,1-.7-.558c.922,0,1.587-.2,2.041.029a97.688,97.688,0,0,1,25.69,18.332A4.035,4.035,0,0,1,519.256,160.751Z" transform="translate(-102.628 -14.29)" fill="#fff"/>
    <path id="Path_810" data-name="Path 810" d="M273.39,174.7c-1.489,1.92-2.945,3.734-4.333,5.6a110.257,110.257,0,0,0-10.4,17.109,6.453,6.453,0,0,1-1.311,1.379l-.474-.394c.619-1.252,1.226-2.511,1.859-3.757a106.509,106.509,0,0,1,12.724-19.389C271.914,174.688,272.312,173.875,273.39,174.7Z" transform="translate(-10.622 -27.122)" fill="#fff"/>
    <path id="Path_811" data-name="Path 811" d="M416.164,474.155c-2.307,0-4.622.123-6.919-.024-5.8-.371-11.589-.844-17.378-1.339a5.576,5.576,0,0,1-1.718-.812l.215-.557c1.579.213,3.159.42,4.737.639a110.057,110.057,0,0,0,19.532.792,6.2,6.2,0,0,1,1.639.393Z" transform="translate(-62.909 -143.673)" fill="#fff"/>
    <path id="Path_812" data-name="Path 812" d="M577.125,328.925a3.611,3.611,0,0,1,.278,1.373,100.572,100.572,0,0,1-8.933,24.22l-.507-.005c0-.49-.172-1.068.026-1.459a104.68,104.68,0,0,0,8.609-24.036Z" transform="translate(-132.644 -87.767)" fill="#fff"/>
    <path id="Path_813" data-name="Path 813" d="M292.092,419.355c-2.536-2.663-5.128-5.277-7.59-8.007-2.064-2.287-4.019-4.678-5.93-7.1a9.785,9.785,0,0,1-1.018-2.351l.619-.442a5.721,5.721,0,0,0,.45.9A110.13,110.13,0,0,0,291.89,417.11a7.39,7.39,0,0,1,1.032,1.683Z" transform="translate(-18.735 -116.224)" fill="#fff"/>
    <path id="Path_814" data-name="Path 814" d="M487.1,131.784a10.2,10.2,0,0,1-3.094-.131c-5.739-2.112-11.431-4.354-17.249-6.6.167-.947,1.032-.618,1.752-.344q9.285,3.531,18.556,7.106Z" transform="translate(-92.965 -7.536)" fill="#fff"/>
    <path id="Path_815" data-name="Path 815" d="M353.548,461.242q7.907,2.38,15.815,4.757a5.308,5.308,0,0,1,1.025.26,16.967,16.967,0,0,1,1.464,1l-.185.363a5.658,5.658,0,0,1-1.129-.112c-5.27-1.6-10.542-3.2-15.793-4.869-.572-.182-1.014-.778-1.516-1.182Z" transform="translate(-48.425 -139.679)" fill="#fff"/>
    <path id="Path_816" data-name="Path 816" d="M580.536,249.335a5.709,5.709,0,0,1-.893-1.392c-1.659-5.868-3.273-11.75-4.919-17.7.336.306.975.617,1.166,1.1a95.984,95.984,0,0,1,5.069,17.723Z" transform="translate(-135.324 -49.05)" fill="#fff"/>
    <path id="Path_817" data-name="Path 817" d="M316.718,152.784c.2-.606.209-1.186.494-1.4a96.655,96.655,0,0,1,15.625-9.7l.309.3a5.926,5.926,0,0,1-1.132,1.348c-4.841,3.1-9.712,6.156-14.577,9.218A4.566,4.566,0,0,1,316.718,152.784Z" transform="translate(-34.101 -14.305)" fill="#fff"/>
    <path id="Path_818" data-name="Path 818" d="M310.631,142.521c-3.906,3.2-7.8,6.4-11.735,9.568a4.907,4.907,0,0,1-1.523.53l-.211-.385a7.974,7.974,0,0,1,.85-.932c3.617-2.916,7.233-5.835,10.894-8.695a4.786,4.786,0,0,1,1.713-.467Z" transform="translate(-26.428 -14.485)" fill="#fff"/>
    <path id="Path_819" data-name="Path 819" d="M457.411,452.353a13.835,13.835,0,0,1,1.45-.653c5.316-1.711,10.638-3.4,16.134-5.16-.53.508-.947,1.221-1.537,1.423-5.054,1.724-10.139,3.357-15.217,5.009-.077.025-.186-.046-.28-.072Z" transform="translate(-89.299 -133.911)" fill="#fff"/>
    <path id="Path_820" data-name="Path 820" d="M374.4,114.358c3.145-.634,6.282-1.306,9.436-1.887,1.734-.319,3.491-.537,5.247-.687a5.314,5.314,0,0,1,1.685.435l-.06.476c-1.729.239-3.469.417-5.184.73-3.124.57-6.227,1.251-9.353,1.807a5.645,5.645,0,0,1-1.785-.277Z" transform="translate(-56.727 -2.574)" fill="#fff"/>
    <path id="Path_821" data-name="Path 821" d="M583.619,208.868c-.176-.283-.364-.558-.524-.848-2.17-3.933-4.355-7.858-6.484-11.813a8.457,8.457,0,0,1-.515-1.943l.5-.181c.618.958,1.29,1.887,1.844,2.881,1.819,3.263,3.624,6.534,5.36,9.842a6.162,6.162,0,0,1,.3,1.963Z" transform="translate(-135.862 -34.864)" fill="#fff"/>
    <path id="Path_822" data-name="Path 822" d="M460.455,129.965a5.189,5.189,0,0,1,1.784-.173c4.946,1.6,9.871,3.26,14.8,4.9q-.026.332-.053.664a3.837,3.837,0,0,1-1.5.16c-4.883-1.645-9.746-3.349-14.611-5.045C460.8,130.45,460.751,130.333,460.455,129.965Z" transform="translate(-90.493 -9.623)" fill="#fff"/>
    <path id="Path_823" data-name="Path 823" d="M351.2,135.612c.347-.391.619-.973,1.051-1.142,3.833-1.492,7.693-2.911,11.546-4.352l.345.478c-.307.355-.547.9-.933,1.035-3.916,1.426-7.857,2.786-11.79,4.165Z" transform="translate(-47.628 -9.769)" fill="#fff"/>
    <path id="Path_824" data-name="Path 824" d="M286.331,167.2c2.668-3.494,3.573-4.193,4.9-3.818C289.643,165.912,287.4,167.717,286.331,167.2Z" transform="translate(-22.179 -22.784)" fill="#fff"/>
    <path id="Path_825" data-name="Path 825" d="M326.8,199.388c-.89.7-1.464,1.455-1.826,1.365A2.206,2.206,0,0,1,323.6,199.4c-.086-.335.729-1.264,1.161-1.279C325.295,198.1,325.851,198.755,326.8,199.388Z" transform="translate(-36.798 -36.448)" fill="#fff"/>
  </g>
</svg>
