<svg xmlns="http://www.w3.org/2000/svg" width="273.051" height="179.737" viewBox="0 0 273.051 179.737">
  <g id="Group_76" data-name="Group 76" transform="translate(-5.159 -1355.848)">
    <path id="Path_775" data-name="Path 775" d="M189.314,1527.394a11.252,11.252,0,0,1-4-2.495c-.044-.041-.086-.084-.127-.127l-.045-.046c-.044-.041-.086-.084-.128-.127l-.044-.046c-.044-.041-.086-.084-.128-.127l-.045-.047c-.044-.04-.086-.083-.127-.126l-.044-.046c-.044-.041-.086-.084-.128-.127l-.045-.046c-.043-.041-.086-.084-.127-.127l-.046-.047c-.043-.04-.086-.083-.127-.126l-.045-.046c-.043-.041-.086-.083-.127-.127l-.045-.046c-.044-.041-.086-.084-.127-.126l-.045-.046c-.044-.041-.086-.083-.127-.126l-.045-.047c-.044-.041-.086-.083-.128-.127l-.045-.046c-.044-.041-.086-.084-.128-.127l-.044-.045c-.044-.041-.086-.084-.129-.128l-.045-.046c-.044-.041-.086-.083-.127-.127l-.044-.046c-.044-.041-.086-.084-.128-.127l-.045-.046c-.043-.041-.086-.084-.127-.127l-.045-.046c-.044-.041-.086-.083-.128-.127l-.044-.045c-.044-.041-.086-.084-.129-.127l-.045-.046c-.044-.041-.086-.084-.127-.127l-.044-.046c-.044-.041-.087-.084-.129-.127l-.044-.046c-.044-.041-.086-.084-.128-.126l-.044-.047c-.044-.041-.086-.084-.128-.127l-.044-.046c-.044-.041-.086-.083-.128-.126l-.045-.047c-.044-.041-.086-.083-.127-.126l-.045-.046c-.044-.041-.086-.084-.128-.127l-.045-.046c-.043-.041-.086-.084-.127-.126l-.046-.047c-.044-.04-.086-.083-.127-.125l-.046-.047c-.043-.04-.084-.083-.126-.125l-.046-.047c-.044-.041-.086-.084-.128-.126l-.044-.047c-.044-.041-.086-.084-.129-.127l-.044-.047c-.044-.04-.086-.083-.127-.126l-.045-.046c-.044-.041-.086-.083-.127-.126l-.045-.047c-.044-.04-.086-.083-.127-.126l-.046-.047c-.044-.04-.086-.083-.127-.126l-.045-.046c-.044-.041-.086-.084-.128-.127l-.044-.046c-.044-.04-.086-.084-.128-.126l-.045-.047c-.044-.041-.086-.084-.127-.126l-.044-.046c-.044-.041-.086-.084-.128-.126l-.045-.047c-.044-.041-.086-.084-.127-.126l-.045-.046c-.044-.041-.086-.084-.128-.127l-.045-.046c-.044-.041-.086-.084-.127-.127l-.045-.047c-.044-.041-.086-.083-.127-.126l-.044-.046c-.044-.041-.086-.083-.128-.125l-.046-.048c-.043-.041-.085-.083-.127-.125l-.046-.047c-.044-.041-.086-.083-.127-.126l-.045-.046c-.044-.041-.086-.083-.127-.126l-.046-.046-.06-.058v14.893l-.595.138-.74.173-.383.089.028-.067.364-.594.153-.25v-.411c0-2.176-.926-2.726-1.637-2.828v-.226l-1.278.3a2.166,2.166,0,0,0-1.076.6l-.05-.006-.173.041c-.77.179-1.692,1-3.649,4.349a6.452,6.452,0,0,0-1.162.732l-.017,0-.438.1-.421.1-.227.368c-.446.723-1.893,3.259-4.407,7.72-.123-1.3-.261-2.341-.425-3.164a7.226,7.226,0,0,0-.52-1.715l.127-.029,1.174-.273.445-.1c.077-.131.145-.245.2-.327l.439-.1.236.03q.135-.333,1.451-.991c.173-.3.338-.578.5-.845l-3.614.841-1.174.273-.944.219v-.212l-.173.04v-.213l-.173.041v-.213l-.173.041v-.213l-.173.04v-.212l-.173.04v-.212l-.173.04v-.213l-.173.04v-.212l-.173.04v-.214l-.173.041v-.213l-.173.04V1534l-.173.04v-.212l-.173.04v-.212l-.173.04v-.213l-.173.04v-.212l-.173.041v-.214l-.173.041v-.213l-.173.041v-.213l-.173.041v-.213l-.173.04v-.212l-.173.04v-.214l-.173.041v-.213l-.173.04v-.213l-.173.04v-.214l-.173.041v-.212l-.173.04v-.213l-.173.04v-.212l-.171.04.548,4.014.117.863.086.623-.132-.024-.3.139c-.084.039-.157.076-.236.114h-.006l-.849.2-7.436,1.731a41.288,41.288,0,0,0-11.272-1.36c-.3,0-.622.007-.934.011l-.009-.066-.145.034-.028-.206-.145.033-.029-.206-.144.033-.029-.206-.145.034-.028-.206-.145.034-.028-.207-.145.034-.029-.206-.145.034-.028-.206-.145.034-.028-.206-.145.033-.029-.206-.144.033-.029-.206-.145.034-.028-.206-.145.034-.028-.206-.145.034-.029-.207-.144.034-.029-.206-.145.034-.028-.206-.145.033-.028-.206-.145.034-.029-.206-.144.034-.029-.206-.145.034-.028-.206-.145.034-.028-.207-.145.034-.029-.206-.145.034-.028-.207-.145.034-.028-.207-.145.034-.029-.206-.144.034-.029-.206-.145.034-.028-.206-.145.033-.028-.206-.145.033-.029-.206-.145.034-.028-.206-.145.034-.028-.207-.145.034-.028-.206-.145.034-.115-.837-.141-1.041-.682-4.993-.186.043-1.7,13-2.477,1.462-1.349.8,1.256.934a11.385,11.385,0,0,0,3.869,1.981,42.022,42.022,0,0,1-2.217,6.063l-.717,1.544.222-.009c-.149.456-.3.983-.462,1.585l-.011.044-.008.044c-.594,3.4-1.156,6.131-1.671,8.11-2.378,6.167-2.7,7.625-2.7,8.239a1.146,1.146,0,0,0,1.134,1.234h.12l.141-.031.058-.015c-.09.457-.272,1.316-.642,2.925a16.225,16.225,0,0,0-4.716-8.55l-5.377-5.516c4.951-2.446,6.508-3.732,7.138-4.506,2.355-1.222,3.775-2.721,4.221-4.458l0-.02,0-.021a2.586,2.586,0,0,0,.056-.543,4.472,4.472,0,0,0-.548-1.964l-.154-.31-.309-.156c-3.681-1.859-8.748-2.8-15.063-2.8-1.061,0-2.175.026-3.31.079l-.051,0-.05.007-1.554.226-.332-.007h-.034a1.675,1.675,0,0,0-.382.046h0l-.281-.064-.311.135a.28.28,0,0,1-.07.009l-1.017.031c-.516.023-.918.048-1.244.078l-.234.021-.2.119-2.667,1.574-1.349.8,1.256.935a11.384,11.384,0,0,0,3.869,1.981,42.014,42.014,0,0,1-2.218,6.063L95,1557.993l.22-.007c-.149.458-.3.987-.465,1.593l-.011.044-.008.044c-.594,3.4-1.156,6.131-1.672,8.11-2.378,6.167-2.7,7.626-2.7,8.24a1.145,1.145,0,0,0,1.134,1.232h.119l.142-.031.057-.015c-.091.467-.279,1.353-.666,3.032l1.117.315a4.12,4.12,0,0,0,1.234,2.5l-.133.516,1.351-.006h.22l.72,0,.25-.676c.976-2.633,1.652-4.358,2.01-5.127a88.955,88.955,0,0,0,4.824-13.357,74.626,74.626,0,0,0,5.386,5.982l.046.046.052.039c8.229,6.266,8.8,6.4,9.182,6.493l.136.033.14,0,.338-.011.22-.007,1.266.672,3.162,1.679-1.77-3.112-.84-1.476a1.188,1.188,0,0,0,.627-.906l.029-.2-.048-.2-.007-.03,1.063.3a4.119,4.119,0,0,0,1.234,2.5l-.133.516,1.351-.007h.22l.72,0,.25-.676c.975-2.629,1.651-4.354,2.01-5.128a88.853,88.853,0,0,0,4.824-13.354,74.77,74.77,0,0,0,5.386,5.981l.047.045.052.04c8.229,6.266,8.8,6.4,9.182,6.493l.135.032.14,0,.338-.011.22-.007,1.266.672,3.162,1.679-1.77-3.112-.84-1.476a1.188,1.188,0,0,0,.627-.905l.029-.2-.048-.2c-.932-3.837-2.531-6.763-4.752-8.7L140,1552.352c4.952-2.448,6.509-3.733,7.138-4.506a8.347,8.347,0,0,0,3.884-3.542q.046.414.112.849l.018.121.046.113c3.046,7.54,3.426,7.828,3.762,8.082l.092.069-.019.215.232-.054.085.064.157-.037-1.275,2.016.392-.091c-.284.581-.681,1.392-1.235,2.523l-.013.026-.012.027-.54,1.278a11.606,11.606,0,0,0-1.094,4.419v.06a4.106,4.106,0,0,0-.135,1.023,2.878,2.878,0,0,0,.8,2.029l-.222.6.707-.165.152.131.514-.12.287-.067.487-.113.09-.188.065-.015.516-.121.206-.488c.1-.248.736-1.355,3.781-5.977,2-2.466,4.886-7,8.829-13.873,7.257-11.7,7.448-12.145,7.54-12.36a2.364,2.364,0,0,0,.152-.491l.828-.192.74-.173.595-.138a1.539,1.539,0,0,0,1.19-1.5V1520.61l.032.031.024.025c.048.049.1.1.147.147l.021.021c.052.054.1.1.153.153l.023.023c.051.052.1.1.15.149l.023.024c.051.052.1.1.149.149l.027.027c.047.048.1.1.147.146l.023.025c.049.05.1.1.149.148l.021.022c.051.052.1.1.152.151l.023.023c.05.051.1.1.149.148l.023.022c.053.054.1.1.151.151l.021.021c.052.054.1.1.153.153l.023.023c.049.05.1.1.149.148l.02.021c.052.054.1.1.153.153l.023.022c.05.052.1.1.149.149l.022.022c.052.053.1.1.153.152l.023.023c.048.049.1.1.149.149l.025.026c.047.048.1.1.148.147l.025.026c.046.048.1.1.147.147l.022.022c.049.051.1.1.15.15l.023.024c.05.052.1.1.151.15l.021.022c.049.051.1.1.151.15l.025.026c.046.048.1.1.146.146l.024.025c.05.052.1.1.15.149l.021.022c.052.053.1.1.152.151l.023.023c.05.052.1.1.148.148l.023.024c.053.054.1.1.151.15l.023.025c.048.05.1.1.149.147l.024.025c.05.051.1.1.149.149l.021.021c.052.053.1.1.151.151l.023.024c.05.052.1.1.149.149l.022.022c.051.052.1.1.152.151l.023.024c.052.054.108.109.164.163a12.764,12.764,0,0,0,4.607,2.866C189.011,1528.382,189.159,1527.893,189.314,1527.394Zm-71.461,48.182a.566.566,0,0,1,.135.3v.05l-.338.011q-.743-.177-8.793-6.309a78.872,78.872,0,0,1-6.5-7.379l-.118.011a90.117,90.117,0,0,1-5.266,15.047q-.556,1.2-2.042,5.2h-.22l.456-1.761-.1-.01-.338.881-.186.678-.1-.009h-.023q-.878,0-1.328-3.045a5.631,5.631,0,0,1,.861-2.874l.574-1.2a2.666,2.666,0,0,0-.082-.95h0c-.023.006-.045.051-.068.134v-.084a62.873,62.873,0,0,0-2.211,6.2q.777-3.373.776-3.723v-.051c-.011,0-.028.029-.05.078l-.557-1.005q2.616-7.7,2.667-7.941l.1-.358-.117-.006q-.878,3.028-2.144,6.531l-.793,1.656q-.371.52-.524.555l-.025,0c-.062,0-.094-.064-.094-.192q0-1.052,2.651-7.921.792-3.025,1.7-8.25a15.824,15.824,0,0,1,.979-2.885v-.034c0-.021-.024-.031-.072-.031h-.013a44.386,44.386,0,0,0,2.582-7.336,8.846,8.846,0,0,1-4.557-1.98l2.667-1.574q.472-.042,1.182-.074l.995-.03a1.335,1.335,0,0,0,.287-.034,1.028,1.028,0,0,0,.185-.061l.22.05a1.712,1.712,0,0,1,.2-.064.605.605,0,0,1,.142-.019h.01l-.033.076,2.092-.3q1.687-.078,3.263-.078,9.271,0,14.594,2.69a3.519,3.519,0,0,1,.439,1.5,1.545,1.545,0,0,1-.033.325q-.574,2.24-3.9,3.9-1.115,1.631-8.2,5.019l6.414,6.579q3.123,2.7,4.456,8.188c-.012.08-.046.128-.1.141a.11.11,0,0,1-.027,0q-.6,0-4.125-5.17l4.59,8.072Zm39.259-39.851a1.557,1.557,0,0,0,.172.172,1.684,1.684,0,0,0,.129.129c-.033.013-.069.019-.1.034l-.289-.1,0-.021-.048-.352A1.6,1.6,0,0,0,157.112,1535.726Zm-28.865-2.02.008.007a1.489,1.489,0,0,0,.172.172,99.054,99.054,0,0,0,.346.346,1.494,1.494,0,0,0,.171.172,2718.274,2718.274,0,0,1,.346.346,1.533,1.533,0,0,0,.174.174,1.51,1.51,0,0,0,.173.172,5418.67,5418.67,0,0,1,.517.517,1.485,1.485,0,0,0,.174.174,1.521,1.521,0,0,0,.173.173,1.5,1.5,0,0,0,.171.171,2780.7,2780.7,0,0,0,.346.346,1841.349,1841.349,0,0,1,.346.346,1.5,1.5,0,0,0,.172.172,1.539,1.539,0,0,0,.174.174,1.5,1.5,0,0,0,.172.172,346.723,346.723,0,0,0,.306.306l-.147,0-.051,0-.05.007-1.556.226-.33-.007h-.034a1.675,1.675,0,0,0-.382.047h0l-.281-.064-.312.135a.338.338,0,0,1-.08.009l-1.006.031-.275.013Zm22.1,9.423q-.574,2.24-3.9,3.9-1.114,1.631-8.2,5.019l6.413,6.579q3.123,2.7,4.456,8.188c-.012.08-.046.127-.1.141l-.027,0q-.6,0-4.125-5.17l4.59,8.073-2.144-1.138a.567.567,0,0,1,.135.3v.051l-.338.011q-.743-.177-8.793-6.309a79.013,79.013,0,0,1-6.5-7.378l-.118.011a90.024,90.024,0,0,1-5.266,15.046q-.556,1.2-2.042,5.2h-.219l.455-1.76-.1-.01-.338.881-.186.678-.1-.009h-.023q-.877,0-1.327-3.044a5.635,5.635,0,0,1,.861-2.875l.574-1.2a2.643,2.643,0,0,0-.082-.95h0c-.023.006-.045.05-.068.134v-.084a62.925,62.925,0,0,0-2.211,6.2q.777-3.372.776-3.722v-.051c-.011,0-.028.029-.05.078l-.557-1.006q2.616-7.7,2.667-7.941l.1-.358-.117-.006q-.878,3.028-2.144,6.532l-.793,1.655q-.371.521-.524.556a.117.117,0,0,1-.025,0c-.062,0-.093-.064-.093-.193q0-1.052,2.65-7.919.792-3.025,1.7-8.25a15.759,15.759,0,0,1,.979-2.884v-.035c0-.021-.024-.031-.072-.031h-.013a44.368,44.368,0,0,0,2.582-7.336,8.859,8.859,0,0,1-4.557-1.98l1.777-1.049.889-.525c.207-.019.462-.035.738-.05.143-.008.282-.017.444-.024l.995-.031a1.4,1.4,0,0,0,.287-.033,1.134,1.134,0,0,0,.185-.061l.22.05a1.648,1.648,0,0,1,.2-.064.645.645,0,0,1,.142-.018h.009l-.033.075,2.092-.3c.374-.017.739-.027,1.1-.038.734-.023,1.458-.039,2.158-.039l.1,0a44,44,0,0,1,8.951.836,26.007,26.007,0,0,1,3.124.853,19.619,19.619,0,0,1,2.418,1,3.522,3.522,0,0,1,.439,1.5A1.545,1.545,0,0,1,150.349,1543.129Zm1.106-3.642a6.447,6.447,0,0,0-.441,1.646c-.043-.1-.089-.194-.138-.293l-.154-.31-.309-.157c-.345-.174-.715-.333-1.084-.49l1.843-.429c.042-.02.075-.038.119-.058a.934.934,0,0,0,.116,0l.106-.025-.011.021C151.486,1539.426,151.469,1539.456,151.455,1539.487Zm15.456,6.622q-5.856,10.2-8.776,13.791-3.578,5.428-3.9,6.188l-.421.1.1-.273a.564.564,0,0,0-.354.249.421.421,0,0,1,.05.172.167.167,0,0,1-.017.071l-.287.067a1.847,1.847,0,0,1-.674-1.465,3.169,3.169,0,0,1,.135-.884v-.2a10.743,10.743,0,0,1,1.013-4.014l.54-1.278q1.823-3.716,1.958-4.016l.118-.278a.211.211,0,0,1,.169-.122.064.064,0,0,0,.017-.037c0-.022-.017-.032-.049-.032a.324.324,0,0,0-.07.01l.422-.668.338-.83.068-.417.135-.031-.4-1.477-.135.031-.034.093a12.546,12.546,0,0,1-.388,1.493l-.27.063.068-.768-.152.035-.119.279-.118.613-.287.067q-.49-.37-3.426-7.642a16.338,16.338,0,0,1-.2-2.427,6.812,6.812,0,0,1,.456-2.68,2.759,2.759,0,0,1,1.12-.987c.083-.05.155-.1.247-.149a1.511,1.511,0,0,0,.194.013.893.893,0,0,0,.194-.019,1.051,1.051,0,0,1,.2-.208,5.627,5.627,0,0,1,1.221-.708.808.808,0,0,0,.144.012,1.692,1.692,0,0,0,.38-.05,3.05,3.05,0,0,1,.945-.72l.047.016.392.132a.6.6,0,0,1,.371-.254l.287-.067h.029c.04,0,.075.007.113.009.009.008.016.018.025.025a1.54,1.54,0,0,0,1.171.541c.028,0,.056-.008.084-.009a7.2,7.2,0,0,1,.78,2.937c.121.879.231,1.94.329,3.193q0,1.831.238,1.832h.015q5.165-9.189,5.958-10.478l.439-.1.236.03q.135-.335,1.451-.991,2.262-3.918,3.14-4.123l.49.054a1.114,1.114,0,0,1,.81-.691v.035c0,.066.037.1.11.1a.4.4,0,0,0,.092-.013l.321-.157a1.057,1.057,0,0,1,.237-.029q.877,0,.877,1.807v.118l-.405.662-.27.647c.012.057.017.106.027.161a3.942,3.942,0,0,1,.074.685,1.775,1.775,0,0,1-.135.734c-.015.035-.054.108-.1.2Q173.494,1535.5,166.912,1546.109Z" transform="translate(-28.659 -54.168)" fill="#fff"/>
    <path id="Path_776" data-name="Path 776" d="M187.485,1538.238l-.027.006.027.2Z" transform="translate(-61.316 -61.347)" fill="#fff"/>
    <path id="Path_777" data-name="Path 777" d="M237.209,1454.575c3.556-4.4,5.359-10.16,5.359-17.128V1366.2a1.54,1.54,0,0,0-.541-1.171,1.607,1.607,0,0,0-.171-.171,1.543,1.543,0,0,0-.175-.174,1.606,1.606,0,0,0-.172-.172,1.557,1.557,0,0,0-.173-.172,61.547,61.547,0,0,0-.346-.346,1.424,1.424,0,0,0-.173-.173,1.5,1.5,0,0,0-.172-.173,1.525,1.525,0,0,0-.173-.173,1.563,1.563,0,0,0-.173-.173,426.241,426.241,0,0,0-.346-.346,1.622,1.622,0,0,0-.172-.172,1.541,1.541,0,0,0-.173-.173,162.863,162.863,0,0,0-.346-.345,1.478,1.478,0,0,0-.173-.173,1.515,1.515,0,0,0-.173-.172,1.533,1.533,0,0,0-.173-.173,1.463,1.463,0,0,0-.173-.172,145.708,145.708,0,0,0-.345-.346,1.537,1.537,0,0,0-.173-.173,689.837,689.837,0,0,1-.345-.345,549.9,549.9,0,0,0-.345-.345,1.585,1.585,0,0,0-.173-.173,1.473,1.473,0,0,0-.173-.172,1.447,1.447,0,0,0-.172-.172,1.526,1.526,0,0,0-.173-.174,1.552,1.552,0,0,0-.172-.172,1.575,1.575,0,0,0-.173-.173,64.182,64.182,0,0,1-.345-.345,1.578,1.578,0,0,0-.173-.173,2759.837,2759.837,0,0,0-.345-.345,1.644,1.644,0,0,0-.173-.173,1.624,1.624,0,0,0-.173-.172,1.517,1.517,0,0,0-.173-.173,1.545,1.545,0,0,0-.172-.172,1.572,1.572,0,0,0-.173-.173,689.837,689.837,0,0,0-.345-.345,1.579,1.579,0,0,0-.173-.173,2759.308,2759.308,0,0,1-.345-.345,1.511,1.511,0,0,0-.173-.173,1.584,1.584,0,0,0-.173-.173,1.538,1.538,0,0,0-1.171-.54,1.564,1.564,0,0,0-.349.04l-.944.22-1.174.273-14.367,3.344-.74.172-.595.139a1.538,1.538,0,0,0-1.19,1.5v2.508c-.03-.029-.06-.058-.092-.085a114.573,114.573,0,0,1-.345-.346,1.578,1.578,0,0,0-.174-.173,1.512,1.512,0,0,0-.173-.173,1.546,1.546,0,0,0-.172-.172,1.573,1.573,0,0,0-.174-.173,1.5,1.5,0,0,0-.172-.172,5715.422,5715.422,0,0,0-.346-.346,1.477,1.477,0,0,0-.171-.171,2780.7,2780.7,0,0,0-.346-.346,15.4,15.4,0,0,0-.387-.38,1.54,1.54,0,0,0-1.305-.294l-.944.22-1.174.273-14.367,3.344-.74.173-.6.138a1.54,1.54,0,0,0-1.189,1.5v5.328a1.619,1.619,0,0,0-.134-.129,67.82,67.82,0,0,1-.346-.346,1.593,1.593,0,0,0-.171-.171,1.564,1.564,0,0,0-.173-.172,1.49,1.49,0,0,0-.174-.174,1.552,1.552,0,0,0-.171-.172,1.487,1.487,0,0,0-.175-.175,1.531,1.531,0,0,0-.171-.171,1.631,1.631,0,0,0-.173-.172,1.538,1.538,0,0,0-.174-.173,1.446,1.446,0,0,0-.172-.172,1.614,1.614,0,0,0-.175-.175,64.91,64.91,0,0,1-.343-.343,1.585,1.585,0,0,0-.174-.174,1.566,1.566,0,0,0-.173-.172,1.494,1.494,0,0,0-.174-.175,1.675,1.675,0,0,0-.171-.171,1.569,1.569,0,0,0-.173-.173,1.633,1.633,0,0,0-.173-.173,1.566,1.566,0,0,0-.173-.172,1.538,1.538,0,0,0-.174-.175,1.609,1.609,0,0,0-.171-.171,1.571,1.571,0,0,0-.173-.172,1.527,1.527,0,0,0-.174-.173,15.478,15.478,0,0,0-.387-.38,1.533,1.533,0,0,0-1.305-.293l-.944.22-1.174.273-14.367,3.344-.741.173-.595.139a1.538,1.538,0,0,0-1.19,1.5v65.717c-.029-.03-.06-.058-.092-.085a1.47,1.47,0,0,0-.173-.173,64.16,64.16,0,0,0-.345-.345,1.486,1.486,0,0,0-.174-.174,1.607,1.607,0,0,0-.171-.171,1.591,1.591,0,0,0-.173-.174,63.435,63.435,0,0,1-.345-.345,1.6,1.6,0,0,0-.175-.174,1.485,1.485,0,0,0-.171-.171,1.532,1.532,0,0,0-.174-.174,1.56,1.56,0,0,0-.172-.173,1.582,1.582,0,0,0-.173-.172,1.5,1.5,0,0,0-.214-.207,1.537,1.537,0,0,0-.956-.334,1.519,1.519,0,0,0-.349.041l-.944.219-1.174.274-8.673,2.019V1387.7a1.539,1.539,0,0,0-.541-1.171,68.984,68.984,0,0,0-.345-.345,1.5,1.5,0,0,0-.172-.172,57.982,57.982,0,0,0-.346-.347,1.52,1.52,0,0,0-.173-.172,1.5,1.5,0,0,0-.173-.172,1.56,1.56,0,0,0-.172-.173,1.6,1.6,0,0,0-.175-.174,1.561,1.561,0,0,0-.173-.172,1.627,1.627,0,0,0-.173-.172,1.549,1.549,0,0,0-.172-.172,1.518,1.518,0,0,0-.173-.172,1.48,1.48,0,0,0-.174-.174,2760,2760,0,0,1-.69-.69,1.51,1.51,0,0,0-.173-.172,1.533,1.533,0,0,0-.174-.174,1.561,1.561,0,0,0-.173-.173,1.494,1.494,0,0,0-.172-.172,1.511,1.511,0,0,0-.173-.173,1.578,1.578,0,0,0-.173-.173,1.538,1.538,0,0,0-.174-.173,1.51,1.51,0,0,0-.173-.172,1.548,1.548,0,0,0-.172-.172,1.564,1.564,0,0,0-.173-.173,154.286,154.286,0,0,1-.347-.346,114.45,114.45,0,0,1-.344-.344,1.649,1.649,0,0,0-.173-.173,1.517,1.517,0,0,0-.173-.172,1.474,1.474,0,0,0-.174-.174,1.5,1.5,0,0,0-.172-.172,107339001537.939,107339001537.939,0,0,1-.345-.345,1670.907,1670.907,0,0,0-.52-.52,1.552,1.552,0,0,0-.171-.171,1.509,1.509,0,0,0-.173-.172,1.543,1.543,0,0,0-.174-.174,1.5,1.5,0,0,0-.172-.172,1.556,1.556,0,0,0-.175-.175,1.476,1.476,0,0,0-.171-.171,1.567,1.567,0,0,0-.173-.173,1.669,1.669,0,0,0-.174-.174,1.565,1.565,0,0,0-.173-.172,1.5,1.5,0,0,0-.214-.207,1.538,1.538,0,0,0-.957-.334,1.517,1.517,0,0,0-.348.04l-.944.22-1.174.273-14.367,3.344-.74.172-.595.139a1.538,1.538,0,0,0-1.19,1.5v45.436l-5.069-31.043-.165-1.009-.132-.812a1.539,1.539,0,0,0-.52-.922,3646.817,3646.817,0,0,0-.347-.347,146.961,146.961,0,0,0-.348-.348,1.516,1.516,0,0,0-.167-.167,1.492,1.492,0,0,0-.175-.175,1.584,1.584,0,0,0-.174-.174,400.619,400.619,0,0,1-.516-.515,386.119,386.119,0,0,0-.519-.52,1.5,1.5,0,0,0-.177-.177,1.469,1.469,0,0,0-.167-.167,1.555,1.555,0,0,0-.174-.175,1.537,1.537,0,0,0-.174-.174,1.564,1.564,0,0,0-.172-.172,118.06,118.06,0,0,1-.344-.343,1.511,1.511,0,0,0-.175-.175,1004.054,1004.054,0,0,1-.345-.345,1.537,1.537,0,0,0-.177-.177,126.693,126.693,0,0,1-.342-.342,1.571,1.571,0,0,0-.173-.172,131.616,131.616,0,0,0-.349-.349,1.5,1.5,0,0,0-.165-.166,97.621,97.621,0,0,1-.347-.346,1.486,1.486,0,0,0-.174-.174,1.523,1.523,0,0,0-.177-.177,1.584,1.584,0,0,0-.166-.167,1.527,1.527,0,0,0-.179-.178,1.48,1.48,0,0,0-.167-.167,1.6,1.6,0,0,0-.174-.174,1.532,1.532,0,0,0-.177-.177,1.576,1.576,0,0,0-.166-.167,1.52,1.52,0,0,0-.18-.179,1.567,1.567,0,0,0-.166-.167,1.614,1.614,0,0,0-.175-.176,138.179,138.179,0,0,1-.342-.342,1.588,1.588,0,0,0-.18-.18,1.562,1.562,0,0,0-.166-.165,68.926,68.926,0,0,0-.352-.352,1.568,1.568,0,0,0-.166-.167,1.542,1.542,0,0,0-1.174-.543,1.564,1.564,0,0,0-.349.04l-.8.187-1,.232L84,1390.3l-.631.147-.508.118a1.539,1.539,0,0,0-1.173,1.268l-.078.516-.1.641-1.338,8.794a1.512,1.512,0,0,0-.137-.131l-.021-.024a1.6,1.6,0,0,0-.141-.137l-.031-.035a1.466,1.466,0,0,0-.153-.149l-.021-.025a1.667,1.667,0,0,0-.143-.139l-.028-.032a1.569,1.569,0,0,0-.146-.143l-.027-.031a1.476,1.476,0,0,0-.154-.149l-.021-.023a1.524,1.524,0,0,0-.14-.137l-.031-.035a1.537,1.537,0,0,0-.153-.149l-.021-.024a1.5,1.5,0,0,0-.143-.14l-.027-.031a1.491,1.491,0,0,0-.147-.143l-.027-.031a1.544,1.544,0,0,0-.154-.149l-.021-.023a1.538,1.538,0,0,0-.14-.138l-.031-.034a1.544,1.544,0,0,0-.154-.149l-.021-.024a1.4,1.4,0,0,0-.143-.14l-.028-.032a1.49,1.49,0,0,0-.146-.143l-.027-.031a1.559,1.559,0,0,0-.154-.149l-.021-.024a1.74,1.74,0,0,0-.141-.139l-.03-.034a1.5,1.5,0,0,0-.148-.144l-.025-.029a1.526,1.526,0,0,0-.149-.145l-.024-.027a1.574,1.574,0,0,0-.147-.143l-.027-.031a1.555,1.555,0,0,0-.153-.149l-.021-.024a1.555,1.555,0,0,0-.141-.139l-.029-.034a1.587,1.587,0,0,0-.148-.144l-.025-.029a1.51,1.51,0,0,0-.148-.144l-.024-.028a1.673,1.673,0,0,0-.147-.143l-.026-.03a1.631,1.631,0,0,0-.153-.149l-.021-.024a1.477,1.477,0,0,0-.141-.139l-.03-.034a1.517,1.517,0,0,0-.148-.145l-.025-.028a1.574,1.574,0,0,0-.148-.144l-.025-.028a1.52,1.52,0,0,0-.147-.144l-.026-.03a1.553,1.553,0,0,0-.153-.149l-.021-.024a1.512,1.512,0,0,0-.141-.138l-.03-.035a1.584,1.584,0,0,0-.147-.144l-.025-.029a1.526,1.526,0,0,0-.149-.145l-.024-.027a1.583,1.583,0,0,0-.147-.144l-.026-.03a1.541,1.541,0,0,0-.153-.149l-.021-.024a1.537,1.537,0,0,0-.141-.139l-.029-.034a1.591,1.591,0,0,0-.148-.144l-.025-.029a1.522,1.522,0,0,0-.148-.145l-.025-.028a1.4,1.4,0,0,0-.147-.143l-.027-.031a1.531,1.531,0,0,0-.153-.148l-.021-.024a1.553,1.553,0,0,0-.141-.139l-.03-.034a1.591,1.591,0,0,0-.147-.145l-.025-.028a1.589,1.589,0,0,0-.148-.144l-.025-.028a1.582,1.582,0,0,0-.147-.144l-.026-.03a1.6,1.6,0,0,0-.153-.148l-.022-.025a1.538,1.538,0,0,0-1.145-.511,1.561,1.561,0,0,0-.349.04l-1.362.317-1.7.395-15.36,3.575-.54.126-.434.1a1.539,1.539,0,0,0-1.125,1.056l-.128.427-.159.531-1.251,4.161-.013-.011a1.555,1.555,0,0,0-.175-.175,1.492,1.492,0,0,0-.172-.171,1.469,1.469,0,0,0-.173-.173,1.656,1.656,0,0,0-.173-.173,1.617,1.617,0,0,0-.171-.171,1.555,1.555,0,0,0-.175-.175,1.5,1.5,0,0,0-.172-.172,1164.282,1164.282,0,0,0-.346-.346,1.549,1.549,0,0,0-.172-.172,313.413,313.413,0,0,0-.346-.346,1.616,1.616,0,0,0-.173-.173,1.527,1.527,0,0,0-.173-.173,570.128,570.128,0,0,0-.346-.346,1.493,1.493,0,0,0-.172-.171,1.515,1.515,0,0,0-.173-.173,4411.533,4411.533,0,0,0-.345-.345,1.584,1.584,0,0,0-.174-.174,1.5,1.5,0,0,0-.172-.172,1.51,1.51,0,0,0-.214-.207,1.538,1.538,0,0,0-.957-.334,1.517,1.517,0,0,0-.348.04l-.944.22-1.173.273L26.88,1403.6l-.74.173-.6.139a1.538,1.538,0,0,0-1.189,1.5v89.923a1.537,1.537,0,0,0,.54,1.171,2478.014,2478.014,0,0,1,.346.346,1.485,1.485,0,0,0,.171.171,1.6,1.6,0,0,0,.175.175,1.621,1.621,0,0,0,.173.172,1.483,1.483,0,0,0,.171.171,657.225,657.225,0,0,1,.346.346,1.6,1.6,0,0,0,.174.174,1.543,1.543,0,0,0,.172.171,1.527,1.527,0,0,0,.173.173,64.255,64.255,0,0,0,.344.344,3328.777,3328.777,0,0,1,.346.346,1.588,1.588,0,0,0,.173.173,3482.5,3482.5,0,0,1,.344.344,56.822,56.822,0,0,0,.346.346,1.51,1.51,0,0,0,.173.173,1.5,1.5,0,0,0,.174.174,111.62,111.62,0,0,1,.345.346,1.547,1.547,0,0,0,.172.171,1.506,1.506,0,0,0,.173.173,1.633,1.633,0,0,0,.173.173,1.572,1.572,0,0,0,.173.173,1.644,1.644,0,0,0,.173.173,137.1,137.1,0,0,1,.345.344,1.46,1.46,0,0,0,.173.173,1525.383,1525.383,0,0,0,.346.346,1.559,1.559,0,0,0,.172.172,1.51,1.51,0,0,0,.173.173,1.527,1.527,0,0,0,.173.174,1.566,1.566,0,0,0,.173.172,1.522,1.522,0,0,0,.173.173,1.553,1.553,0,0,0,.172.172,1.469,1.469,0,0,0,.173.173,138.843,138.843,0,0,1,.345.346,1.582,1.582,0,0,0,.173.172,689.845,689.845,0,0,0,.345.345,1.481,1.481,0,0,0,.133.133c-1.191-.139-2.719-.244-4.7-.291h-.034l-.034,0-7.472.3-.1,0-.095.022-.1.024-.806.186v1.586a50.45,50.45,0,0,0-7.339,4.3l-.76.517.232.452a7.742,7.742,0,0,0-1.325,1.438l-.357.54c-1.419,1.643-2.905,3.323-4.421,5l-.508.561.378.656.1.176.652,1.133.358-.332v.366l1.13-1.168a11.3,11.3,0,0,0-.707,3.863v.62a5.417,5.417,0,0,0,.506,2.4c.047,2.249.7,3.707,1.952,4.345a15.633,15.633,0,0,0,3.833,3.181l.127.079.145.04a24.79,24.79,0,0,0,6.5,1,13.484,13.484,0,0,0,3.051-.328l.1-.023.805-.187v-.256c4.711-2.144,7.542-3.514,8.643-4.182l.047-.029.044-.033a39.173,39.173,0,0,0,5.672-4.918c4.727-5.168,4.727-5.538,4.727-6.052v-.071l.679-.722.128-.031-.07,1,0,.066,0,.066c.286,5.1,2.58,6.171,4.453,6.171a5.809,5.809,0,0,0,1.311-.161l.1-.023a10.441,10.441,0,0,0,4.631-3.069l.234.67.283-.066a3.709,3.709,0,0,0,.871,2.724l.153.14.052.363,1.107-.261.185-.043.751-.177.049-.77q.021-.327.077-.676l.206-.048.582-.133v0l.263-.062.167-.589a19.116,19.116,0,0,1,.952-2.941l.025-.045.021-.046a33.083,33.083,0,0,0,1.742-6.719l.011-.058,0-.06c.163-2.411,1.495-7.781,3.958-15.959l.092-.3-.092-.3,0-.007c.044-.159.092-.313.135-.475-.1-.007-.205-.022-.308-.035-.246-.643-.7-1.45-1.6-1.45-.026,0-.051,0-.077,0a1.214,1.214,0,0,0-.5-.106h-.116l-.143.029-.211.05a1.376,1.376,0,0,0-.574.293l-.013-.006-.352.081-.1.023-.353.082-.226.283c-.123.154-.232.3-.329.443a1.968,1.968,0,0,0-.428-.048,1.773,1.773,0,0,0-.4.046,1.558,1.558,0,0,0-.713.379l0,0-.1.024-.069-.2-.1.024-.069-.2-.1.024-.068-.2-.1.024-.068-.2-.1.024-.069-.2-.1.025-.068-.2-.1.025-.069-.2-.1.024-.068-.2-.1.025-.069-.2-.1.025-.068-.2-.1.024-.068-.2-.1.024-.068-.2-.1.025-.069-.2-.1.024-.068-.2-.1.024-.068-.2-.1.025-.069-.2-.1.025-.069-.2-.1.024-.068-.2-.1.024-.068-.2-.1.025-.069-.2-.1.025-.068-.2-.1.024-.068-.2-.1.024-.068-.2-.1.025-.068-.2-.1.025-.068-.2-.1.024-.068-.2-.1.025-.069-.2-.1.025-.069-.2-.1.024-.068-.2-.1.024-.068-.2-.1.025-.069-.2-.1.025-.068-.2-.1.025-.068-.2-.1.025-.069-.2-.1.025-.069-.2-.1.025-.068-.2-.1.024-.068-.2-.1.024-.069-.2-.1.025-.068-.2-.1.025-.068-.2-.1.024-.068-.2-.1.025-.069-.2-.055.013v10.094l-.283.064-.078-.674-1.433,1.019-.145.1-.189-.049-.388.248,0,0L36.82,1503.65l-1.174.273-.944.22v-.213l-.173.04v-.213l-.173.041v-.213l-.173.04v-.213l-.173.041v-.214l-.173.041v-.213l-.173.041v-.213l-.173.041v-.213l-.173.04v-.214l-.173.041v-.213l-.173.041v-.213l-.173.04v-.212l-.173.04v-.213l-.173.041v-.213l-.173.04v-.213l-.173.04v-.213l-.173.041v-.213l-.173.04v-.213l-.173.04v-.213l-.173.04v-.212l-.173.04v-.213l-.173.041v-.213l-.173.04v-.212l-.173.04v-.213l-.173.041v-.213l-.173.04v-.213l-.173.04v-.213l-.173.04v-.213l-.173.04v-.213l-.173.041v-.213l-.173.04v-.213l-.173.04v-.212l-.173.04v-.213l-.173.04v-.212l-.173.04v-.212l-.173.04v-.213l-.173.041v-.213l-.173.041v-.214l-.173.041v-.213l-.173.041v-.213l-.173.041v-.213l-.173.04v-.212l-.173.04v-.213l-.173.041v-.213l-.173.041v-.213l-.173.04v-.213l-.173.041v-.212l-.173.04v-.213l-.173.04v-.212l-.173.04v-.214l-.173.04v-.213l-.173.04v-89.923l.595-.139.74-.172,14.368-3.345,1.174-.273.944-.22v.213l.173-.04v.213l.173-.041v.213l.173-.04v.212l.173-.04v.213l.173-.04v.213l.173-.04v.212l.173-.041v.214l.173-.04v.213l.173-.041v.213l.173-.04v.213l.173-.041v.212l.173-.04v.213l.173-.04v.212l.173-.04v.213l.173-.04v.213l.173-.041v.213l.173-.041v.213l.173-.04v.212l.173-.04v.213l.173-.041v.213l.173-.04v.212l.173-.041v.214l.173-.041v.213l.173-.041v.213l.173-.04v.213l.173-.041v.212l.173-.04v.213l.173-.04v.212l.173-.04v.212l.173-.04v.213l.173-.041v.213l.173-.04V1407l.173-.04v.078l2.009-6.682.16-.531.128-.427.434-.1.54-.126,15.36-3.575,1.7-.394,1.363-.317-.081.232.255-.06-.082.232.254-.059-.081.232.254-.059-.081.232.254-.059-.081.232.252-.059-.081.232.255-.059-.081.232.254-.06-.082.232.254-.059-.082.232.255-.059-.082.232.253-.059-.082.232.256-.06-.082.232.254-.059-.081.232.254-.059-.082.232.255-.06-.082.232.253-.058-.081.232.255-.06-.082.232.254-.059-.081.232.254-.059-.082.232.254-.06-.081.232.252-.059-.081.232.255-.059-.081.232.254-.059-.082.231.254-.059-.082.232.255-.059-.082.232.253-.059-.082.232.256-.06-.082.232.254-.059-.081.232.254-.059-.082.232.255-.059-.082.232.253-.058-.081.232.255-.06-.081.232.254-.059-.082.232.253-.059-.081.232.255-.06-.082.232.253-.059-.081.232.256-.059-.082.232.254-.059-.082.231.253-.058-.081.232.256-.059-.082.232.253-.058-.082.232.256-.06-.082.232.254-.059-.081.232.253-.059-.082.232.256-.06-.082.232.253-.059-.081.232.255-.06-.081.232.253-.059-.082.232.254-.06-.081.232.255-.06-.082.232.253-.059-.081.232.255-.059-.463,1.321-.576,1.643-16.262,46.4,8.7,20.77,2.97-23.038,8.759-57.567.1-.641.078-.516.508-.118.631-.147,18.639-4.338,1-.232.8-.187.034.205.138-.032.034.2.14-.032.033.206.139-.032.033.205.139-.032.034.205.14-.033.033.205.138-.032.034.206.14-.033.033.206.14-.033.033.205.138-.032.034.205.14-.032.033.2.139-.032.033.205.14-.032.034.205.139-.033.033.205.139-.032.033.2.14-.033.034.206.138-.033.034.205.14-.032.033.206.139-.033.033.205.139-.033.034.205.14-.032.033.205.138-.033.034.206.14-.033.034.205.139-.032.034.205.139-.033.033.205.139-.032.033.2.139-.032.034.205.139-.033.034.205.139-.032.033.2.139-.033.033.206.139-.032.034.205.138-.032.034.205.14-.033.033.206.139-.032.033.205.139-.032.034.205.139-.032.033.2.139-.032.033.205.14-.032.034.205.139-.032.034.2.139-.032.033.206.139-.032.033.205.139-.032.034.2.139-.032.034.205.139-.032.033.2.139-.032.033.206.139-.032.034.205.138-.032.034.2.14-.032.033.206.139-.032.034.205.139-.032.034.205.139-.033.033.205.139-.033.133.812.165,1.009,8.126,49.766v-64.407l.6-.139.739-.172,14.368-3.344,1.173-.273.944-.22v.213l.173-.04v.213l.173-.041v.213l.173-.04v.213l.173-.04v.213l.173-.041v.213l.173-.04v.213l.173-.04v.213l.173-.041v.213l.173-.04v.212l.173-.04v.213l.173-.041V1381l.173-.041v.213l.173-.04v.212l.173-.04v.213l.173-.041v.213l.173-.041v.213l.173-.04v.212l.173-.04v.213l.173-.041v.213l.173-.04v.212l.173-.04v.213l.173-.041v.213l.173-.041v.213l.173-.04v.212l.173-.04v.212l.173-.04v.213l.173-.04v.213l.173-.04v.212l.173-.04v.213l.173-.04v.213l.173-.04v.213l.173-.04v.213l.173-.04v.213l.173-.04v.213l.173-.04v.212l.173-.04v.212l.173-.04v.213l.173-.041v.213l.173-.04v.212l.173-.04v.213l.173-.041v.213l.173-.041v.213l.173-.04v.212l.173-.04v.213l.173-.041v.213l.173-.04v.212l.173-.04v.213l.173-.041v.213l.173-.04v.213l.173-.04v.213l.173-.04v52.349l10.561-2.458,1.174-.273.944-.22v.213l.173-.04v.213l.173-.041v.213l.173-.041v.214l.173-.041V1438l.173-.041v.213l.173-.041v.214l.173-.041v.212l.172-.04v.213l.173-.041v.213l.173-.041v.213l.173-.04v.213l.173-.041v.213l.173-.041v.213l.173-.04v.212l.173-.04v.213l.173-.04v.213l.173-.04v.212l.173-.04v.213l.173-.04v.212l.173-.04v.213l.173-.04v.212l.173-.04v.212l.173-.04v.213l.173-.04v.212l.173-.04v.214l.173-.041v.213l.173-.041v.213l.173-.041v.213l.173-.04v.212l.038-.009v-69.6l.6-.139.74-.172,14.368-3.345,1.174-.273.944-.22v.213l.173-.04v.213l.173-.041v.213l.172-.04v.213l.173-.04v.213l.173-.041v.213l.173-.04v.212l.173-.04v.212l.173-.04v.213l.173-.04v.212l.173-.041v.213l.173-.04v.213l.173-.041v.213l.173-.041v.213l.173-.04v.212l.173-.04v.213l.173-.041v.213l.173-.04v.213l.173-.04v.213l.173-.041v.212l.173-.04v.213l.173-.04v.212l.173-.04v.213l.173-.041v.213l.173-.04v.212l.173-.041v.214l.173-.041v.213l.173-.041v.213l.173-.041v.213l.173-.04v.212l.173-.04v.213l.173-.04v.213l.173-.04v.213l.173-.04v.213l.173-.04v.213l.173-.04v.213l.173-.04v.212l.172-.04v.213l.173-.04v.213l.173-.04v.213l.173-.041v.214l.173-.04v.213l.173-.04v.213l.08-.019v-9.156l.595-.139.741-.173,14.367-3.344,1.173-.273.944-.22v.213l.173-.041v.213l.173-.04v.212l.173-.04v.214l.173-.04v.213l.173-.041v.213l.173-.04v.213l.173-.04v.212l.173-.04v.213l.173-.04v.213l.173-.041v.213l.173-.04v.213l.173-.04V1365l.173-.041v.213l.173-.04v.213l.173-.041v.213l.173-.04v.213l.173-.04v.212l.173-.04v.213l.173-.041v.213l.173-.04v.213l.173-.041v.213l.173-.04v.212l.173-.04v.213l.173-.041v.213l.173-.04v.212l.173-.04v.213l.173-.041v.213l.173-.041v.213l.173-.04v.213l.038-.009v-6.388l.6-.138.74-.172,14.367-3.344,1.174-.274.944-.219v.212l.173-.04v.213l.173-.04v.213l.173-.041v.213l.173-.04v.212l.173-.04v.213l.173-.04v.213l.173-.04v.212l.173-.04v.213l.173-.04v.213l.173-.04v.213l.173-.04v.213l.173-.04v.213l.173-.04v.213l.173-.041v.213l.173-.041v.214l.173-.04v.213l.173-.041v.213l.173-.041v.213l.173-.04v.212l.173-.04v.213l.173-.041v.213l.173-.041v.213l.173-.04v.213l.173-.041v.213l.173-.041v.213l.173-.04v.212l.173-.04v.213l.173-.041v.213l.173-.04v.213l.173-.04v.213l.173-.041v.213l.173-.04v.213l.173-.04v.213l.173-.04v.213l.173-.04v.213l.173-.041v.213l.173-.041v.214l.173-.041v.213l.173-.041v.213l.173-.04v.213l.173-.04v.212l.173-.04v.213l.173-.04v.213l.173-.041v.213l.173-.04v.212l.173-.04v.213l.173-.041v.213l.173-.04v.212l.173-.041v.214l.173-.04v.213l.173-.041v71.252c0,10.215-4,17.477-11.869,21.707-.225-.661-.676-1.651-1.674-1.651-.025,0-.05,0-.076,0a1.215,1.215,0,0,0-.5-.106h-.121l-.149.031-.2.046a1.411,1.411,0,0,0-.577.3l-.019-.009-.357.086-.1.025-.347.083-.222.279q-.186.233-.33.443a1.959,1.959,0,0,0-.427-.047,1.767,1.767,0,0,0-.407.046,1.555,1.555,0,0,0-.751.408l-.108.025-.372.086-.4.094-.229.346c-.421.638-1.162,2.363-3.16,10.107l-.425,1.647.082-.018c-.088.334-.192.735-.315,1.216l-.429,1.669.131-.031c-.078.541-.158,1.208-.252,2.035v.015a17,17,0,0,1-1.96,2.062,14.043,14.043,0,0,1-.1-1.834q0-.543.016-1.17l.082-1.026c.045-.657.374-2.711,1.69-8.827l.372-.088v-.824a1.2,1.2,0,0,0-.062-.382l.009-.167,0-.037c.162-.493.309-.913.443-1.256-.246.035-.477.051-.717.08l.046-.558-1.159.028-.132,0v-.451l-.6.135-.078-.676-1.435,1.019-.145.1-.187-.049-.389.248a3.566,3.566,0,0,1-.414.22,1.252,1.252,0,0,0-.2.026l-.16.038a12.405,12.405,0,0,1-7.676-3.326c-.044-.041-.086-.084-.128-.127l-.045-.046c-.044-.041-.086-.084-.129-.127l-.044-.045c-.044-.042-.087-.085-.129-.128l-.043-.044c-.044-.041-.086-.084-.127-.127l-.046-.047c-.044-.041-.086-.084-.128-.127l-.044-.045c-.044-.041-.086-.084-.128-.127l-.046-.047c-.044-.041-.086-.084-.128-.127l-.044-.045c-.044-.04-.086-.084-.128-.127l-.045-.046c-.043-.04-.086-.083-.127-.126l-.046-.047c-.044-.041-.086-.084-.127-.127l-.044-.045c-.044-.041-.086-.084-.128-.127l-.045-.047c-.044-.041-.086-.084-.128-.127l-.044-.045c-.044-.041-.086-.084-.127-.127l-.045-.046c-.044-.041-.086-.084-.127-.127l-.046-.047c-.044-.04-.086-.083-.127-.126l-.044-.045c-.044-.041-.086-.084-.128-.127l-.045-.047c-.044-.04-.086-.084-.128-.127l-.044-.045c-.044-.041-.086-.084-.128-.127l-.045-.047c-.043-.04-.085-.083-.127-.126l-.046-.047c-.043-.04-.086-.084-.127-.126l-.044-.046c-.044-.041-.086-.084-.128-.127l-.044-.046c-.044-.04-.086-.084-.128-.126l-.045-.046c-.044-.041-.086-.084-.127-.126l-.045-.047c-.043-.041-.086-.084-.127-.126l-.046-.047c-.044-.041-.086-.084-.127-.127l-.044-.045c-.044-.041-.086-.084-.129-.127l-.044-.046c-.043-.041-.086-.084-.127-.126l-.045-.047c-.044-.041-.086-.083-.127-.126l-.045-.046c-.044-.041-.086-.084-.127-.126l-.046-.048c-.044-.041-.086-.083-.127-.126l-.044-.046c-.044-.041-.086-.084-.129-.127l-.044-.045c-.044-.041-.086-.084-.127-.127l-.046-.046c-.043-.041-.086-.084-.127-.126l-.044-.046c-.044-.041-.086-.084-.127-.127l-.046-.047c-.044-.041-.086-.084-.129-.127l-.044-.045c-.044-.041-.086-.084-.128-.127l-.045-.046c-.043-.041-.085-.083-.127-.126l-.046-.047c-.043-.041-.085-.083-.127-.126l-.044-.046c-.044-.04-.086-.083-.128-.126l-.046-.047c-.043-.04-.085-.083-.126-.125l-.046-.047c-.044-.042-.086-.084-.129-.127l-.044-.046c-.043-.04-.086-.084-.127-.126l-.046-.047c-.043-.041-.086-.083-.127-.126l-.044-.046c-.043-.041-.086-.084-.127-.127l-.046-.047c-.043-.04-.085-.083-.127-.125l-.046-.047c-.044-.041-.086-.084-.127-.127l-.046-.047c-.043-.04-.084-.083-.126-.125l-.046-.048c-.044-.041-.086-.083-.127-.126l-.045-.046c-.044-.041-.086-.084-.127-.127l-.045-.046c-.044-.041-.086-.084-.127-.127l-.046-.047a12.562,12.562,0,0,1-3.022-4.634v2.324c0,9.349-3.316,16.227-9.875,20.56a1.673,1.673,0,0,0-.812-1.031l.161-.792-.4.09v-.095l-1.28.3a1.394,1.394,0,0,0-.315.115,3.253,3.253,0,0,0-1.222-.944l-.4-.187-.194.074-.226-.257-.722.374a2.82,2.82,0,0,0-.648.437l-.157.036a2.113,2.113,0,0,0-1.345,1.49l-.064.175v.208l-.742.489a2.815,2.815,0,0,0-1.493,2.223,95.05,95.05,0,0,1-2.613,12.047l-.027.006a19.948,19.948,0,0,0-1.929.606c3.594-12.2,4.072-14.718,4.072-15.508V1469l-.02-.793a1.036,1.036,0,0,0-.145-.529,2.721,2.721,0,0,0-2.579-2.328l-.184-.023-.181.042a3.777,3.777,0,0,0-1.554.7l-.159.1-.362.084a2.346,2.346,0,0,0-.832.353l-.094.022a2.477,2.477,0,0,0-1.589,1.244l-.058.1-.035.11c-2.716,8.606-5.066,16.634-6.982,23.863l-.008.029-.006.029c-2.256,10.976-2.256,11.6-2.256,11.9v.042l.021.933.028,1.283h0l-.022.082,1.69-.393.2-.046.506-.118.21-.476q.267-.6.533-1.22l.035.1.084.229c-.058.818-.086,1.349-.086,1.613v.08a5.657,5.657,0,0,0,.252,1.3l.249.993.143-.033v.079l1.276-.3.2-.047.567-.131.184-.552c3-8.964,3.927-11.866,4.215-12.9.436-.285,1.191-.737,2.495-1.448l-1.313,8.359-.013.08v.628l-.07.506-.208,1.5.267-.062-.07.254,1.7-.394.2-.046.536-.124.1-.269.1.22.023-.005.005.137,1.227-.285.2-.047.805-.187v-.784c.013-.08.072-.375.333-1.31q.329-.9.627-1.755v.175l.179-.042-.031.167,1.551-.36.2-.047.567-.132.184-.553,1.356-4.067a50.93,50.93,0,0,0,3.348-10.755c2.074-8.685,2.685-11.676,2.866-12.816a23.028,23.028,0,0,0,6-5.179,25.24,25.24,0,0,0,5.24-14.255q.25.267.513.514l.022.022c.05.052.1.1.15.149l.025.026c.047.048.1.1.145.145l.023.024c.051.052.1.1.15.15l.027.027c.049.05.1.1.147.146l.026.026c.047.048.1.1.147.147l.026.026c.048.049.1.1.147.146l.025.026c.049.05.1.1.146.145l.022.023c.054.054.1.1.151.15l.025.026c.05.051.1.1.148.147l.023.024c.052.052.1.1.151.15l.025.026c.048.049.1.1.146.145l.025.026c.05.05.1.1.149.149l.022.023c.05.052.1.1.149.149l.027.028c.048.049.1.1.145.145l.025.025c.05.051.1.1.149.149l.022.023c.05.052.1.1.151.151l.026.027c.046.048.1.1.147.146l.025.025c.048.048.1.1.146.146l.027.027c.05.052.1.1.146.146l.024.024c.051.052.1.1.151.15l.024.025c.049.05.1.1.148.147l.025.026c.049.05.1.1.147.146l.025.025c.051.052.1.1.149.148l.025.025c.051.052.1.1.148.147l.024.025c.051.052.1.1.151.15l.024.025c.048.049.1.1.147.146l.024.025c.05.052.1.1.149.149l.025.025c.05.051.1.1.148.147l.024.025c.052.052.1.1.149.149l.023.024c.052.052.1.1.151.151l.024.024c.048.05.1.1.147.146l.024.025c.051.052.1.1.15.149l.025.026c.05.05.1.1.147.146l.025.025c.049.05.1.1.149.149l.025.026c.048.049.1.1.149.147l.023.023c.05.051.1.1.149.148l.025.027c.049.05.1.1.148.147l.025.025c.049.05.1.1.148.147l.023.023c.052.052.1.1.151.15l.025.025c.048.05.1.1.148.147l.023.023c.05.052.1.1.15.149l.025.025c.05.051.1.1.148.147l.025.025c.049.051.1.1.148.147l.023.023c.051.052.1.1.151.151l.025.025c.05.051.1.1.149.148l.021.021c.052.053.1.1.152.151l.026.027c.048.049.1.1.146.145l.021.021c.052.054.1.1.153.153l.023.023c.05.051.1.1.15.149l.025.025c.054.055.107.109.163.161a13.464,13.464,0,0,0,7.422,3.6,25.184,25.184,0,0,0-1.009,2.677,103.091,103.091,0,0,0-2.632,10.52l-.076.382.092.16-.222,1.268-.028.157-.06.091.019.148-.091.522-.107.184.059.09-.063.361.245-.057-.07,1,0,.066,0,.065c.286,5.1,2.579,6.171,4.452,6.171a5.8,5.8,0,0,0,1.311-.161l.108-.026a10.422,10.422,0,0,0,4.622-3.067l.231.665.286-.066a3.712,3.712,0,0,0,.871,2.73l.154.14.052.355,1.1-.254.185-.042.756-.174.049-.774c.014-.219.04-.446.078-.679l.068-.016.018,0,.179-.041.186-.043.6-.138.167-.593a19.266,19.266,0,0,1,.951-2.939l.026-.045.021-.048a33.147,33.147,0,0,0,1.742-6.72l.011-.058,0-.059c.157-2.321,1.4-7.394,3.692-15.07A24.051,24.051,0,0,0,237.209,1454.575ZM6.9,1520.119a4.022,4.022,0,0,0-.725.567q.041-.19.644-.628l.081-.019Zm30.821,4.826a38.494,38.494,0,0,1-5.518,4.775q-1.651,1-9.144,4.4v.1l-.1.023a12.4,12.4,0,0,1-2.815.3,23.646,23.646,0,0,1-6.227-.967,14.081,14.081,0,0,1-3.726-3.142q-1.572-.611-1.571-3.762a4.226,4.226,0,0,1-.5-2.135v-.62q0-3.947,3.324-8.092l.1-.023v-.1l-.1.023a19.4,19.4,0,0,0-3.746,2.926c0-.108-.044-.162-.133-.162a.3.3,0,0,0-.068.009q0,.16-.946,1.039l-.1-.176q2.356-2.6,4.572-5.172a1.012,1.012,0,0,1,.423-.318l-.121-.171a10.514,10.514,0,0,1,2.3-2.171v-.12l-.2.046-.423.318-.1-.2q6.4-4.362,9.868-5.169,0-.138,1.349-.513v-.12q-.544,0-1,0a17.952,17.952,0,0,0-2.42.084v-.2l.1-.023,7.472-.3q6.827.166,8.217,1.28,1.248,1.263,1.249,1.861a.716.716,0,0,0,.1.4q-.423.258-.423.418a.531.531,0,0,1,.121.271l-.423.516-.2.048v-.219l-.121.027v.22q.12,1.249.121,1.408a3.617,3.617,0,0,1-1.048,1.48l-.624.145a1.612,1.612,0,0,1-.364.045,1.069,1.069,0,0,1-.562-.149.947.947,0,0,1-.423.218c0-.107-.175-.172-.524-.2a.116.116,0,0,0-.1.123q-.244,0-.486-.005a17.989,17.989,0,0,0-4.087.451l-.1.023-.725.27v-.1l-.222.153-.1.023a32.125,32.125,0,0,0-9.868,4.77,11.154,11.154,0,0,0-1.773,4.939v.52q.234,3.617.8,3.616a.2.2,0,0,0,.043,0,10.674,10.674,0,0,0,1.583.116,13.171,13.171,0,0,0,2.988-.362q.322-.076,3.947-1.737,3.544-.824,14.117-7.812a13.952,13.952,0,0,1,1.773-1.349l.1.2q-2.839,2.1-3,2.134l.1.177q-.524.4-.524.541l.2-.048,3.545-2.161v.1a28.269,28.269,0,0,1-3.323,2.311l-.222.469.1-.023q1.329-.909,1.993-1.281v.1l-2.819,2.191.221-.05a26.817,26.817,0,0,0,3.726-2.4v.1a7.588,7.588,0,0,1-2.075,1.619v.1l.1-.023a18.065,18.065,0,0,1,2.819-1.574l-.745.793.121-.029a1.456,1.456,0,0,1,.725-.388Q42.186,1520.056,37.716,1524.945Zm6.77-2.847-.1.025-.067-.385.017-.239.1-.023v.033a.666.666,0,0,0,.152.333C44.53,1521.854,44.5,1521.941,44.486,1522.1Zm.472,1.16c-.112.027-.175-.014-.185-.123l.017-.088.186-.043Zm.709.388c-.383-.021-.591-.108-.624-.256v-.084l.641.169Zm8.4-23.65v-6.452l0,0a689.845,689.845,0,0,1,.345.345,1.493,1.493,0,0,0,.172.172,1.516,1.516,0,0,0,.173.174,1.565,1.565,0,0,0,.173.172,1.434,1.434,0,0,0,.174.174,21905.163,21905.163,0,0,1,.344.344,3601.908,3601.908,0,0,1,.346.346,1.541,1.541,0,0,0,.174.174,57.94,57.94,0,0,0,.345.345,1.519,1.519,0,0,0,.173.173,123.483,123.483,0,0,1,.346.346,62.713,62.713,0,0,1,.345.345,1.625,1.625,0,0,0,.173.172,1.571,1.571,0,0,0,.173.173,689.845,689.845,0,0,1,.345.345,1.576,1.576,0,0,0,.173.173,1.525,1.525,0,0,0,.173.173,1.575,1.575,0,0,0,.173.173c.029.034.063.063.094.094-.061.121-.128.265-.2.441a78.094,78.094,0,0,0-2.754,9.311l-.433,1.678.082-.02c-.086.328-.187.72-.307,1.187l-.427,1.667.132-.031c-.078.538-.159,1.206-.254,2.036l0,.016a17.046,17.046,0,0,1-1.96,2.062,14.042,14.042,0,0,1-.1-1.834c0-.362.005-.753.015-1.17l.082-1.026c.044-.654.374-2.706,1.688-8.821l.374-.084v-.833a1.184,1.184,0,0,0-.062-.383l.009-.165,0-.038.019-.338-.224-.3q-.051-.069-.1-.129l.079-.964-.09,0A1.5,1.5,0,0,0,54.062,1500Zm-3.491,1.458a.765.765,0,0,0,.191.028.354.354,0,0,0,.079-.008l.49-.348a.112.112,0,0,0,.121.115.3.3,0,0,0,.065-.008,1.145,1.145,0,0,1,.286-.133q0,.191.934.192.124,0,.265,0l-.013.168-.02.241a.172.172,0,0,1,.037,0c.093,0,.2.08.317.24l-.017.3-.1.19a.325.325,0,0,1,.048,0c.08,0,.121.033.121.1v.016c-.091.021-.192.128-.3.321l-.017.238q-1.637,7.6-1.739,9.1l-.084,1.054c-.011.437-.017.847-.017,1.224,0,.034,0,.062,0,.1.009,2.1.277,3.26.809,3.476q3.274-3.035,3.308-3.544l.017-.155q.388-3.415.608-3.468v-.016q0-.052-.05-.052a.174.174,0,0,0-.035,0q.674-2.629.759-2.784c0-.042-.02-.065-.061-.065a.184.184,0,0,0-.04.005q2.211-8.57,3.022-9.793l.2-.047a1.022,1.022,0,0,1,.078.076l.142-.1.222.085.1-.024.082-.019a.531.531,0,0,1,.172-.373.518.518,0,0,1,.234-.122.737.737,0,0,1,.169-.019,1.355,1.355,0,0,1,.69.236,2.884,2.884,0,0,1,.238.163.913.913,0,0,1,.052-.23,3.494,3.494,0,0,1,.589-.956l.1-.023.354.167.287-.067c.033-.275.135-.431.3-.47l.2-.048a.137.137,0,0,1,.029,0q.129,0,.326.238l.186-.127a.279.279,0,0,1,.062-.007c.188,0,.371.2.549.6a5.448,5.448,0,0,1,.232.632c-.1.327-.192.642-.287.961q-3.466,11.616-3.712,15.229a32.585,32.585,0,0,1-1.671,6.488,21,21,0,0,0-1.047,3.168l-.185.044.05-.731-.1.024-.119.429-.033.325-.186.042-.236-.662-.084.019a9.589,9.589,0,0,0-.439,2.24l-.185.043a4.664,4.664,0,0,1-.051-.657,2.329,2.329,0,0,1,.017-.287l-.1.023c0,.111-.033.174-.1.19a.045.045,0,0,0,.05.052.163.163,0,0,0,.034,0l-.118.429a.427.427,0,0,1,.084.214l-.186.042a3.562,3.562,0,0,1-.54-2.43q0-.6.05-1.333l-.1.023-.017.323-.186.044.034-.627-.084.019-.152.821-.186.044a5.432,5.432,0,0,1-.254-1.678q-3.274,3.769-5.519,4.292l-.1.023a4.769,4.769,0,0,1-1.076.133q-3.123,0-3.414-5.188l.085-1.206v-.05a.435.435,0,0,0-.068-.251l.1-.174-.068-.386a.57.57,0,0,0,.118-.261c0-.045-.019-.068-.056-.068a.111.111,0,0,0-.028,0l.286-1.638-.084-.147a101.854,101.854,0,0,1,2.6-10.4c.3-.919.569-1.638.8-2.181.113-.269.22-.5.316-.678.169-.311.309-.482.421-.508l.186-.042a.17.17,0,0,1,.034,0c.034,0,.05.018.05.052A5.572,5.572,0,0,0,50.571,1501.454Zm-13.4,3.7,9.064-2.11c.012-.007.029-.015.041-.023a.348.348,0,0,0,.044,0l.372-.086.343-.244c.011.1.074.133.186.107a1.127,1.127,0,0,1,.286-.133c0,.026.028.047.054.067l.152-.035-.036.087c-.225.544-.477,1.239-.777,2.144a103.546,103.546,0,0,0-2.631,10.521l-.077.384.092.159-.222,1.266-.027.158-.061.092.019.149-.006.034-1.394.326L42.6,1518v-2.282l-.621.378-.467-.908-.98.7a19.386,19.386,0,0,0-1.873,1.415c-6.839,4.515-11.431,7.065-13.651,7.582l-.1.024-.1.044c-3.016,1.384-3.647,1.632-3.776,1.676a12.2,12.2,0,0,1-2.726.328,9.818,9.818,0,0,1-1.063-.057,15.722,15.722,0,0,1-.327-2.663v-.486a9.548,9.548,0,0,1,1.517-4.21,33.9,33.9,0,0,1,8.365-4.229v.152l1.4-.521.663-.246.036-.009a17.022,17.022,0,0,1,3.851-.423h.069v.35l1.278-.3c.032-.007.063-.015.094-.025l.086,0v-.028l.108-.039a2.227,2.227,0,0,0,.461.046,2.638,2.638,0,0,0,.6-.072l.624-.145L36.3,1514l.181-.139a4.647,4.647,0,0,0,1.367-1.9l.082-.2v-.212c0-.078-.005-.212-.058-.8l.024-.029.423-.516.236-.287v-.293l.716-.436-.516-.8a4.233,4.233,0,0,0-1.548-2.524l-.042-.043-.047-.038a3.417,3.417,0,0,0-.776-.458Zm35.59-54.587,0,.035-2.238,17.356-6.257-14.94,14.36-40.974Zm106.549,32.992a49.647,49.647,0,0,1-3.3,10.6l-1.369,4.108-.2.047.262-1.4v-.08l-.1.025-.382,1.345-.2.046c0-.053.033-.088.1-.1a2.757,2.757,0,0,1-.242-.961l.1-.024-.1-.135.6-5.665v-.14l-.121.029a87.3,87.3,0,0,1-3,9.572,11.148,11.148,0,0,0-.383,1.585l-.2.047-.02-.533.08-.5v-.08l-.1.023a4.347,4.347,0,0,0-.182,1l-.2.047a3.153,3.153,0,0,1-.342-1.2l-.02-.295a10.3,10.3,0,0,1,.08-1.136v-.079l-.1.024-1.188,3.048-.2.047.483-1.768v-.08l-.121.029q-.5,1.614-.685,1.655l-.1.023.08-.577v-.619l1.631-10.39-.1.023a47.272,47.272,0,0,0-4.653,2.657q0,.379-4.29,13.2l-.2.047v-.08c0-.119.06-.526.181-1.218v-.08l-.1.023q-.261,1.317-.5,1.373a7.494,7.494,0,0,1-.221-1.045v-.08q0-.459.14-2.326l-.2.127-.342-.938q.08-1.555.342-3.63v-.08l-.121.028q-1.169,2.945-2.377,5.679l-.2.046.384-1.425v-.08l-.1.023a9.791,9.791,0,0,0-.484,1.449l-.221.052-.02-.933v-.02q0-.818,2.235-11.688,2.88-10.859,6.969-23.816a1.461,1.461,0,0,1,.926-.754,1.3,1.3,0,0,0,.2.019.438.438,0,0,0,.1-.01c.067-.175.275-.3.624-.384,0,.093.026.139.077.139a.1.1,0,0,0,.024,0l.423-.258a.411.411,0,0,0,.126.016,1.868,1.868,0,0,0,.4-.057.37.37,0,0,1-.12-.212,2.781,2.781,0,0,1,1.147-.506,1.717,1.717,0,0,1,1.712,1.814.236.236,0,0,1,.048-.006c.035,0,.052.015.052.043l.021.792v.02q0,1.425-3.493,13.384c-.348,1.191-.72,2.456-1.12,3.8l.1-.024.021-.008a35.341,35.341,0,0,1,3.624-1.24l.624-.145a96.252,96.252,0,0,0,2.82-12.84v-.021q0-.738,1.027-1.415c0,.079.1.136.3.167a1.812,1.812,0,0,0,.906-1.506v-.041q.283-.762.6-.838l.524-.121c.027-.127.2-.275.524-.441a.339.339,0,0,1,.1.216l.524-.2a1.811,1.811,0,0,1,1.188,1.676q.14-.032.3-.528l.524-.043a.232.232,0,0,1,.2-.206.054.054,0,0,0,.061.062.2.2,0,0,0,.04-.005l-.081.4v.079l.1-.022.524-.2q.422.3.423.382c0,.054-.034.087-.1.1.047.132.084.24.115.337a2.038,2.038,0,0,1,.107.388v.021a10.6,10.6,0,0,1-.214,1.418Q181.439,1474.631,179.308,1483.554Zm44.958-7.589a32.6,32.6,0,0,1-1.671,6.489,20.984,20.984,0,0,0-1.047,3.168l-.185.043.05-.731-.1.023-.118.43-.034.324-.185.044-.237-.664-.084.019a9.568,9.568,0,0,0-.439,2.242l-.186.042a4.558,4.558,0,0,1-.051-.656,2.5,2.5,0,0,1,.017-.287l-.1.023c0,.111-.033.175-.1.19a.046.046,0,0,0,.051.052.133.133,0,0,0,.034,0l-.118.429a.431.431,0,0,1,.084.215l-.185.042q-.541-.493-.54-2.43,0-.6.05-1.333l-.1.025-.017.322-.185.042.033-.626-.084.02-.152.821-.186.043a5.43,5.43,0,0,1-.253-1.679q-3.275,3.77-5.52,4.292l-.1.025a4.757,4.757,0,0,1-1.075.134q-3.123,0-3.414-5.189l.084-1.206v-.05a.442.442,0,0,0-.068-.252l.1-.174-.067-.386a.577.577,0,0,0,.117-.261c0-.045-.019-.068-.055-.068a.121.121,0,0,0-.029,0l.287-1.638-.084-.147a101.445,101.445,0,0,1,2.6-10.4,19.686,19.686,0,0,1,1.12-2.866c.166-.3.3-.474.415-.5l.185-.044a.164.164,0,0,1,.034,0,.045.045,0,0,1,.051.052,5.6,5.6,0,0,0,.877-.438.77.77,0,0,0,.191.029.323.323,0,0,0,.079-.009l.49-.347a.113.113,0,0,0,.122.116.285.285,0,0,0,.064-.008,1.09,1.09,0,0,1,.287-.134q0,.191.933.191c.083,0,.171,0,.265,0l-.035.409a.171.171,0,0,1,.036,0c.094,0,.2.08.319.24l-.017.305-.094.178-.007.012a.354.354,0,0,1,.05,0c.079,0,.118.033.118.1v.017c-.09.021-.191.128-.3.322l-.017.238q-1.638,7.6-1.738,9.095l-.085,1.055q-.016.657-.017,1.224,0,3.243.81,3.573,3.274-3.034,3.308-3.544l.017-.155q.388-3.415.607-3.468v-.016c0-.035-.017-.052-.05-.052a.177.177,0,0,0-.034,0q.675-2.629.76-2.784a.057.057,0,0,0-.063-.065.178.178,0,0,0-.038.005q2.211-8.569,3.021-9.794l.372-.086.269.1.186-.042a.5.5,0,0,1,.4-.5.76.76,0,0,1,.17-.019,1.623,1.623,0,0,1,.928.4,2.553,2.553,0,0,1,.641-1.186l.1-.024.354.167.287-.066c.034-.276.135-.432.3-.472l.2-.046a.107.107,0,0,1,.03,0q.128,0,.325.237l.186-.126a.291.291,0,0,1,.062-.007c.254,0,.5.368.737,1.1.015.045.029.086.044.134-.185.615-.362,1.208-.534,1.791Q224.5,1472.486,224.267,1475.965Z" fill="#fff"/>
    <path id="Path_778" data-name="Path 778" d="M120.749,1566.612l.034-.125a20.591,20.591,0,0,0-3.763-.294q-1,0-2.128.06l-.185.028v.033q.828-.05.92-.05h.009l-.017.088h0q-.07,0-1.3.252l-1.2.162-.169.056v.2a2.273,2.273,0,0,1-.017.3l-.129.43-.866,2.876c-.045.01-.068.021-.068.032l.085,0c.216-.068.411-.131.615-.2a23.394,23.394,0,0,0,5.021-1.968Q120.681,1567.046,120.749,1566.612Zm-3.7.992-.087.066a3.591,3.591,0,0,1-.657.35c-.505.228-1.361.565-2.811,1.052l.389-1.293.021-.068.551-.074.036,0,.035-.007c.722-.149,1.016-.205,1.132-.226l.8.051.041-.21c.175,0,.346,0,.514,0q.4,0,.786.01c-.2.1-.418.2-.657.314Z" transform="translate(-35.892 -70.749)" fill="#fff"/>
    <path id="Path_779" data-name="Path 779" d="M159.281,1555.922l-.186.026v.035c.55-.035.857-.05.919-.05h.009l-.017.088h0q-.076,0-1.3.252l-1.2.161-.169.057v.2a2.263,2.263,0,0,1-.017.3l-.129.43-.865,2.876c-.046.01-.068.021-.068.033l.085,0,.612-.2a23.439,23.439,0,0,0,5.025-1.97q3.09-1.453,3.156-1.887l.034-.125a20.657,20.657,0,0,0-3.763-.293Q160.41,1555.862,159.281,1555.922Zm2.257,1.3-.1.047-.087.066a3.673,3.673,0,0,1-.657.35c-.505.227-1.36.564-2.811,1.051l.39-1.293.02-.068.551-.074.036,0,.035-.007c.655-.135.956-.194,1.094-.219l.827.118.056-.285c.175,0,.346,0,.514,0q.4,0,.785.01C161.994,1557.009,161.776,1557.114,161.538,1557.226Z" transform="translate(-50.822 -67.275)" fill="#fff"/>
    <path id="Path_780" data-name="Path 780" d="M399.754,1491.983l-1.873.437-.033-.259-1.121.261c-2.006.467-4.577,1-7.641,1.6l-.03.005-.03.008c-1.93.492-4.322,1.194-7.115,2.087a5.522,5.522,0,0,0-1.079-.109H380.7v-.042l-.225.052a5.177,5.177,0,0,0-.728.1,1.462,1.462,0,0,0-.41.164,2.5,2.5,0,0,0-1.329.832,6.249,6.249,0,0,0-3.317,1.753l-.053.064-.468.11.12.932c0,.016,0,.033.007.048a1.807,1.807,0,0,0-.168.739v.2l.036.133a1.168,1.168,0,0,0,.574.731,1,1,0,0,0,.242.265c-1.463,3.527-2.814,7.1-4.021,10.645l-.022.065-.013.067c-.632,3.162-1.307,6.067-2.01,8.644a4.16,4.16,0,0,0-1.3,1.266c-.79.8-1.1,1.332-1.1,1.877v.134l.009.067.017.129.06.461.384.263a1.708,1.708,0,0,0,.656.282,2.976,2.976,0,0,0,1.164.334,2.466,2.466,0,0,0,.739,1.028l.374.368.009.039.025-.005,0,0,.559-.132.22-.052.007,0,.208-.048.118-.027.058-.015.292-.069.009-.06a1.46,1.46,0,0,0,.579-.65c.064-.02.149-.044.26-.07l.045-.01.044-.014c5.85-1.915,7.484-2.717,8.132-3.146a54.263,54.263,0,0,0,4.977-2.322c2.824-1.092,4.689-1.859,5.7-2.341l.68-.325-.018-.136h0l-.024-.157-.059-.453-.017-.13-.147-1.142-.04.009-.03-.195-1.058.2q-.407.077-.826.161l-.025-.191-.221.03-.169-.629-.98.228-1,.232c-.678.158-2.93.645-7.087,1.532q-.655.152-1.353.347a37.245,37.245,0,0,0,1.615-5.857,21.108,21.108,0,0,0,5.243-2.87l.6-.417,0-.005c.6-.255,1.166-.488,1.7-.7l.147-.058.123-.1a14.9,14.9,0,0,1,2.906-1.492l.717-.312-.1-.775-.017-.13-.147-1.14-.244.056-.063-.236-.98.226-.046.011c-4.495.524-5.411.676-5.709.745l-.56.131c-.38.088-.713.172-1,.253l-.009-.032-.845.265c.194-.636.465-1.507.841-2.7l.035-.109,1.1-.622-1.564-.784.447-.1a.542.542,0,0,1,.119-.017l.308.028.279-.145.1-.053c.948-.222,2.1-.507,3.418-.847l.044-.011.044-.015a95.525,95.525,0,0,0,9.056-3.492l.729-.391,0-.008.012,0-.275-1.037-.034-.125-.041-.156a3.87,3.87,0,0,0,1.139-.776l.24-.071-.026-.2Zm-4.918,2.917a19.665,19.665,0,0,1-2.751,1.293l.017.062,3.679-.673.034.126-.895.208c-.124.039-.186.094-.186.16v.016l1.1-.256.034.126q-1.485.8-8.911,3.428-2.077.534-3.527.872l-.22.117a.953.953,0,0,0-.1,0,1.621,1.621,0,0,0-.356.044l-1,.233a3.892,3.892,0,0,0-.658,1.255,2.86,2.86,0,0,0,.793.469,1.352,1.352,0,0,1-.321.14l.017.047.388.177q-1.367,4.328-1.366,4.563v.016l1.637-.514.017.063a10.726,10.726,0,0,1,1.958-.589l.557-.13q.641-.147,5.654-.731l.1-.023.034.126c-.056.013-.276.081-.658.2l.017.063.776-.18.017.13a16.329,16.329,0,0,0-3.139,1.633q-1.265.494-2.767,1.162l.017.062.219-.051.017.063a17.76,17.76,0,0,1-5.552,2.9,34.744,34.744,0,0,1-2.448,8.189l.017.113q1.755-.59,3.291-.949,6.026-1.286,7.105-1.536l1-.232.034.125q-.151.035-1.1.322l.017.063.877-.2.017.062v.017c0,.067-.1.124-.3.171v.066l.692-.094.017.13-.119.027q-.134.032-1.08.318v.066q1.637-.381,3.122-.66l.017.113c-.63.193-.99.3-1.081.319V1518l1.114-.26.017.13q-1.5.718-5.755,2.359a50.727,50.727,0,0,1-4.979,2.329q-1.233.872-7.95,3.071-.929.215-.928.516v.033c-.068.183-.158.287-.27.313l-.118.027-.067-.3-.1.023-.05.329-.22.052a1.809,1.809,0,0,1-.473-.591l-.1-.429-.254-.141-.017-.063.084-.153a2.161,2.161,0,0,1-.488.058,1.972,1.972,0,0,1-1.082-.328.26.26,0,0,1-.06.007.573.573,0,0,1-.311-.121l-.017-.129v-.067q0-.352.878-1.224a3.168,3.168,0,0,1,1.367-1.22q1.131-4.074,2.143-9.139,2.009-5.9,4.49-11.758l-.1.025c-.083,0-.159,0-.228,0q-.471,0-.5-.1l.051-.329a1.19,1.19,0,0,1-.261.036q-.2,0-.229-.122v-.067a1.37,1.37,0,0,1,.3-.705.3.3,0,0,1-.152-.215l.321-.076-.135-.1-.017-.129a5.832,5.832,0,0,1,3.156-1.5,1.441,1.441,0,0,1,1.013-.754c0,.032.02.048.059.048a.257.257,0,0,0,.058-.008c0-.09.062-.148.186-.178a4.142,4.142,0,0,1,.865-.09,4.534,4.534,0,0,1,1.126.145q4.338-1.393,7.325-2.156,4.641-.9,7.679-1.6l.017.13-1.08.319v.066l1.232-.287A8.014,8.014,0,0,1,394.837,1494.9Z" transform="translate(-121.544 -45.789)" fill="#fff"/>
    <path id="Path_781" data-name="Path 781" d="M317.512,1548.7c.034.149.242.235.625.256l.017-.171-.642-.169Z" transform="translate(-105.06 -64.837)" fill="#fff"/>
    <path id="Path_782" data-name="Path 782" d="M359.725,1519.894v-.129l.254-.2v-.51a1.716,1.716,0,0,0-.03-.318,1.1,1.1,0,0,0,.115-.487v-.083a1.246,1.246,0,0,0-.043-.327l.034-.082-.141-.382a1.725,1.725,0,0,0-.19-.378c-.415-1.179-2.219-1.385-2.862-1.459-1.95-.279-3.529-.46-4.768-.546.1-.082.191-.163.288-.244l.033-.028.031-.031a62.442,62.442,0,0,0,5.309-5.65l1.425-1.96c1.722-1.575,2.752-2.56,3.14-3l.257-.294v-2.548l-1.475.677c-1.738.8-3.393,1.5-4.924,2.085a18.415,18.415,0,0,0-1.932.274l-.254.059c-1.086.253-3.278,1.2-9.752,6.438-4.093,3.183-6.09,6.1-6.09,8.921a2.247,2.247,0,0,0,1.515,2.2l.3.114.312-.076.084-.02.277-.067.01,0a2.559,2.559,0,0,0,1.75.543,8.554,8.554,0,0,0,1.9-.26c.727-.169,1.5-.377,2.291-.617a17.123,17.123,0,0,1,2.178-.209l-.141.188c-3.211,3.517-5.186,5.763-6.033,6.861a43.636,43.636,0,0,0-4.12,4.768l-1.344,2.128,1.193-.271c-.938,1.184-.938,1.413-.938,1.723v1.4l.254-.058v.173l1.278-.3c.315-.074.64-.149,4.519-3.355a35.223,35.223,0,0,0,3.914-3.124,72.776,72.776,0,0,0,7.159-5.747,32.679,32.679,0,0,0,5.026-5.535Zm-.7-1.641c0,.045-.085.155-.253.327a.849.849,0,0,1,.169.478l-.337.262.084.165v.085a31.581,31.581,0,0,1-4.877,5.362,71.618,71.618,0,0,1-7.14,5.722,32.687,32.687,0,0,1-3.865,3.089,32.2,32.2,0,0,1-4.117,3.164q0-.184.843-.814v-.085l-.084.02a7.641,7.641,0,0,0-.928.751l-.085.02v-.1q0-.367,3.106-3.881l-.085.019a11.449,11.449,0,0,1-1.924,1.15q.017-.221.928-.834v-.084l-.084.019a3.345,3.345,0,0,1-.928.568l-.084.019a44.23,44.23,0,0,1,4.034-4.648q1.214-1.589,6.042-6.873l1.435-1.921v-.084l-.085.019a32.947,32.947,0,0,0-4.456.337q-1.181.358-2.261.61a7.65,7.65,0,0,1-1.669.234q-.926,0-1.2-.452a.2.2,0,0,1-.04,0,1.62,1.62,0,0,1-.7-.35.2.2,0,0,1-.169.207.5.5,0,0,1-.169-.312l-.084.02v.085a.682.682,0,0,1,.084.347l-.084.02a1.205,1.205,0,0,1-.844-1.224q0-3.675,5.7-8.112,7.038-5.7,9.333-6.234l.254-.059a19.071,19.071,0,0,1,1.941-.268q2.379-.9,5.113-2.16v.184l-.844.449v.1l.253-.059a1.64,1.64,0,0,1,.591-.322v.184q-.607.693-3.7,3.5l-1.1,1.224a.122.122,0,0,1,.029,0c.037,0,.056.022.056.068a2.261,2.261,0,0,1-.658.421v.084l.084-.021a4.929,4.929,0,0,1,.658-.237,62.848,62.848,0,0,1-5.2,5.523,29.724,29.724,0,0,0-2.278,2.116,5.812,5.812,0,0,1,1.184-.093,48.47,48.47,0,0,1,6.124.6q2.025.231,2.025.949h.012c.052,0,.1.071.157.214a.908.908,0,0,0-.084.286h.013c.1,0,.157.048.157.145Z" transform="translate(-111.66 -48.902)" fill="#fff"/>
    <path id="Path_783" data-name="Path 783" d="M317.105,1548.291c.009.088.051.131.126.131a.249.249,0,0,0,.06-.007l.017-.254-.185.042Z" transform="translate(-104.923 -64.684)" fill="#fff"/>
    <path id="Path_784" data-name="Path 784" d="M378.812,1534.019v.033a1.64,1.64,0,0,1-.321.694l.337-.079c.135-.031.2-.087.2-.164v-.017l-.119-.49Z" transform="translate(-125.57 -59.92)" fill="#fff"/>
    <path id="Path_785" data-name="Path 785" d="M294.7,1532.922a2.778,2.778,0,0,0-1.907-1.862,8.305,8.305,0,0,0-1.317-.117,4.325,4.325,0,0,0-.979.1,9.7,9.7,0,0,0-2.819,1.486c-.561.383-1.175.83-1.856,1.357a2.5,2.5,0,0,0-1.029,2.244,54.008,54.008,0,0,0-1.35,7.25l-.169.039v-.067c-.044-.345-.068-.563-.068-.652l-.084.019v.736c0,.145.186.423.557.84q0,.6,1.739,1.3c.159-.014.305-.034.456-.053a9.291,9.291,0,0,0,.978-.163l.067-.017a11.548,11.548,0,0,0,6.195-4,8.712,8.712,0,0,0,1.586-5.465v-.853a.547.547,0,0,1,.084-.321l-.084-.348Zm-1.041,2.122v.853a7.767,7.767,0,0,1-1.355,4.81,11.079,11.079,0,0,1-4.511,3.3,9.122,9.122,0,0,1-1.11.345l-.075.018a8.72,8.72,0,0,1-1.032.167,4.018,4.018,0,0,1-.857-.459v-.175l-.236-.265v-.254a49.332,49.332,0,0,1,1.325-7.023l.025-.112v-.115c0-.9.324-1.216.568-1.38l.03-.02.028-.021a29.957,29.957,0,0,1,2.635-1.86,6.272,6.272,0,0,1,1.639-.793,3.337,3.337,0,0,1,.743-.073,7.294,7.294,0,0,1,1.116.1c.2.048.667.2,1.066,1.057v1.362l.03.121.01.042A1.775,1.775,0,0,0,293.655,1535.044Z" transform="translate(-93.491 -58.893)" fill="#fff"/>
    <path id="Path_786" data-name="Path 786" d="M316.536,1545.856l-.1.024-.017.238.067.384.1-.023c.011-.159.044-.244.1-.257a.67.67,0,0,1-.152-.334Z" transform="translate(-104.692 -63.909)" fill="#fff"/>
    <path id="Path_787" data-name="Path 787" d="M276.735,1555.409l.085-.019v-.134l-.085.019Z" transform="translate(-91.344 -67.07)" fill="#fff"/>
    <path id="Path_788" data-name="Path 788" d="M297.537,1532.956l-.05-.156-.456-1.409c.1-1.011.151-1.877.152-2.578l.354-.083v-1.125l.719-1.315-.125.029.119-.219-1.383.319a4.835,4.835,0,0,0-1.152-2.116,7.294,7.294,0,0,0-5.528-4.839,4.4,4.4,0,0,0-1,.117l-.962.224c-.539.126-1.685.53-5.412,2.57a15.453,15.453,0,0,0-6.351,6.47l-.025.045-.021.047c-1.793,4.149-2.7,7.665-2.7,10.447v.2c0,2.864.321,4.52,1.04,5.368l.175.207v.462l1.274-.293.023-.005a7.358,7.358,0,0,0,5.668,2.745,8.435,8.435,0,0,0,1.906-.228c.428-.1.865-.224,1.308-.372l1.224-.285c.561-.131,1.612-.6,4.768-3.019l.269.044.379-.4,2.009-2.139.062-.066.05-.076c2.465-3.77,3.663-6.518,3.663-8.4Zm-4.534,8-2.008,2.138-.169-.027q-3.7,2.866-4.725,3.105v-.133l.438-.169v-.067l-.084.02a15.477,15.477,0,0,1-2.886,1.006,7.36,7.36,0,0,1-1.67.2q-3.307,0-5.654-3.376l-.085.019v.6l-.185.042a6.08,6.08,0,0,0-.169-.9l-.084.021v.8l-.169.038q-.793-.936-.793-4.7v-.2q0-3.978,2.615-10.035a14.388,14.388,0,0,1,5.941-6.062,30.06,30.06,0,0,1,5.148-2.469l.962-.224a3.363,3.363,0,0,1,.762-.09q1.877,0,3.509,2.238a4.985,4.985,0,0,1,1.147,2.207q.692.373,1.3,2.705l.084-.019-.084.153c0,.034.016.051.049.051a.142.142,0,0,0,.035,0l-.084.153v.8a27.061,27.061,0,0,1-.169,2.713l.523,1.617Q296.5,1535.61,293,1540.952Zm3.493-13.047-.169.04v-.134l.169-.04Z" transform="translate(-90.33 -55.032)" fill="#fff"/>
    <path id="Path_789" data-name="Path 789" d="M287.543,1369.533v69.457c0,10.383,4.285,15.647,12.735,15.647a28.845,28.845,0,0,0,6.448-.827c12.613-2.966,19.008-10.867,19.008-23.487v-69.679l-15.324,3.566v69.457c0,3.026-1.276,4.794-3.9,5.4a5.33,5.33,0,0,1-1.193.152c-1.051,0-2.448-.37-2.448-3.578v-69.679Zm17.773,71.873a7.471,7.471,0,0,0,1.688-.21c3.6-.838,5.588-3.511,5.588-7.528v-67.726l10.963-2.552v66.933c0,11.634-5.668,18.622-17.327,21.363a26.643,26.643,0,0,1-5.948.769c-4.531,0-10.555-1.4-10.555-13.466v-67.726l10.963-2.551v66.932C300.687,1440.844,303.924,1441.406,305.316,1441.406Z" transform="translate(-94.98 -1.613)" fill="#fff"/>
    <path id="Path_790" data-name="Path 790" d="M215.182,1449.584v6.248c0,10.369,4.3,15.627,12.79,15.627a29.029,29.029,0,0,0,6.437-.816c12.585-2.929,18.966-10.828,18.966-23.477v-69.68l-15.326,3.567v69.458c0,3.026-1.262,4.79-3.858,5.394a5.463,5.463,0,0,1-1.216.155c-1.06,0-2.469-.37-2.469-3.571v-6.471Zm17.794,8.657a7.614,7.614,0,0,0,1.708-.212c3.578-.832,5.547-3.5,5.547-7.519v-67.726l10.964-2.552v66.933c0,11.661-5.652,18.647-17.28,21.352a26.815,26.815,0,0,1-5.942.76c-4.554,0-10.609-1.394-10.609-13.446v-4.516l10.964-2.552v3.724C228.326,1457.681,231.577,1458.241,232.976,1458.241Z" transform="translate(-70.641 -7.278)" fill="#fff"/>
    <path id="Path_791" data-name="Path 791" d="M37.956,1427.173v87.361l15.325-3.566v-31.981l10.3,29.583,16.33-3.8-16.629-39.7,16.709-47.675-16.478,3.835-10.232,34.032v-31.651Zm27.281-4.111,11.382-2.649-15.673,44.721,15.955,38.1L65,1506l-13.41-38.116-.272.893-.213,10.208v30.249l-10.964,2.551V1428.9l10.964-2.551.066,42.91.147-.485.033-1.573.239.68Z" transform="translate(-11.031 -20.699)" fill="#fff"/>
    <path id="Path_792" data-name="Path 792" d="M198.131,1393.042l-15.325,3.566v87.362l15.325-3.566Zm-2.181,85.63-10.964,2.552v-82.883l10.964-2.551Z" transform="translate(-59.751 -12.51)" fill="#fff"/>
    <path id="Path_793" data-name="Path 793" d="M122.4,1478.061l9.736-2.265,2.373,17.4,15.433-3.592-4.16-30.47-8.8-53.876-19.452,4.529-8.809,57.9-4.187,32.486,15.448-3.6Zm-15.3,19.271,3.786-29.371,8.58-56.389,15.742-3.664,8.422,51.575,3.882,28.443-11.167,2.6-2.373-17.4-13.54,3.15-2.416,18.51Z" transform="translate(-33.424 -16.618)" fill="#fff"/>
    <path id="Path_794" data-name="Path 794" d="M135.912,1439.738l-5.394,37.517,10.8-2.514Zm.072,12.005,2.9,21.323-5.81,1.352Z" transform="translate(-42.164 -28.216)" fill="#fff"/>
  </g>
</svg>
