<svg xmlns="http://www.w3.org/2000/svg" width="367.935" height="41.154" viewBox="0 0 367.935 41.154">
  <g id="Group_78" data-name="Group 78" transform="translate(178.775 -257.848)">
    <path id="Path_826" data-name="Path 826" d="M-31.613,285.349a13.884,13.884,0,0,0,.467-2.7c.046-5.837-.005-11.673,0-17.51.005-3.779,1.265-5.226,5.043-5.249,12.5-.074,25-.09,37.5.049,1.428.016,2.843,1.153,4.729,1.971,3.839-3.337,9.107-2.11,14.068-1.85,1.958.1,4,1.708,5.7,3.026,3.591,2.79,7.021,5.795,10.436,8.8,2.19,1.93,3.47,2.041,5.6.18q6.257-5.459,12.532-10.9c.063-.055.12-.117.186-.168,2.113-1.635,13.461-1.825,15.528-.051a4.661,4.661,0,0,1,1.355,3c.165,2.739-.029,5.5.015,8.249a18.084,18.084,0,0,0,.548,2.9,71.39,71.39,0,0,1,3.666-7.082c2.621-3.92,6.643-6.016,10.818-8,7.575-3.592,15.482-1.412,23.233-1.6,1.837-.045,3.882,1.242,5.535,2.357a58.441,58.441,0,0,1,8.172,6.425c1.643,1.6,2.629,3.88,4.462,5.692,0-1.77.124-3.551-.021-5.31-.57-6.878.182-7.741,7.019-7.739a16.685,16.685,0,0,0,2.248-.014c4.519-.609,7.88,1.859,11.357,4.136,4.674,3.061,9.419,6.015,14.134,9.014l.862-.26c0-1.837.01-3.674,0-5.512-.046-6.924.381-7.376,7.284-7.35,2.079.007,4.158.146,6.238.206,1.44.041,2.05.734,2.046,2.2q-.039,16.134.007,32.269c0,1.609-.684,2.244-2.25,2.216-2.832-.05-5.772.446-8.469-.162a26.06,26.06,0,0,1-7.739-3.552c-4.41-2.745-8.615-5.82-12.947-8.694A18.825,18.825,0,0,0,154.5,283.1c0,2.7-.011,4.883,0,7.069.037,6.573,0,6.614-6.463,6.581-2.249-.011-4.5-.013-6.747-.087a3.036,3.036,0,0,1-3.286-3.3c-.03-1.746.046-3.493.061-5.24a12.218,12.218,0,0,0-.556-4.389c-1.039,1.5-1.978,3.077-3.144,4.468a27.868,27.868,0,0,1-4.655,4.817,47,47,0,0,1-6.517,3.454c-7.491,3.8-15.652,2.471-23.137,1.341a22.52,22.52,0,0,1-16.115-11.771,19.364,19.364,0,0,1-1.19-4.212l-.666-.068a16.915,16.915,0,0,0-.54,2.872c-.052,2.75.065,5.5.039,8.253-.024,2.6-.945,3.675-3.573,3.792-3.159.14-6.331.077-9.5.009-2.012-.043-3.038-1.234-3.064-3.209-.041-3.064-.011-6.131-.011-9.361-2.722-.479-3.724,2.1-5.438,3.241-2.739,1.823-5.138,4.152-7.77,6.15a5.478,5.478,0,0,1-6.929-.386c-3.32-2.737-6.572-5.559-9.921-8.257a11.3,11.3,0,0,0-2.835-1.09c.159,2.8.374,5.163.41,7.525.072,4.793-.636,5.533-5.484,5.42-3.437-.08-7.007.76-10.233-1.307-.451-.289-1.294-.05-1.936.06-2.321.4-4.63,1.185-6.95,1.212-11.248.131-22.5.083-33.748.036a29.5,29.5,0,0,1-3.9-.6,12.27,12.27,0,0,0-2.687-.247c-2.708.227-5.4.8-8.11.825-10,.105-20,.063-30,.041-4.544-.009-5.916-1.468-5.911-6.064q.015-12.381,0-24.763c0-4.571,1.394-6.037,5.909-6.079,2.249-.021,4.5-.063,6.749.035,3.644.158,4.916,1.5,4.922,5.125.009,5.086-.042,10.172-.06,15.258-.011,3.129.483,3.587,3.6,3.572,5.667-.028,11.336-.141,17,.035C-35.95,283.932-34.033,284.754-31.613,285.349Zm140.805-1.194c2.419-.62,4.449-.681,5.877-1.64,1.358-.912,2.925-2.8,2.865-4.19a6.181,6.181,0,0,0-3-4.345,10.634,10.634,0,0,0-9.669-.112c-2.9,1.43-5.006,4.966-1.526,7.512A34.516,34.516,0,0,0,109.192,284.155Zm-93.307-13.2-1.285-.247a16.667,16.667,0,0,0-.967,3.645c-.106,2.78.229,5.583.035,8.352-.122,1.754.4,2.767,2.217,3.773Z" transform="translate(0.011 0)" fill="#fff"/>
    <path id="Path_827" data-name="Path 827" d="M-156.012,278.2c-1.43,1.265-3.235,2.293-4.211,3.844a21.421,21.421,0,0,0-3.4,10.471c-.145,3.021-1.435,4.242-4.4,4.211a57.8,57.8,0,0,1-8.664-.681,3.23,3.23,0,0,1-1.846-2.35,19.943,19.943,0,0,1,.048-6.471,17.783,17.783,0,0,1,2.565-5.741,48.372,48.372,0,0,1,16.032-15.607c4.214-2.482,9.018-3.97,13.579-5.852,9.219-3.8,18.837-1.436,28.269-1.591,2.606-.042,5.355,1.453,7.837,2.658a102.331,102.331,0,0,1,11.673,6.414c5.473,3.606,10.338,7.947,13.441,13.9,1.363,2.614,2.737,5.237,3.858,7.957a12.785,12.785,0,0,1,.618,4.17c.1,2.028-.984,3.131-3.012,3.163-2.665.042-5.339.124-8-.023-3.339-.185-4.845-1.733-4.974-5.047-.148-3.825-2.206-6.882-4.1-9.9a49.488,49.488,0,0,0-5.682-6.643,3.615,3.615,0,0,0-1.789-.951c-.165-.038-.825.887-.768,1.3a3.64,3.64,0,0,0,.927,2.134c2.233,1.969,5.735,3.378,6.621,5.786,1.222,3.321,4.157,6.247,3.365,10.287-.447,2.279-1.3,2.765-3.445,1.877a5.085,5.085,0,0,0-3.043-.5c-4.053,1.206-4.029,1.29-5.366-2.683a17.608,17.608,0,0,1-.584,2.073c-.679,1.6-1.81,2.417-3.221.948-1.389-1.447-2.5-.914-3.987-.257a5.5,5.5,0,0,1-3.606.28c-.513-.164-.689-1.812-.767-2.807-.118-1.509.781-2.263,2.247-2.448.394-.05,1.029-.221,1.1-.468a6.372,6.372,0,0,1,4.05-4.3,4,4,0,0,0-.232-1.783c-.944-.045-2.693.029-2.724.263-.287,2.156-1.691,2.527-3.461,2.894-.63.131-1.031,1.37-1.533,2.105-.549.8-1.052,2.241-1.649,2.281a5.978,5.978,0,0,1-3.57-1.1c-.329-.23.1-1.927.531-2.779.742-1.473,1.492-2.746.125-4.323a2.1,2.1,0,0,1,.359-2.023,13.753,13.753,0,0,1,2.992-1.467c.078.068,0-.062-.1-.077-1.69-.256-3.777-.679-3.5-2.677.3-2.151,2.465-2.044,4.292-1.845,1.284.14,2.58.175,3.87.257l.091-1.035a37.835,37.835,0,0,0-3.826.026c-1.748.178-3.208.07-3.569-2.069-.413-2.451.319-3.645,2.638-4.271a4.938,4.938,0,0,0,1.864-.806c-6.3-.244-12.627-2.056-18.808,1.034-2.629,1.315-5.638,1.941-8.129,3.45-2.813,1.7-5.969,3.307-7.1,6.859Zm47.925,1.96c-1.319-.909-2.108-1.875-2.75-1.786a2.857,2.857,0,0,0-2,1.759,1.87,1.87,0,0,0,2.244,2.231C-109.885,282.284-109.284,281.262-108.087,280.159Z" fill="#fff"/>
    <path id="Path_828" data-name="Path 828" d="M-156.085,278.267a23.624,23.624,0,0,0,2.488-.169c1.738-.292,2.782.331,2.941,2.126.121,1.358.637,2.357,2.142,2.057a9.885,9.885,0,0,0,2.413-1.223c-.517-.893-.831-2.055-1.59-2.628a3.553,3.553,0,0,1,.048-5.8c2.024-1.645,4.281-2.216,6.665-2.925,1.774-.529,3.092-2.464,5.33-1.914.642.157,1.624.045,1.883.435.811,1.217,1.852,2.61,1.868,3.945.018,1.635-1.62,2.058-3.189,2.01-1.61-.051-3.223-.012-4.836-.012l-.012.759c1.146,0,2.293.024,3.439-.009.663-.02,1.323-.17,1.987-.2,1.566-.057,3.255.045,3.534,1.949.283,1.931-1.459,2.115-2.817,2.484-.237.064-.474.132-.726.2,1.158.642,2.771,1.019,3.275,1.979.407.775-.526,2.253-.941,3.681a23.557,23.557,0,0,1,1.447,3.173c.473,1.515.2,3.04-1.68,3.2-1.678.146-3.9.3-4.029-2.181-.109-2.028-.9-2.725-2.778-3.01-.817-.124-1.523-1.052-2.254-1.646-.613-.5-1.115-1.26-1.807-1.5-.57-.2-1.345.2-2.03.334a9.42,9.42,0,0,0,.554,2.177,18.247,18.247,0,0,0,2.092,3.215,8.652,8.652,0,0,0,1.976,1.4c.944.627,2.523,1.105,2.694,1.893.232,1.073-.276,3-1.073,3.426-.985.526-2.629.032-3.911-.312-.6-.162-1.022-1-1.379-1.38l-3.425,2.16-2.26-4.278c-.392,1.247.468,4.04-2.283,4.2-1.631.094-3.325-.893-4.992-1.394l.183-.718a2.053,2.053,0,0,0-.434.184c-.872.627-1.735,1.265-2.6,1.9a16.049,16.049,0,0,1-1.4-3.205c-.819-4.083,2.045-6.962,3.568-10.276.645-1.4,1.328-2.789,1.994-4.184Zm.645,12.245.95.1.577-3.978-1.218-.138Z" transform="translate(0.002 0.001)" fill="#fff"/>
  </g>
</svg>
