<svg xmlns="http://www.w3.org/2000/svg" width="315.823" height="170.341" viewBox="0 0 315.823 170.341">
  <g id="Group_75" data-name="Group 75" transform="translate(-125.612 -198.153)">
    <g id="Group_44" data-name="Group 44">
      <g id="Group_38" data-name="Group 38">
        <path id="Path_701" data-name="Path 701" d="M125.612,336.9V303.712c0-1.028,2.132-1.028,4.315-1.028,2.157,0,4.289,0,4.289,1.028v25.562l14.951.025c1.1,0,1.1,2.057,1.1,4.165,0,2.082,0,4.164-1.129,4.164H126.29A.72.72,0,0,1,125.612,336.9Z" fill="#fff"/>
        <path id="Path_702" data-name="Path 702" d="M153.316,324.834c0-7.35,4.991-13.3,12.994-13.3,8.027,0,13.044,5.945,13.044,13.3,0,7.325-5.017,13.295-13.044,13.295C158.307,338.129,153.316,332.159,153.316,324.834Zm17.634,0c0-2.96-1.857-5.368-4.64-5.368-2.76,0-4.617,2.383-4.617,5.368,0,2.96,1.857,5.344,4.617,5.344C169.093,330.178,170.95,327.77,170.95,324.834Z" fill="#fff"/>
        <path id="Path_703" data-name="Path 703" d="M185.282,327.519V312.843c0-1.029,2.133-1.029,4.215-1.029,2.108,0,4.214,0,4.214,1.029v14.1a2.949,2.949,0,0,0,3.011,3.261,3.674,3.674,0,0,0,3.713-3.963v-13.4c0-1.029,2.106-1.029,4.213-1.029s4.189,0,4.189,1.029v23.982c0,1.029-1.98,1.029-3.963,1.029s-3.963,0-3.963-1.029v-2.71c-1.631,2.258-3.738,4.014-6.874,4.014C188.794,338.129,185.282,334.141,185.282,327.519Z" fill="#fff"/>
        <path id="Path_704" data-name="Path 704" d="M216.472,304.766c0-2.935,1.6-4.691,5.043-4.691s5.042,1.756,5.042,4.691c0,2.91-1.606,4.666-5.042,4.666S216.472,307.676,216.472,304.766Zm.828,32.059V312.843c0-1.029,2.107-1.029,4.24-1.029,2.082,0,4.164,0,4.164,1.029v23.982c0,1.029-2.082,1.029-4.189,1.029S217.3,337.854,217.3,336.825Z" fill="#fff"/>
        <path id="Path_705" data-name="Path 705" d="M231.96,324.709c0-7.476,5.041-13.17,12.518-13.17,7.851,0,11.388,5.895,11.388,13.3,0,1.129-.025,2.258-.777,2.258H240.314a4.817,4.817,0,0,0,5.041,3.888,11.76,11.76,0,0,0,6.347-1.756.7.7,0,0,1,.376-.1c.728,0,1.28,1.2,1.781,2.559a9.368,9.368,0,0,1,.8,2.96c0,.426-.1.752-.4.9a18.637,18.637,0,0,1-9.885,2.583C236.726,338.129,231.96,332.284,231.96,324.709Zm12.518-6.222a4.275,4.275,0,0,0-4.266,3.864h7.627C247.788,320.344,247.036,318.487,244.478,318.487Z" fill="#fff"/>
        <path id="Path_706" data-name="Path 706" d="M260.364,318.946a1.133,1.133,0,0,1,.126-.5l1.706-4.013a4.878,4.878,0,0,1-2.408-4.214,4.791,4.791,0,1,1,8.6,2.934l-4.289,5.87c-.427.527-1.356.527-2.284.527C261.117,319.548,260.364,319.523,260.364,318.946Z" fill="#fff"/>
        <path id="Path_707" data-name="Path 707" d="M271.86,336.2a.97.97,0,0,1-.451-.953,9.031,9.031,0,0,1,.852-2.96c.628-1.58,1.279-2.859,2.133-2.859a.988.988,0,0,1,.451.1,14.485,14.485,0,0,0,5.92,1.63c2.384,0,3.186-.5,3.186-1.479,0-1.079-1.53-1.455-3.361-1.906-3.437-.779-8.83-1.908-8.83-8,0-5.845,4.565-8.228,10.936-8.228a16.131,16.131,0,0,1,8.354,1.931.963.963,0,0,1,.428.928,9.333,9.333,0,0,1-.828,2.911c-.6,1.48-1.4,2.884-2.233,2.884a.707.707,0,0,1-.377-.1,11.312,11.312,0,0,0-5.067-1.606c-1.882,0-2.784.577-2.784,1.506s1.429,1.278,3.261,1.7c3.512.778,8.93,2.007,8.93,8.379.025,6.422-5.318,8.052-11.79,8.052A17.807,17.807,0,0,1,271.86,336.2Z" fill="#fff"/>
        <path id="Path_708" data-name="Path 708" d="M312.464,336.825V303.637a.7.7,0,0,1,.678-.728h14.424c5.794,0,10.912,4.49,10.912,11.439,0,6.974-5.118,11.439-10.912,11.439h-6.5V336.8c0,1.054-2.132,1.054-4.291,1.054C314.6,337.854,312.464,337.854,312.464,336.825ZM329.4,314.374a3.117,3.117,0,0,0-3.112-3.136h-5.217v6.271h5.217A3.117,3.117,0,0,0,329.4,314.374Z" fill="#fff"/>
        <path id="Path_709" data-name="Path 709" d="M345.31,330.554V300.877c0-1.028,2.107-1.028,4.215-1.028s4.212,0,4.212,1.028V328.7a1.311,1.311,0,0,0,1.432,1.481,5.178,5.178,0,0,0,1.43-.2.661.661,0,0,1,.224-.026c.9,0,.9,1.807.9,3.638,0,1.957,0,3.938-.9,4.114a21.547,21.547,0,0,1-4.339.426C347.618,338.129,345.31,334.692,345.31,330.554Z" fill="#fff"/>
        <path id="Path_710" data-name="Path 710" d="M362.45,331.181c0-4.692,4.039-7.451,9.735-8.554l3.662-.7V320.67c0-1.154-.729-1.982-2.309-1.982a14.424,14.424,0,0,0-6.822,1.881.665.665,0,0,1-.3.076c-.728,0-1.455-1.355-2.056-2.81a8.016,8.016,0,0,1-.78-2.608,1.036,1.036,0,0,1,.528-1,19.81,19.81,0,0,1,9.859-2.684c6.346,0,10.26,2.709,10.26,9.783V336.85c0,1-1.932,1-3.864,1-1.957,0-3.914,0-3.914-1v-2.207a7.731,7.731,0,0,1-6.923,3.486C365.587,338.129,362.45,335.9,362.45,331.181Zm13.4-2.709v-1.581l-2.936.6a2.162,2.162,0,0,0-2.031,2.032,1.683,1.683,0,0,0,1.881,1.63A2.858,2.858,0,0,0,375.847,328.472Z" fill="#fff"/>
        <path id="Path_711" data-name="Path 711" d="M390.9,324.834c0-8.127,5.62-13.3,12.418-13.3a16.14,16.14,0,0,1,8.354,1.931,1.093,1.093,0,0,1,.451,1.054,9.756,9.756,0,0,1-.8,3.06c-.6,1.581-1.531,3.312-2.359,3.312a.549.549,0,0,1-.326-.1,8.693,8.693,0,0,0-4.465-1.329c-2.834,0-4.791,2.282-4.791,5.368,0,3.061,1.957,5.344,4.791,5.344a8.642,8.642,0,0,0,4.541-1.356.892.892,0,0,1,.352-.075c.828,0,1.605,1.556,2.181,3.086a11.245,11.245,0,0,1,.828,3.411c0,.452-.1.8-.351.929a16.2,16.2,0,0,1-8.4,1.956C396.525,338.129,390.9,333.037,390.9,324.834Z" fill="#fff"/>
        <path id="Path_712" data-name="Path 712" d="M417.528,324.709c0-7.476,5.043-13.17,12.518-13.17,7.852,0,11.389,5.895,11.389,13.3,0,1.129-.026,2.258-.778,2.258H425.882a4.821,4.821,0,0,0,5.043,3.888,11.76,11.76,0,0,0,6.346-1.756.7.7,0,0,1,.377-.1c.726,0,1.279,1.2,1.781,2.559a9.4,9.4,0,0,1,.8,2.96c0,.426-.1.752-.4.9a18.623,18.623,0,0,1-9.883,2.583C422.3,338.129,417.528,332.284,417.528,324.709Zm12.518-6.222a4.273,4.273,0,0,0-4.264,3.864h7.625C433.359,320.344,432.605,318.487,430.046,318.487Z" fill="#fff"/>
      </g>
      <g id="Group_43" data-name="Group 43">
        <g id="Group_39" data-name="Group 39">
          <path id="Path_713" data-name="Path 713" d="M148.564,301.272a2.54,2.54,0,0,0-.955,2.608c-.837,1.516-.024,3.478.945,4.718a4.64,4.64,0,0,0,4.214,1.9,3.252,3.252,0,0,0,2.685-2.714,6.37,6.37,0,0,0-2.491-5.853C151.76,301.007,149.966,300.37,148.564,301.272Z" fill="#fff"/>
        </g>
        <g id="Group_40" data-name="Group 40">
          <path id="Path_714" data-name="Path 714" d="M160.945,291.219a1.534,1.534,0,0,0-1.646.218c-4.042,3.242-3.054,10.8,1.325,13.344,2.668,1.548,5.173-.025,5.531-2.973a15.709,15.709,0,0,0-1.985-8.6C163.586,292.093,162.307,290.587,160.945,291.219Zm.9,7.344a1.119,1.119,0,0,1-.013.316C161.757,298.661,161.769,298.648,161.844,298.563Z" fill="#fff"/>
        </g>
        <g id="Group_41" data-name="Group 41">
          <path id="Path_715" data-name="Path 715" d="M175.454,303.512l-.046.034.009,0,.054-.036Z" fill="#fff"/>
        </g>
        <g id="Group_42" data-name="Group 42">
          <path id="Path_716" data-name="Path 716" d="M177.743,297.254c-1.532-1.162-3.406-1.731-5.177-.687-2,1.18-2.384,3.971-1.909,6.049.446,1.952,1.885,4.36,4.132,4.484a3.618,3.618,0,0,0,2.4-.687,4.528,4.528,0,0,0,1.537-2.9,3.327,3.327,0,0,0,.044-.422,2.56,2.56,0,0,0,.279-.585C179.564,300.895,179.187,298.349,177.743,297.254Zm-2.4,6.331-.019.022C175.308,303.618,175.314,303.61,175.345,303.585Zm0-.091a.135.135,0,0,0,.065.015l-.018.022A.185.185,0,0,1,175.342,303.494Zm.019.092.047-.04-.006,0,.045-.03h.007l.03-.021.038-.022.025-.01c-.015.012-.043.032-.076.055l.084,0a.133.133,0,0,1-.138.032Z" fill="#fff"/>
        </g>
      </g>
    </g>
    <g id="Group_45" data-name="Group 45">
      <path id="Path_717" data-name="Path 717" d="M145.018,365.369l-.566-1.837a.061.061,0,0,0-.062-.047h-4.413a.061.061,0,0,0-.063.047l-.565,1.837a.183.183,0,0,1-.189.126h-1.271c-.116,0-.157-.057-.126-.173l3.438-10.694a.186.186,0,0,1,.189-.125h1.57a.184.184,0,0,1,.189.125l3.47,10.694.016.063c0,.074-.047.11-.142.11h-1.287A.182.182,0,0,1,145.018,365.369Zm-4.7-3.1a.076.076,0,0,0,.054.023h3.613a.076.076,0,0,0,.054-.023.044.044,0,0,0,.008-.056l-1.821-5.826a.052.052,0,0,0-.048-.032.051.051,0,0,0-.047.032l-1.821,5.826A.044.044,0,0,0,140.315,362.269Z" fill="#fff"/>
      <path id="Path_718" data-name="Path 718" d="M164.443,361.522a6.391,6.391,0,0,1-.251,1.9,3.161,3.161,0,0,1-1.084,1.626,3.1,3.1,0,0,1-1.932.573,2.483,2.483,0,0,1-1.013-.212,2.347,2.347,0,0,1-.824-.605c-.021-.021-.039-.026-.055-.016a.055.055,0,0,0-.023.048v3.5a.139.139,0,0,1-.157.156H157.91a.138.138,0,0,1-.157-.156V357.659a.139.139,0,0,1,.157-.157H159.1a.139.139,0,0,1,.157.157v.519a.056.056,0,0,0,.023.047c.016.01.034,0,.055-.016a2.459,2.459,0,0,1,.816-.612,2.383,2.383,0,0,1,1.021-.22,3.052,3.052,0,0,1,1.877.557,3.177,3.177,0,0,1,1.091,1.578A6.061,6.061,0,0,1,164.443,361.522Zm-1.524-.031a4.146,4.146,0,0,0-.393-1.947,1.558,1.558,0,0,0-1.491-.864,1.5,1.5,0,0,0-1.382.848,4.14,4.14,0,0,0-.377,1.979,4,4,0,0,0,.409,2.01,1.45,1.45,0,0,0,1.335.8,1.519,1.519,0,0,0,1.4-.754A3.7,3.7,0,0,0,162.919,361.491Z" fill="#fff"/>
      <path id="Path_719" data-name="Path 719" d="M169.562,365.338V354.66a.139.139,0,0,1,.157-.157h1.193a.139.139,0,0,1,.157.157v10.678a.139.139,0,0,1-.157.157h-1.193A.139.139,0,0,1,169.562,365.338Z" fill="#fff"/>
      <path id="Path_720" data-name="Path 720" d="M180.985,357.714a2.561,2.561,0,0,1,1.1.942,2.5,2.5,0,0,1,.385,1.374v5.308a.139.139,0,0,1-.156.157h-1.194a.139.139,0,0,1-.157-.157v-.566c0-.051-.026-.062-.079-.031a2.739,2.739,0,0,1-1,.652,3.608,3.608,0,0,1-1.311.228,3.051,3.051,0,0,1-1.924-.589,2.113,2.113,0,0,1-.761-1.782,2.35,2.35,0,0,1,.855-1.924,3.689,3.689,0,0,1,2.4-.7H180.9a.056.056,0,0,0,.063-.063v-.423a1.428,1.428,0,0,0-.4-1.077,1.708,1.708,0,0,0-1.218-.384,2.011,2.011,0,0,0-1.075.259,1.065,1.065,0,0,0-.511.7.166.166,0,0,1-.189.141l-1.271-.173c-.105-.02-.152-.062-.142-.126a2.137,2.137,0,0,1,.99-1.514,3.756,3.756,0,0,1,2.167-.589A3.878,3.878,0,0,1,180.985,357.714Zm-.635,6.2a1.325,1.325,0,0,0,.612-1.115v-.927a.055.055,0,0,0-.063-.062h-1.476a2.666,2.666,0,0,0-1.477.361,1.14,1.14,0,0,0-.549,1.005,1.01,1.01,0,0,0,.417.88,1.833,1.833,0,0,0,1.09.3A2.418,2.418,0,0,0,180.35,363.909Z" fill="#fff"/>
      <path id="Path_721" data-name="Path 721" d="M188.814,365.017a3.037,3.037,0,0,1-1.163-1.642,6.286,6.286,0,0,1-.235-1.9,6.884,6.884,0,0,1,.235-1.9,2.976,2.976,0,0,1,1.17-1.6,3.458,3.458,0,0,1,2.034-.6,3.568,3.568,0,0,1,2.057.6,2.734,2.734,0,0,1,1.147,1.506,2.26,2.26,0,0,1,.125.519.153.153,0,0,1-.141.157l-1.179.173h-.031c-.073,0-.125-.048-.156-.141l-.048-.251a1.537,1.537,0,0,0-.612-.9,1.925,1.925,0,0,0-1.178-.361,1.832,1.832,0,0,0-1.146.361,1.656,1.656,0,0,0-.613.958,6.375,6.375,0,0,0-.141,1.492,6.291,6.291,0,0,0,.141,1.476,1.749,1.749,0,0,0,.62.989,1.8,1.8,0,0,0,1.139.361,1.955,1.955,0,0,0,1.186-.361,1.534,1.534,0,0,0,.62-.942.035.035,0,0,0,.007-.039.04.04,0,0,1,.008-.039v-.063a.134.134,0,0,1,.173-.095l1.178.189c.084.021.126.062.126.126v.062a1.025,1.025,0,0,1-.078.346,2.667,2.667,0,0,1-1.147,1.539,3.65,3.65,0,0,1-2.057.581A3.428,3.428,0,0,1,188.814,365.017Z" fill="#fff"/>
      <path id="Path_722" data-name="Path 722" d="M205.506,361.946a.14.14,0,0,1-.157.158H200.34a.056.056,0,0,0-.064.062,2.734,2.734,0,0,0,.1.816,1.678,1.678,0,0,0,.7.982,2.341,2.341,0,0,0,1.328.353,2.016,2.016,0,0,0,1.79-.958c.052-.1.121-.12.2-.046l.895.6a.148.148,0,0,1,.047.2,3.056,3.056,0,0,1-1.248,1.116,4.017,4.017,0,0,1-1.829.408,3.513,3.513,0,0,1-1.932-.5,3.06,3.06,0,0,1-1.177-1.429,5.948,5.948,0,0,1-.377-2.246,6.623,6.623,0,0,1,.173-1.743,3,3,0,0,1,1.129-1.711,3.36,3.36,0,0,1,2.058-.628,3.2,3.2,0,0,1,2.371.793,3.81,3.81,0,0,1,.958,2.331A12.338,12.338,0,0,1,205.506,361.946Zm-4.491-2.928a1.668,1.668,0,0,0-.6.9,3.721,3.721,0,0,0-.142.879.056.056,0,0,0,.064.062h3.6A.054.054,0,0,0,204,360.8a4.5,4.5,0,0,0-.094-.77,1.889,1.889,0,0,0-2.889-1.012Z" fill="#fff"/>
      <path id="Path_723" data-name="Path 723" d="M218.43,365.369l-2.262-7.694-.016-.047c0-.084.053-.126.158-.126h1.224a.161.161,0,0,1,.173.142l1.492,5.7c.011.021.024.031.039.031a.043.043,0,0,0,.039-.031l1.524-5.7a.162.162,0,0,1,.173-.142h1.084a.162.162,0,0,1,.172.142l1.554,5.684c.011.022.025.031.04.031s.029-.009.039-.031l1.555-5.684a.161.161,0,0,1,.173-.142l1.209.016a.142.142,0,0,1,.117.046.152.152,0,0,1,.025.126l-2.278,7.679a.173.173,0,0,1-.173.126h-1.224a.173.173,0,0,1-.173-.126l-1.539-5.307c-.011-.021-.024-.032-.039-.032a.044.044,0,0,0-.039.032l-1.461,5.292a.161.161,0,0,1-.173.141H218.6A.173.173,0,0,1,218.43,365.369Z" fill="#fff"/>
      <path id="Path_724" data-name="Path 724" d="M237.242,358.138a2.71,2.71,0,0,1,.754,2.018v5.182a.139.139,0,0,1-.157.157h-1.193a.14.14,0,0,1-.158-.157v-4.884a1.782,1.782,0,0,0-.455-1.271,1.576,1.576,0,0,0-1.209-.488,1.612,1.612,0,0,0-1.21.488,1.732,1.732,0,0,0-.47,1.255v4.9a.14.14,0,0,1-.158.157h-1.193a.139.139,0,0,1-.157-.157V354.66a.139.139,0,0,1,.157-.157h1.193a.14.14,0,0,1,.158.157v3.565a.049.049,0,0,0,.023.046q.024.017.039-.015a2.379,2.379,0,0,1,2-.863A2.776,2.776,0,0,1,237.242,358.138Z" fill="#fff"/>
      <path id="Path_725" data-name="Path 725" d="M249.711,361.946a.14.14,0,0,1-.157.158h-5.009a.055.055,0,0,0-.063.062,2.739,2.739,0,0,0,.094.816,1.68,1.68,0,0,0,.7.982,2.335,2.335,0,0,0,1.327.353,2.016,2.016,0,0,0,1.79-.958c.052-.1.121-.12.2-.046l.9.6a.148.148,0,0,1,.047.2,3.056,3.056,0,0,1-1.248,1.116,4.017,4.017,0,0,1-1.829.408,3.513,3.513,0,0,1-1.932-.5,3.06,3.06,0,0,1-1.177-1.429,5.948,5.948,0,0,1-.377-2.246,6.623,6.623,0,0,1,.173-1.743,3,3,0,0,1,1.129-1.711,3.36,3.36,0,0,1,2.058-.628,3.2,3.2,0,0,1,2.371.793,3.81,3.81,0,0,1,.958,2.331A12.341,12.341,0,0,1,249.711,361.946Zm-4.491-2.928a1.668,1.668,0,0,0-.6.9,3.675,3.675,0,0,0-.141.879.055.055,0,0,0,.063.062h3.6a.054.054,0,0,0,.062-.062,4.627,4.627,0,0,0-.093-.77,1.89,1.89,0,0,0-2.89-1.012Z" fill="#fff"/>
      <path id="Path_726" data-name="Path 726" d="M259.164,357.628a.145.145,0,0,1,.079.188l-.251,1.178c-.01.094-.074.125-.188.094a1.656,1.656,0,0,0-.629-.109l-.22.015a1.768,1.768,0,0,0-1.217.51,1.692,1.692,0,0,0-.478,1.249v4.585a.139.139,0,0,1-.157.157h-1.194a.139.139,0,0,1-.157-.157v-7.679a.139.139,0,0,1,.157-.157H256.1a.139.139,0,0,1,.157.157v.832c0,.031.008.05.023.056s.029,0,.039-.025a2.191,2.191,0,0,1,1.932-1.1A2,2,0,0,1,259.164,357.628Z" fill="#fff"/>
      <path id="Path_727" data-name="Path 727" d="M270.11,361.946a.14.14,0,0,1-.158.158h-5.009a.055.055,0,0,0-.063.062,2.707,2.707,0,0,0,.094.816,1.676,1.676,0,0,0,.7.982,2.335,2.335,0,0,0,1.327.353,2.016,2.016,0,0,0,1.79-.958c.052-.1.12-.12.2-.046l.9.6a.151.151,0,0,1,.047.2,3.059,3.059,0,0,1-1.249,1.116,4.017,4.017,0,0,1-1.829.408,3.511,3.511,0,0,1-1.932-.5,3.062,3.062,0,0,1-1.178-1.429,5.968,5.968,0,0,1-.377-2.246,6.665,6.665,0,0,1,.173-1.743,3,3,0,0,1,1.131-1.711,3.357,3.357,0,0,1,2.057-.628,3.207,3.207,0,0,1,2.372.793,3.827,3.827,0,0,1,.957,2.331A12.778,12.778,0,0,1,270.11,361.946Zm-4.492-2.928a1.656,1.656,0,0,0-.6.9,3.62,3.62,0,0,0-.142.879.055.055,0,0,0,.063.062h3.6a.055.055,0,0,0,.063-.062,4.687,4.687,0,0,0-.1-.77,1.889,1.889,0,0,0-2.889-1.012Z" fill="#fff"/>
      <path id="Path_728" data-name="Path 728" d="M288.214,361.522a6.425,6.425,0,0,1-.25,1.9,3.167,3.167,0,0,1-1.084,1.626,3.1,3.1,0,0,1-1.932.573,2.478,2.478,0,0,1-1.012-.212,2.351,2.351,0,0,1-.825-.605c-.021-.021-.039-.026-.054-.016a.053.053,0,0,0-.024.048v3.5a.138.138,0,0,1-.157.156h-1.193a.138.138,0,0,1-.157-.156V357.659a.138.138,0,0,1,.157-.157h1.193a.139.139,0,0,1,.157.157v.519a.054.054,0,0,0,.024.047c.015.01.033,0,.054-.016a2.463,2.463,0,0,1,.817-.612,2.369,2.369,0,0,1,1.02-.22,3.054,3.054,0,0,1,1.877.557,3.185,3.185,0,0,1,1.092,1.578A6.116,6.116,0,0,1,288.214,361.522Zm-1.523-.031a4.146,4.146,0,0,0-.393-1.947,1.558,1.558,0,0,0-1.49-.864,1.5,1.5,0,0,0-1.382.848,4.14,4.14,0,0,0-.377,1.979,4.01,4.01,0,0,0,.408,2.01,1.451,1.451,0,0,0,1.335.8,1.519,1.519,0,0,0,1.4-.754A3.688,3.688,0,0,0,286.691,361.491Z" fill="#fff"/>
      <path id="Path_729" data-name="Path 729" d="M299.757,361.946a.14.14,0,0,1-.157.158h-5.009a.056.056,0,0,0-.064.062,2.7,2.7,0,0,0,.1.816,1.678,1.678,0,0,0,.7.982,2.336,2.336,0,0,0,1.328.353,2.017,2.017,0,0,0,1.79-.958c.052-.1.12-.12.2-.046l.895.6a.149.149,0,0,1,.047.2,3.056,3.056,0,0,1-1.248,1.116,4.021,4.021,0,0,1-1.83.408,3.516,3.516,0,0,1-1.932-.5A3.06,3.06,0,0,1,293.4,363.7a5.968,5.968,0,0,1-.377-2.246,6.623,6.623,0,0,1,.173-1.743,3,3,0,0,1,1.13-1.711,3.36,3.36,0,0,1,2.058-.628,3.2,3.2,0,0,1,2.371.793,3.81,3.81,0,0,1,.958,2.331A12.787,12.787,0,0,1,299.757,361.946Zm-4.491-2.928a1.668,1.668,0,0,0-.6.9,3.721,3.721,0,0,0-.142.879.056.056,0,0,0,.064.062h3.6a.054.054,0,0,0,.062-.062,4.6,4.6,0,0,0-.094-.77,1.889,1.889,0,0,0-2.889-1.012Z" fill="#fff"/>
      <path id="Path_730" data-name="Path 730" d="M308.457,358.743h-1.7a.056.056,0,0,0-.063.063v4.161a1.061,1.061,0,0,0,1.225,1.24h.456a.138.138,0,0,1,.156.157v.974a.138.138,0,0,1-.156.157c-.336.021-.576.031-.723.031a3.082,3.082,0,0,1-1.8-.431,1.835,1.835,0,0,1-.605-1.594v-4.7a.056.056,0,0,0-.063-.063h-.958a.139.139,0,0,1-.157-.157v-.927a.139.139,0,0,1,.157-.157h.958a.056.056,0,0,0,.063-.063v-1.853a.137.137,0,0,1,.156-.156h1.131a.138.138,0,0,1,.157.156v1.853a.056.056,0,0,0,.063.063h1.7a.139.139,0,0,1,.157.157v.927A.139.139,0,0,1,308.457,358.743Z" fill="#fff"/>
      <path id="Path_731" data-name="Path 731" d="M314.762,365.307a2.6,2.6,0,0,1-1.108-.778,1.718,1.718,0,0,1-.392-1.091v-.172a.139.139,0,0,1,.157-.158h1.13a.14.14,0,0,1,.157.158v.078a.934.934,0,0,0,.48.769,2.094,2.094,0,0,0,1.216.33,1.968,1.968,0,0,0,1.147-.306.916.916,0,0,0,.439-.778.733.733,0,0,0-.408-.682,6.364,6.364,0,0,0-1.319-.48,12.479,12.479,0,0,1-1.5-.509,2.792,2.792,0,0,1-1.022-.739,1.813,1.813,0,0,1-.416-1.233,1.987,1.987,0,0,1,.825-1.672,3.558,3.558,0,0,1,2.191-.62,4.176,4.176,0,0,1,1.609.29,2.465,2.465,0,0,1,1.076.808,1.933,1.933,0,0,1,.376,1.163v.047a.139.139,0,0,1-.157.157h-1.1a.139.139,0,0,1-.158-.157v-.047a.9.9,0,0,0-.447-.762,2.13,2.13,0,0,0-1.218-.306,2.106,2.106,0,0,0-1.122.267.816.816,0,0,0-.431.722.748.748,0,0,0,.416.691,6.663,6.663,0,0,0,1.342.5,14.33,14.33,0,0,1,1.515.5,2.693,2.693,0,0,1,1.029.722,1.811,1.811,0,0,1,.424,1.249,2,2,0,0,1-.841,1.7,3.642,3.642,0,0,1-2.237.628A4.485,4.485,0,0,1,314.762,365.307Z" fill="#fff"/>
      <path id="Path_732" data-name="Path 732" d="M331.839,365.017a3.04,3.04,0,0,1-1.162-1.642,6.281,6.281,0,0,1-.236-1.9,6.881,6.881,0,0,1,.236-1.9,2.976,2.976,0,0,1,1.17-1.6,3.455,3.455,0,0,1,2.033-.6,3.566,3.566,0,0,1,2.057.6,2.723,2.723,0,0,1,1.146,1.506,2.164,2.164,0,0,1,.126.519.153.153,0,0,1-.141.157l-1.178.173h-.031c-.074,0-.126-.048-.158-.141l-.047-.251a1.537,1.537,0,0,0-.612-.9,1.925,1.925,0,0,0-1.178-.361,1.832,1.832,0,0,0-1.146.361,1.64,1.64,0,0,0-.612.958,6.315,6.315,0,0,0-.142,1.492,6.231,6.231,0,0,0,.142,1.476,1.739,1.739,0,0,0,.62.989,1.791,1.791,0,0,0,1.138.361,1.955,1.955,0,0,0,1.186-.361,1.534,1.534,0,0,0,.62-.942.035.035,0,0,0,.008-.039.034.034,0,0,1,.008-.039v-.063a.133.133,0,0,1,.173-.095l1.177.189c.084.021.126.062.126.126v.062a.984.984,0,0,1-.079.346,2.657,2.657,0,0,1-1.146,1.539,3.648,3.648,0,0,1-2.057.581A3.426,3.426,0,0,1,331.839,365.017Z" fill="#fff"/>
      <path id="Path_733" data-name="Path 733" d="M346.67,357.714a2.569,2.569,0,0,1,1.1.942,2.512,2.512,0,0,1,.384,1.374v5.308a.139.139,0,0,1-.157.157H346.8a.138.138,0,0,1-.157-.157v-.566c0-.051-.027-.062-.079-.031a2.726,2.726,0,0,1-1,.652,3.6,3.6,0,0,1-1.31.228,3.051,3.051,0,0,1-1.924-.589,2.111,2.111,0,0,1-.762-1.782,2.35,2.35,0,0,1,.856-1.924,3.689,3.689,0,0,1,2.4-.7h1.759a.056.056,0,0,0,.063-.063v-.423a1.425,1.425,0,0,0-.4-1.077,1.7,1.7,0,0,0-1.217-.384,2.017,2.017,0,0,0-1.076.259,1.067,1.067,0,0,0-.51.7c-.032.1-.094.152-.188.141l-1.272-.173c-.105-.02-.152-.062-.142-.126a2.139,2.139,0,0,1,.989-1.514,3.762,3.762,0,0,1,2.168-.589A3.881,3.881,0,0,1,346.67,357.714Zm-.636,6.2a1.323,1.323,0,0,0,.613-1.115v-.927a.056.056,0,0,0-.063-.062h-1.476a2.658,2.658,0,0,0-1.476.361,1.139,1.139,0,0,0-.55,1.005,1.014,1.014,0,0,0,.416.88,1.839,1.839,0,0,0,1.091.3A2.411,2.411,0,0,0,346.034,363.909Z" fill="#fff"/>
      <path id="Path_734" data-name="Path 734" d="M358.943,358.138a2.714,2.714,0,0,1,.753,2.018v5.182a.139.139,0,0,1-.157.157h-1.193a.139.139,0,0,1-.157-.157v-4.884a1.787,1.787,0,0,0-.455-1.271,1.579,1.579,0,0,0-1.209-.488,1.6,1.6,0,0,0-1.209.488,1.726,1.726,0,0,0-.472,1.255v4.9a.139.139,0,0,1-.156.157h-1.195a.139.139,0,0,1-.156-.157v-7.679a.139.139,0,0,1,.156-.157h1.195a.139.139,0,0,1,.156.157v.566a.051.051,0,0,0,.023.046c.017.011.03.006.04-.015a2.378,2.378,0,0,1,1.994-.863A2.775,2.775,0,0,1,358.943,358.138Z" fill="#fff"/>
      <path id="Path_735" data-name="Path 735" d="M376.389,354.5h1.193a.139.139,0,0,1,.157.157v10.678a.139.139,0,0,1-.157.157h-1.193a.139.139,0,0,1-.157-.157v-.518a.055.055,0,0,0-.024-.048c-.015-.009-.034,0-.055.016a2.445,2.445,0,0,1-.817.613,2.372,2.372,0,0,1-1.02.22,3.043,3.043,0,0,1-1.876-.558,3.168,3.168,0,0,1-1.092-1.578,5.975,5.975,0,0,1-.3-2.01,6.356,6.356,0,0,1,.252-1.9,3.208,3.208,0,0,1,1.083-1.618,3.075,3.075,0,0,1,1.932-.58,2.462,2.462,0,0,1,1.012.212,2.34,2.34,0,0,1,.825.6c.021.021.04.027.055.016a.053.053,0,0,0,.024-.047v-3.5A.139.139,0,0,1,376.389,354.5Zm-.189,6.988a4.153,4.153,0,0,0-.392-2.011,1.454,1.454,0,0,0-1.335-.8,1.521,1.521,0,0,0-1.4.754,3.8,3.8,0,0,0-.5,2.073,4.146,4.146,0,0,0,.393,1.947,1.561,1.561,0,0,0,1.492.863,1.5,1.5,0,0,0,1.382-.847A4.258,4.258,0,0,0,376.2,361.491Z" fill="#fff"/>
      <path id="Path_736" data-name="Path 736" d="M387.506,357.628a.145.145,0,0,1,.079.188l-.252,1.178c-.011.094-.073.125-.188.094a1.647,1.647,0,0,0-.628-.109l-.22.015a1.768,1.768,0,0,0-1.217.51,1.692,1.692,0,0,0-.479,1.249v4.585a.139.139,0,0,1-.157.157H383.25a.139.139,0,0,1-.156-.157v-7.679a.139.139,0,0,1,.156-.157h1.194a.139.139,0,0,1,.157.157v.832c0,.031.008.05.023.056s.029,0,.04-.025a2.188,2.188,0,0,1,1.932-1.1A2.008,2.008,0,0,1,387.506,357.628Z" fill="#fff"/>
      <path id="Path_737" data-name="Path 737" d="M398.451,361.946a.139.139,0,0,1-.157.158h-5.009a.055.055,0,0,0-.063.062,2.669,2.669,0,0,0,.1.816,1.674,1.674,0,0,0,.7.982,2.333,2.333,0,0,0,1.327.353,2.017,2.017,0,0,0,1.79-.958c.053-.1.12-.12.2-.046l.9.6a.149.149,0,0,1,.046.2,3.056,3.056,0,0,1-1.248,1.116,4.021,4.021,0,0,1-1.83.408,3.512,3.512,0,0,1-1.931-.5,3.062,3.062,0,0,1-1.178-1.429,5.968,5.968,0,0,1-.377-2.246,6.666,6.666,0,0,1,.173-1.743,3,3,0,0,1,1.131-1.711,3.357,3.357,0,0,1,2.057-.628,3.2,3.2,0,0,1,2.371.793,3.81,3.81,0,0,1,.958,2.331A12.787,12.787,0,0,1,398.451,361.946Zm-4.491-2.928a1.668,1.668,0,0,0-.6.9,3.676,3.676,0,0,0-.141.879.055.055,0,0,0,.063.062h3.6a.054.054,0,0,0,.062-.062,4.627,4.627,0,0,0-.093-.77,1.89,1.89,0,0,0-2.89-1.012Z" fill="#fff"/>
      <path id="Path_738" data-name="Path 738" d="M408.007,357.714a2.569,2.569,0,0,1,1.1.942,2.521,2.521,0,0,1,.384,1.374v5.308a.139.139,0,0,1-.157.157h-1.193a.138.138,0,0,1-.157-.157v-.566c0-.051-.027-.062-.079-.031a2.726,2.726,0,0,1-1,.652,3.6,3.6,0,0,1-1.31.228,3.049,3.049,0,0,1-1.924-.589,2.111,2.111,0,0,1-.762-1.782,2.348,2.348,0,0,1,.856-1.924,3.689,3.689,0,0,1,2.395-.7h1.759a.056.056,0,0,0,.063-.063v-.423a1.425,1.425,0,0,0-.4-1.077,1.7,1.7,0,0,0-1.217-.384,2.017,2.017,0,0,0-1.076.259,1.067,1.067,0,0,0-.51.7c-.032.1-.094.152-.188.141l-1.273-.173q-.156-.03-.141-.126a2.139,2.139,0,0,1,.989-1.514,3.762,3.762,0,0,1,2.168-.589A3.881,3.881,0,0,1,408.007,357.714Zm-.636,6.2a1.326,1.326,0,0,0,.613-1.115v-.927a.056.056,0,0,0-.063-.062h-1.477a2.657,2.657,0,0,0-1.475.361,1.139,1.139,0,0,0-.55,1.005,1.014,1.014,0,0,0,.416.88,1.837,1.837,0,0,0,1.091.3A2.411,2.411,0,0,0,407.371,363.909Z" fill="#fff"/>
      <path id="Path_739" data-name="Path 739" d="M424.864,358.106a2.744,2.744,0,0,1,.691,1.987v5.245a.139.139,0,0,1-.157.157H424.22a.138.138,0,0,1-.156-.157v-4.931a1.758,1.758,0,0,0-.433-1.248,1.507,1.507,0,0,0-1.154-.464,1.6,1.6,0,0,0-1.178.456,1.654,1.654,0,0,0-.455,1.225v4.962a.139.139,0,0,1-.157.157h-1.178a.138.138,0,0,1-.156-.157v-4.931a1.758,1.758,0,0,0-.433-1.248,1.678,1.678,0,0,0-2.308-.008,1.708,1.708,0,0,0-.432,1.225v4.962a.139.139,0,0,1-.156.157h-1.195a.139.139,0,0,1-.156-.157v-7.679a.139.139,0,0,1,.156-.157h1.195a.139.139,0,0,1,.156.157v.534a.054.054,0,0,0,.023.047c.017.011.034.005.056-.015a2.461,2.461,0,0,1,2.01-.832,2.833,2.833,0,0,1,1.366.3,2.121,2.121,0,0,1,.879.9c.032.042.063.042.1,0a2.352,2.352,0,0,1,1-.912,3.137,3.137,0,0,1,1.374-.3A2.5,2.5,0,0,1,424.864,358.106Z" fill="#fff"/>
    </g>
    <g id="Group_47" data-name="Group 47">
      <g id="Group_46" data-name="Group 46">
        <path id="Path_740" data-name="Path 740" d="M324.117,252.639a11.106,11.106,0,0,1-15.03,4.1,20.8,20.8,0,0,1-4.682-3.714,5.469,5.469,0,0,1-.015-7.625,30.942,30.942,0,0,1,5.079-3.6,12.155,12.155,0,0,1,1.9-.8c-.492-.677-.838-1.226-1.254-1.716a29.264,29.264,0,0,1-5.339-10.334,54.644,54.644,0,0,0-10.923-19.184c-2.184-2.53-5.611-4.164-8.747-5.618-1.4-.651-3.591-.2-5.226.343-4.37,1.454-7.484,4.588-9.791,8.477-2.192,3.694-4.157,7.52-6.322,11.23a3.441,3.441,0,0,0,.34,4.392q4.777,5.781,9.495,11.611c4.839,6,9.685,11.986,14.45,18.04a14.058,14.058,0,0,1,3.242,7.32c.383,4.175-1.575,7.247-4.9,9.671a25.785,25.785,0,0,1-14.583,4.916c-5.689.2-11.4-.18-17.091-.1a25.586,25.586,0,0,1-11.543-2.789c-5.786-2.752-7.631-7.558-7.071-12.989.655-6.357,3.771-11.7,7.084-16.986,3.506-5.589,6.851-11.28,10.248-16.937.722-1.2,1.325-2.476,2.059-3.67a3.353,3.353,0,0,0,.032-3.9c-1.165-1.869-2.16-3.844-3.2-5.786a6.188,6.188,0,0,1-.829-1.921,2.009,2.009,0,0,1,.538-1.515c.2-.2,1.066-.06,1.335.216,1.185,1.219,2.285,2.523,3.369,3.836.624.756,1.158,1.586,1.95,2.685,2.194-3.678,4.106-7.177,6.3-10.49,3.752-5.673,8.575-10.021,15.5-11.451,3.212-.663,6.117.384,8.993,1.64,7.427,3.247,11.672,9.564,15.4,16.254a78,78,0,0,1,5.179,11.465c2.005,5.568,5.82,9.4,10.513,12.7a32.158,32.158,0,0,1,6.7,5.938c6.091,7.621,4.018,15.734-2.307,21.716-5.263,4.978-11.644,7.3-18.747,7.861-1.989.155-4,.1-6,.085a2.791,2.791,0,0,1-1.721-.384,4.9,4.9,0,0,1-1.6-2.3c-.226-1.156.8-1.819,1.854-1.956a36.188,36.188,0,0,1,4.48-.243,25.037,25.037,0,0,0,10.52-2.075,28.9,28.9,0,0,0,8.879-6.082C325.624,259.866,326.126,256.708,324.117,252.639ZM260.37,230.8c-.683,1.267-1.252,2.414-1.9,3.514-2.442,4.135-4.882,8.273-7.381,12.375-1.61,2.645-3.486,5.14-4.947,7.861-1.787,3.328-3.661,6.672-4.054,10.557-.421,4.164.581,6.014,4.469,7.367a29.72,29.72,0,0,0,6.408,1.357c2.666.3,5.37.256,8.053.425a53.781,53.781,0,0,0,17.866-1.416,16.278,16.278,0,0,0,5.207-2.791c1.912-1.437,2.322-2.9,1.17-5.007a106.414,106.414,0,0,0-6.193-9.864c-1.876-2.687-4.1-5.128-6.093-7.736C268.791,241.975,264.659,236.47,260.37,230.8Z" fill="#fff"/>
        <path id="Path_741" data-name="Path 741" d="M297.586,236.562c-1.839.311-4.186-1.5-4.6-3.545-.466-2.321,2.165.329,4.265-.1,2.513-.511,3.991-3.779,4.372-1.061C301.9,233.814,299.873,236.175,297.586,236.562Z" fill="#fff"/>
        <path id="Path_742" data-name="Path 742" d="M285.259,238.345c-1.839.311-4.186-1.5-4.6-3.545-.466-2.321,2.165.329,4.265-.1,2.513-.511,3.991-3.779,4.372-1.061C289.574,235.6,287.546,237.958,285.259,238.345Z" fill="#fff"/>
      </g>
    </g>
  </g>
</svg>
