<svg xmlns="http://www.w3.org/2000/svg" width="344.996" height="64.95" viewBox="0 0 344.996 64.95">
  <g id="Group_79" data-name="Group 79" transform="translate(-3.457 -3.876)">
    <path id="Path_829" data-name="Path 829" d="M88.016,52.026a6.113,6.113,0,0,1-1.542,3.44,13.774,13.774,0,0,1-4.625,3.914,3.645,3.645,0,0,1-2.016.948,8.4,8.4,0,0,1-4.151,1.542,7.738,7.738,0,0,1-2.846,1.542H70.7l-2.134,1.66L66.313,64.6l-.712.118-1.779.238a23.03,23.03,0,0,1-2.965.237,4.94,4.94,0,0,1-.83-.118h-.949l-1.659.593-2.372.238H52.319l-1.3.741.356.445q-2.729,0-4.269.118l-.594-.118-4.862-.445-6.879-.3L32.514,65.9a4.387,4.387,0,0,1-2.491.712,6.681,6.681,0,0,1-3.439-1.068l-2.253.83-1.186-1.067q-4.982-.118-5.812-.949l-.474-.238a13.477,13.477,0,0,1-2.015.238l-4.626-3.084L8.082,60.8a8.1,8.1,0,0,1-3.439-3.32,7.725,7.725,0,0,1-1.186-3.914,16.773,16.773,0,0,1,1.186-4.625l2.372-2.61,2.846.118a3.168,3.168,0,0,1,2.728-1.3q3.793,0,3.795,6.13a11.193,11.193,0,0,0-2.964.959A9.24,9.24,0,0,1,11.64,53.8v.362l1.067.56,1.423,1.457,4.625-.237,3.914,1.186,6.167-.118,2.253,1.542,1.068-.711a4.8,4.8,0,0,1,1.779.452l3.083.454.238.754h1.9a21.129,21.129,0,0,1,3.083-.948H52.675l2.609-.673,1.3-1.343,4.507.474A19.618,19.618,0,0,1,66.55,55.94h.593a2.608,2.608,0,0,1,1.423-.594,1.921,1.921,0,0,1,.83.238l1.186-.474v-.949h2.49a3.844,3.844,0,0,1,2.965-1.186,5.546,5.546,0,0,1,2.727-1.66l.949-1.423q0-1.068-7.59-4.626l-.949-.712a13.824,13.824,0,0,1-3.913-.83,9.273,9.273,0,0,1-1.542-.119h-.237a28.645,28.645,0,0,1-4.626-1.423,4.579,4.579,0,0,0-2.727-.949,6.481,6.481,0,0,0-1.423.238H54.335l-.356-.356a8.046,8.046,0,0,1-2.965-1.067l-1.423.474-3.677-1.779H43.542L42,37.795H39.629l-.356-.593h-1.9l-1.661-1.9h-.83a9.822,9.822,0,0,1-5.693-1.41l-.237-.233a6.837,6.837,0,0,1-3.795-2.586L23.145,29.2l-1.3-3.054-1.423-1.879.593-4.816,2.846-3.289q.712-.117,1.067-1.527a7.913,7.913,0,0,0,1.186-.587l6.049-3.29h1.659a6.218,6.218,0,0,0,3.44-1.186h.711v.237l1.186-1.067h.593a18.723,18.723,0,0,1,6.285-1.423h.594l1.067.118,1.779-1.067a12.156,12.156,0,0,1,1.9-.119h.711q.83,0,2.906-.237t3.261-.356l2.134-.118,3.2-1.661a11.138,11.138,0,0,1,1.542,1.779h2.609a10.75,10.75,0,0,1,2.609.593h.83a8.75,8.75,0,0,1,4.744,1.2Q82.2,9,82.205,13.792q0,4.073-6.523,4.909l-.949-1.423c-.238-.077-.652-.237-1.245-.474a11.993,11.993,0,0,0-1.364-.474H69.515l-1.186-1.3-1.9.238-1.067,1.186-2.846-2.016-3.084.474-3.676-.83A15.342,15.342,0,0,0,49.947,15.5l-.238.118a4.679,4.679,0,0,1-.771.415,1.964,1.964,0,0,1-.534.178l-1.66-.711L43.424,17.04,37.257,18.7l-1.423-.355-2.609,1.66H32.039l-.711,1.067-2.49,1.661.237.711,1.3,1.3,1.186.357,1.9,1.186,3.675,1.3,1.779.119,3.2,1.9.949-.356q3.439.713,4.626,1.9l.356.356h.237l2.371,1.423.83-.83,2.846.356H56.47l1.66,1.3h.83a12.17,12.17,0,0,1,3.558.474H63.7a8.064,8.064,0,0,1,4.743,2.017l1.423-.474,1.068.474h2.016l3.439,2.372,3.558.356,1.423,1.9a17.988,17.988,0,0,1,5.277,4.328A9.393,9.393,0,0,1,87.9,50.485a3.2,3.2,0,0,0,.118.711Z" transform="translate(0 0)" fill="#fff"/>
    <path id="Path_830" data-name="Path 830" d="M163.353,47.645l-.732.95.585,1.754-.95,1.1-.366,1.535-.219.365.147.365a2.088,2.088,0,0,1-.512,1.535l-.146.22v.292a2.432,2.432,0,0,1,.219.95,1.274,1.274,0,0,1-.073.512l.073.292-.293.8.22.877-.585.585.219,1.023.439.512-.658.585v1.17l-.511,1.169.365,1.17-.439.584.732.511-1.024,1.681-.073.219.731.147-.512,1.681v.293a3.492,3.492,0,0,1-.073.8l.073.219,1.17.147.95,1.462-.512,1.1.8-.072a4.7,4.7,0,0,1,.511,1.535l-1.1,1.1a6.36,6.36,0,0,1-1.462,1.023l-1.243.658-.366-.365-.73.365-2.266-2.62V74.636a9.364,9.364,0,0,1-.439-2.693v-.436l-.438-4.294.584-3.056-.438-1.747-1.243,2.047-.658,1.9-.584.294-1.024,1.618-1.827,1.691-.511.883-1.608,1.4-.366.956-2.339,1.471-2.485,2.8-1.388.294-.951.735a3.388,3.388,0,0,1-2.778-1.393q-3.289-1.614-3.436-4.62l.366-.221-.074-.44-.072-.881-.44-.952.44-1.028.146-1.541L134.7,65v-.294a.649.649,0,0,1-.073-.294,2.389,2.389,0,0,1,.146-.733,1.524,1.524,0,0,1-.073-.586,5.639,5.639,0,0,1,.439-1.687l.511-.219a1.051,1.051,0,0,1-.438-.808v-.953a1.41,1.41,0,0,1,.876-1.32,4.378,4.378,0,0,1,.8-1.467l-.365-.587.876-1.1v-.293a3.964,3.964,0,0,1,.951-2.558l-.074-1.316.292-.292v-.219a.553.553,0,0,1-.072-.22.988.988,0,0,1,.292-.73v-.439a9.509,9.509,0,0,1,1.535-2.193,15.228,15.228,0,0,0,1.827-2.559l.365.366.8-.366.365-.146,2.412-1.1,5.629.293V43.7l1.754.366a2.165,2.165,0,0,1,2.193,1.1,2.151,2.151,0,0,1,.074-.512v-.292l1.535,1.388,1.389.293,2.632-.658.95,1.828Zm-6.945,3.8-.294-.512-.584-.146-2.266-1.827-1.463-.219h-1.169l-.146-.293-.584.293-.658-.293h-1.9l.22.293-1.681.585-.292.366-.22.074a10.543,10.543,0,0,0-1.827,1.827l-.512,1.756-.292.658.731,1.024-1.242.952.146.292a5.424,5.424,0,0,0-.8,2.706l-.585.73-.006,1.315-.586.658-.146.657-.219.146v1.023l-.219.365a5.251,5.251,0,0,1-.146,1.388l.146.366-.658,1.388.293.438-.512.732.512,1.387-.8,1.024.146,1.388v.218l.292.147.366-.073a8.556,8.556,0,0,1,.731-.66l-.147-.586,1.019-.146.219-.512,4.3-3.514.437-.146.508-1.244a8.178,8.178,0,0,0,1.239-.586l.476-1.157.578,0-.219-1.242,1.024-.146a4.984,4.984,0,0,1,.475-.731,7.342,7.342,0,0,1,.694-.8l3.728-4.97.584-1.1-.072-.292.511-.8.146-.8.658-.585Z" transform="translate(-37.854 -11.349)" fill="#fff"/>
    <path id="Path_831" data-name="Path 831" d="M207.943,64.665a1.669,1.669,0,0,1-.582,1.316,7.615,7.615,0,0,1-1.893,1.827l-.728.512-.656.877-.655.292-1.019.658-.728.073-.291.292a4.368,4.368,0,0,0-2.257,1.462,1.653,1.653,0,0,1-.945.366,1.593,1.593,0,0,1-.509-.074,6.247,6.247,0,0,1-3.2.731,5.178,5.178,0,0,1-2.183-.292l-1.312-.731-.436-.731v-.219a1.8,1.8,0,0,0-.833-1.535l-.3-1.462-.607-.658-.378-2.705V61.887l.219-.438a2.089,2.089,0,0,1-.219-.951q.365-3.069.365-3.873l-.657-1.316.657-1.1.219-1.827-.146-1.242.439-1.1-.439-1.462.789-1.023.088-.658v-6.14l.22-3.143-.22-.585v-4.9l.428-4.386a11.988,11.988,0,0,0,2.642-.731,2.116,2.116,0,0,1,1.857,1.242l.143.585,1.071,1.1-.292,1.535v.293a4.868,4.868,0,0,1-.511,1.827l.218,1.535.293,1.389-.511,1.535a6.7,6.7,0,0,1-.366,2.266,7.405,7.405,0,0,1-.146,1.17l-.074.439.586.8-.22.8a2.864,2.864,0,0,1,.22.8,2.842,2.842,0,0,1-.366,1.17l.146.657-.438,2.339v1.535l-.512,1.535.292,1.389-.292,3.216.219.366-.365,1.681-.146,2.047a2.957,2.957,0,0,0-.147.512q0,1.243-.072,2.046l.219,1.024v1.1l.438.95-.073.365a3.294,3.294,0,0,1,.8,1.169h.655l.946.293.436-.585.655-.072a2.276,2.276,0,0,1,.655-.147h.218a1.86,1.86,0,0,0,1.164-.731l.436-.219a2.627,2.627,0,0,1,1.671-1.1q.364-.291,1.383-1.169a1.662,1.662,0,0,1,1.236-1.535,2.092,2.092,0,0,0,1.454-.366,2.819,2.819,0,0,1,1.855.768A3.8,3.8,0,0,1,207.943,64.665Z" transform="translate(-53.716 -6.731)" fill="#fff"/>
    <path id="Path_832" data-name="Path 832" d="M246.577,61.554l-.439,1.315a16.054,16.054,0,0,1-.218,3l-.44.731v.8l-.365.511-.219,1.024-.8.8-.511,1.827-.586.219-.292.8-.877.512-.584,1.242-.877.438-.074.877-1.388.512a4.166,4.166,0,0,1-2.339,1.681l-.292.072a3.12,3.12,0,0,1-2.7,1.536,3.21,3.21,0,0,1-1.681.438l-.731.511-.731.22-.95.731h-.951l-1.023.219-1.243-.512-3.144-.219-1.1-1.681-1.608-1.681.365-1.169-1.1-2.486.365-.95-.219-1.754.219-1.1V68.572a2.574,2.574,0,0,1,.757-2.047,7.864,7.864,0,0,1,.984-2.412h.379l-.22-.512.22-1.023v-1.1a3.812,3.812,0,0,0,.657-.877l-.219-1.023v-.293a4.692,4.692,0,0,0,.511-2.12l1.535-2.12q.365-.293.512-.439l-.073-.292h.292l1.1-1.242.072-1.681,1.827-.658a3.158,3.158,0,0,0,1.316-2.193h.951A3.1,3.1,0,0,1,232.1,48.1a2.752,2.752,0,0,1,1.242.292l.8.072,1.9-.73,1.023.95.8.512h.584l1.1.584h.584a23.4,23.4,0,0,1,2.193,2.412l.146.366.511.292,1.536,1.974,1.389,3.436V59Zm-4.824,1.73-.074-.366a1.862,1.862,0,0,1-.584-1.094l.218-.364-.657-1.386.146-1.385-.292-.365c-.634-.487-.975-.875-1.024-1.168-.438-.194-.657-.681-.657-1.458l-.439-.074-.877-1.458-.658-.511-1.535-.584-.584-.146a.591.591,0,0,1-.585-.291l-1.462,1.6-.95,2.035-1.535.8-.218.8-.731.364-.293,1.889-.877.435a6.877,6.877,0,0,0-.292,1.89l-1.169,1.09.365.218a1.989,1.989,0,0,1-.735,1.526,13.986,13.986,0,0,1-.654,1.452v1.743l-.8,1.963.146.363v2.034l-.293,1.016.073,1.018.657.945,1.022.364.365.145h2.482l.292-.73h.291c.292,0,.462.072.512.218L231,75.59l.584.218.95-.662.146-.222.656-.148a5.354,5.354,0,0,1,2.41-1.621l.146-.367,1.46-1.032.8-1.179,1.17-.585.077-.364.381-.8v-.948l.878-.729.292-.511.365-.438a4.625,4.625,0,0,1-.292-1.241,2.7,2.7,0,0,1,.439-1.385Z" transform="translate(-62.89 -12.758)" fill="#fff"/>
    <path id="Path_833" data-name="Path 833" d="M312.3,67.568a2.6,2.6,0,0,1-.95,1.535l-.8,1.242-.292,1.462-.658.22-.146.438a2.657,2.657,0,0,0-1.681,1.827,4.874,4.874,0,0,1-1.754,1.462,2.717,2.717,0,0,1-.658.511l-.366.658-.658.146-1.9,1.023-2.485.292-.658-.146-1.1.22-.438-.512a4.684,4.684,0,0,1-1.462-1.023,1.988,1.988,0,0,1-1.316-1.389,4.183,4.183,0,0,1-1.242-2.339v-.22l-.512-.877-.146-.146-.438-1.315-.657-1.389.146-1.681-.732-.951-1.1-6.286a12.515,12.515,0,0,1-.219-2.12l-.148-.365-.371-.512-.667.872-2.666,2.761-.962,1.525-.47,1.045L284,64.706l-.577.585.074.365-1.024,2.269-.584.731-.731.147-.658.659a1.823,1.823,0,0,1-1.389,1.9l-.146.146a3.5,3.5,0,0,1-1.462,1.975l-.657,1.025q-1.609,1.463-2.12,1.828a2.63,2.63,0,0,1-.8,1.243,4.29,4.29,0,0,1-.512.586q-.219,1.243-2.047,1.755l-.8.22a2.963,2.963,0,0,1-2.412-1.681l-1.1-1.827.439-1.755-.219-.95.146-.146.073-.95-.8-1.754.585-.877-.292-.95.568-1.023.162-1.681-.219-.292.439-1.023-.165-.512-.055-1.169.22-2.193a4.428,4.428,0,0,1-.22-.95v-.585l-.219-.584.219-2.339V52.947l1.279-2.193a7.674,7.674,0,0,1,3.058.986,2.589,2.589,0,0,1,.853,2.23v.657l.584.877-.292,1.535.292,2.924-.511,1.389.219,1.535v1.242l-.657.8.657,1.316-.564.8-.093.8.438.8-.584,1.535-.22.658v.658l.366.73L273.772,71a1.472,1.472,0,0,1,.73-1.462,1.446,1.446,0,0,1,.585-1.1l-.22-.219.95-.877.22-.292V66.4l1.169-.877.292-.731.658-.439,2.851-3.217q-.367.439-2.413,2.705v.146l.147-.512.95-1.1.658-1.243V60.4l1.1-.366.146-.95.293-.292.072-.365v-.512l1.024-1.023v-.366a1.193,1.193,0,0,1-.074-.292q0-1.316,1.462-1.462a2.619,2.619,0,0,1,1.974-1.535l.438-.658.146-.146a3.408,3.408,0,0,1,1.973-1.316l.658-.8h1.755l.877,1.024.8.438.073.219.512.147.146,1.535,1.242.731-.511,1.608.8,1.755v2.047l.584,2.778.146,2.632.658,1.535.439,1.9a2.745,2.745,0,0,1,.658,1.242l1.316.366v1.462l.73.8v.219l.293.073.292.439.292-.366c-.1,0,.024.026.366.073q.8,0,1.681-1.464l.881-.2.22-.372a1.564,1.564,0,0,1,.876-.892l.512.073.292-.292.072-.366.22-.292a2.4,2.4,0,0,0,.95-1.535l.8-.877.146-.658.511-1.169,1.388-.511,1.973.658.657,2.12a.205.205,0,0,0,.074.146Z" transform="translate(-76.562 -13.507)" fill="#fff"/>
    <path id="Path_834" data-name="Path 834" d="M406.164,40.61q0,1.243-2.266,1.9H402l-1.974.8-1.388-.292-1.169.292-1.828.365c-.342-.1-.635-.17-.878-.218l-.8.218-1.827-.218a42.489,42.489,0,0,1-6.36,1.1l-2.266-.074-1.023.366-.512-.292-2.631.365-1.462-.365-1.315.365-.658-.146-.584.512-.658.072-.951,2.12V48.8l-1.1.439-.366.731a1.75,1.75,0,0,1-.365,1.023l-1.242.512v.584q0,.293-.95,1.1a21.333,21.333,0,0,1,3.216-.512,3.254,3.254,0,0,1,1.024.146l.438-.146a2.513,2.513,0,0,1,1.023-.146,4.092,4.092,0,0,1,1.316.292l1.315-.074h4.459l.731.294a1.2,1.2,0,0,0,.366-.074h.292a2.951,2.951,0,0,1,1.316.289l1.9.072,1.608.362,2.632,1.011,1.169,1.518,1.535.868.73,2.529.658.723-.219,1.3.147,2.167q-.586.29-.732,1.807l-.657.434q-.951,2.675-2.486,3.18l-.8.795a2.037,2.037,0,0,0-.585,1.518v.289a13.053,13.053,0,0,0-1.462.289h.146a3.7,3.7,0,0,1-2.7,1.644q-.293.159-1.535,1.018a2.332,2.332,0,0,1-1.535.628h-.584l-2.267.974-2.192.122h-.366a3.34,3.34,0,0,0-1.681.8l-1.389-.438-1.169.438-1.535-.219-.439.219a2.063,2.063,0,0,1-1.607-.643q-1.317-.161-1.462-.161H366.69l-.951-.594a6.824,6.824,0,0,1-2.485-.795h-1.317l-1.388-1.169-2.7-1.023-.73-1.389-.951-1.1-.95-2.705a.652.652,0,0,0-.073-.292v-.293a2.582,2.582,0,0,1,.219-1.023l.292-.366v-.512q-.438.513-.73.878a11.69,11.69,0,0,0,1.242-1.535A3.315,3.315,0,0,1,357.844,64q2.192,0,2.193,2.778c0,.537-.026,1.072-.074,1.608l.512.8.365.365,1.316.439.585.877,1.1.146,1.315.731h1.024l.73.438a4.341,4.341,0,0,1,1.463.439l2.412.146,1.681-.073.877.146a9.149,9.149,0,0,1,1.754-.731,4.664,4.664,0,0,1,1.023.439c.194-.116.463-.263.8-.439h1.462l.438-.071.512-.354a7.082,7.082,0,0,1,2.339-.849l.292-.919h2.047a8.09,8.09,0,0,1,.8-.512,1.925,1.925,0,0,1,1.827-1.389l.22-.072a4.861,4.861,0,0,0,.511-1.024l1.1-2.12.585.146a2.162,2.162,0,0,0,.585-1.1,3.544,3.544,0,0,0-.438-1.169l.584-.292-.073-.584.073-.293-.22-.292v-1.17l-.072-.219-2.266-1.169-.365-.293a2.392,2.392,0,0,0-.658-.219l-1.023.146-.585-.292-.8.365-1.023-.73-.511.072-2.193-.292h-1.681l-.658-.218-1.681.511-1.024-.438L374.8,57.2l-1.023.218h-1.462l-2.632.658-.658-.292L367.2,58.3l-.439-.146-.365.292-.658.732-1.974.364-1.754-.876a3.4,3.4,0,0,1-.438-1.243v-.072l.218-.732V54.5l.585-.438V53.11l1.536-.438q.729-.731,1.023-1.1c.486-.293.731-.512.731-.658a.287.287,0,0,0-.219-.293,5.02,5.02,0,0,1,2.193-2.632l.22-.584.512-1.1-.8-.512-.658-1.608L365.3,43.169l1.754-2.412L371,40.025l.364-.511,1.609.219a7.5,7.5,0,0,1,1.827-.219q1.607,0,4.093.219l.146-.11,3-.109,1.1.219,5.482-.439a15.687,15.687,0,0,0,3.948.658,3.386,3.386,0,0,0,1.974-.511l3.655-.147,2.267-.219,1.9-.146.95-.366Q406.164,39.441,406.164,40.61Z" transform="translate(-102.228 -10.089)" fill="#fff"/>
    <path id="Path_835" data-name="Path 835" d="M468.941,40.61q0,1.243-2.266,1.9h-1.9l-1.974.8-1.388-.292-1.17.292-1.827.365c-.341-.1-.634-.17-.877-.218l-.8.218-1.827-.218a42.492,42.492,0,0,1-6.36,1.1l-2.266-.074-1.024.366-.511-.292-2.632.365-1.462-.365-1.315.365-.658-.146-.584.512-.658.072-.951,2.12V48.8l-1.1.439-.365.731a1.75,1.75,0,0,1-.366,1.023l-1.242.512v.584q0,.293-.95,1.1a21.324,21.324,0,0,1,3.217-.512,3.248,3.248,0,0,1,1.023.146l.438-.146a2.515,2.515,0,0,1,1.023-.146,4.091,4.091,0,0,1,1.316.292l1.315-.074h4.459l.732.294a1.2,1.2,0,0,0,.365-.074h.292a2.951,2.951,0,0,1,1.316.289l1.9.072,1.608.362L454.1,54.7l1.17,1.518,1.535.868.73,2.529.658.723-.22,1.3.147,2.167q-.586.29-.731,1.807l-.658.434q-.951,2.675-2.486,3.18l-.8.795a2.04,2.04,0,0,0-.585,1.518v.289a13.019,13.019,0,0,0-1.462.289h.146a3.7,3.7,0,0,1-2.7,1.644q-.293.159-1.535,1.018a2.33,2.33,0,0,1-1.535.628h-.584l-2.266.974-2.193.122h-.366a3.34,3.34,0,0,0-1.681.8l-1.389-.438-1.169.438-1.535-.219-.439.219a2.065,2.065,0,0,1-1.608-.643q-1.316-.161-1.462-.161h-1.608l-.951-.594a6.825,6.825,0,0,1-2.485-.795h-1.316l-1.388-1.169-2.705-1.023-.73-1.389-.951-1.1-.95-2.705a.66.66,0,0,0-.072-.292v-.293a2.581,2.581,0,0,1,.218-1.023l.292-.366v-.512c-.292.342-.535.634-.73.878a11.681,11.681,0,0,0,1.242-1.535A3.32,3.32,0,0,1,420.621,64q2.193,0,2.193,2.778,0,.805-.074,1.608l.512.8.366.365,1.315.439.585.877,1.1.146,1.316.731h1.023l.73.438a4.336,4.336,0,0,1,1.463.439l2.412.146,1.681-.073.878.146a9.133,9.133,0,0,1,1.754-.731,4.659,4.659,0,0,1,1.024.439c.194-.116.462-.263.8-.439h1.462l.438-.071.512-.354a7.081,7.081,0,0,1,2.339-.849l.292-.919h2.047a7.973,7.973,0,0,1,.8-.512,1.926,1.926,0,0,1,1.827-1.389l.22-.072a4.888,4.888,0,0,0,.512-1.024l1.1-2.12.585.146a2.16,2.16,0,0,0,.584-1.1,3.545,3.545,0,0,0-.438-1.169l.584-.292-.072-.584.072-.293-.219-.292v-1.17l-.073-.219-2.266-1.169-.366-.293a2.384,2.384,0,0,0-.658-.219l-1.023.146-.584-.292-.8.365-1.023-.73-.512.072-2.193-.292h-1.681L440.5,57.2l-1.681.511-1.023-.438-.219-.072-1.023.218H435.1l-2.632.658-.657-.292-1.827.511-.44-.146-.365.292-.659.732-1.974.364-1.754-.876a3.4,3.4,0,0,1-.438-1.243v-.072l.219-.732V54.5l.585-.438V53.11l1.535-.438q.729-.731,1.023-1.1.731-.439.731-.658a.287.287,0,0,0-.219-.293,5.021,5.021,0,0,1,2.193-2.632l.219-.584.512-1.1-.8-.512-.658-1.608-1.608-1.023,1.754-2.412,3.948-.731.365-.511,1.608.219a7.507,7.507,0,0,1,1.827-.219q1.607,0,4.094.219l.146-.11,3-.109,1.1.219,5.483-.439a15.684,15.684,0,0,0,3.947.658,3.385,3.385,0,0,0,1.974-.511l3.656-.147,2.266-.219,1.9-.146.95-.366Q468.941,39.441,468.941,40.61Z" transform="translate(-120.487 -10.089)" fill="#fff"/>
  </g>
</svg>
