<svg xmlns="http://www.w3.org/2000/svg" width="32.476" height="32.474" viewBox="0 0 32.476 32.474">
  <path id="Path_41" data-name="Path 41" d="M-11.223-20.738h-3.461v-2.807h3.671s.9,0,.9,1.315S-10.624-20.738-11.223-20.738Zm9.582,0a2.248,2.248,0,0,0-2.21,1.94H.273a1.863,1.863,0,0,0-1.786-1.939c-.043,0-.085,0-.128,0Zm-9.371,1.94h-3.672v3.371h3.491c.507,0,1.493-.149,1.493-1.641.024-1.73-1.313-1.73-1.313-1.73ZM8.06-33.891V-6.1A2.341,2.341,0,0,1,5.72-3.757H-22.073a2.341,2.341,0,0,1-2.343-2.338v-27.8a2.34,2.34,0,0,1,2.34-2.34h27.8a2.34,2.34,0,0,1,2.338,2.34Zm-12.446,10.4H.806v-1.552H-4.386Zm-4.975,3.463A2.181,2.181,0,0,0-7.452-22.41a3.22,3.22,0,0,0-3.075-3.358,3.174,3.174,0,0,0-.478.015h-6.567v12.624h6.567A3.74,3.74,0,0,0-7.015-16.6c0-.086.008-.172.008-.258-.007-.028.173-3.163-2.364-3.163Zm7.7-2.567A4.738,4.738,0,0,0-6.5-17.952c0,.076,0,.151,0,.227A4.482,4.482,0,0,0-2.4-12.89a4.307,4.307,0,0,0,.736,0s4.328.237,4.328-3.342H.458s.059,1.343-2.03,1.343a2.038,2.038,0,0,1-2.206-1.854,2.074,2.074,0,0,1,0-.325H2.756c-.04-.029.678-5.522-4.428-5.522Z" transform="translate(24.416 36.231)" fill="#191919"/>
</svg>
