<svg xmlns="http://www.w3.org/2000/svg" width="32.476" height="32.474" viewBox="0 0 32.476 32.474">
  <path id="Path_45" data-name="Path 45" d="M-49.49-23.893A23.436,23.436,0,0,0-53.1-28.925a8.422,8.422,0,0,1,2.26-.31,8.972,8.972,0,0,1,5.9,2.132A11.041,11.041,0,0,1-49.49-23.893Zm-4.9,6.029a11.029,11.029,0,0,1,4.5-2.369c-.222-.519-.435-.983-.644-1.4a26.932,26.932,0,0,1-8.246,1.22q-.863,0-1.287-.021v.22c0,.088-.011.163-.011.223a8.935,8.935,0,0,0,2.328,6.1,12.665,12.665,0,0,1,3.359-3.97Zm.965,1.4A12.6,12.6,0,0,0-56.5-12.7a9.055,9.055,0,0,0,8.912,1.331,32.561,32.561,0,0,0-1.729-7.343,9.436,9.436,0,0,0-4.1,2.245Zm2.094-6.763a22.45,22.45,0,0,0-3.7-4.987,8.992,8.992,0,0,0-3,2.462,9.407,9.407,0,0,0-1.763,3.48c.325.028.806.045,1.44.045a24.3,24.3,0,0,0,7.024-1ZM-34.6-33.891V-6.1a2.343,2.343,0,0,1-2.343,2.343h-27.79A2.343,2.343,0,0,1-67.079-6.1h0V-33.888a2.343,2.343,0,0,1,2.343-2.343h27.79A2.343,2.343,0,0,1-34.6-33.888h0Zm-5.155,13.9a10.856,10.856,0,0,0-1.485-5.565,11.015,11.015,0,0,0-4.027-4.027,11.169,11.169,0,0,0-11.135,0,11.015,11.015,0,0,0-4.027,4.027,11.163,11.163,0,0,0,0,11.134A11.01,11.01,0,0,0-56.4-10.4a11.169,11.169,0,0,0,11.135,0,11.01,11.01,0,0,0,4.027-4.028,10.844,10.844,0,0,0,1.485-5.567Zm-7.625,1.019a31.963,31.963,0,0,1,1.53,6.739,9.238,9.238,0,0,0,2.859-2.9,8.931,8.931,0,0,0,1.329-3.835q-1.615-.109-2.947-.112-1.218,0-2.772.114Zm-1.308-3.348c.223.474.474,1.071.753,1.8q1.643-.156,3.57-.154c.917,0,1.824.021,2.727.066a8.908,8.908,0,0,0-2.172-5.366,10.977,10.977,0,0,1-4.878,3.661Z" transform="translate(67.079 36.231)" fill="#191919"/>
</svg>
