<svg xmlns="http://www.w3.org/2000/svg" width="32.483" height="32.486" viewBox="0 0 32.483 32.486">
  <path id="Path_43" data-name="Path 43" d="M136.052-33.891V-6.1a2.34,2.34,0,0,1-2.34,2.341h-8.943l.019-11.371h4.056a.71.71,0,0,0,.71-.635l.448-3.79a.712.712,0,0,0-.612-.8.822.822,0,0,0-.1-.006h-4.522v-3.164c0-1.436.4-2.414,2.457-2.414h1.9a.712.712,0,0,0,.711-.711h0v-3.189a.712.712,0,0,0-.711-.711h-3.106a5.973,5.973,0,0,0-6.38,5.535A5.945,5.945,0,0,0,119.65-24v3.655h-3.042a.711.711,0,0,0-.711.711v.012l.014,3.79a.712.712,0,0,0,.711.711h3.049l-.019,11.371h-13.74a2.341,2.341,0,0,1-2.343-2.338V-33.891a2.341,2.341,0,0,1,2.341-2.34H133.7a2.34,2.34,0,0,1,2.35,2.331Z" transform="translate(-103.569 36.231)" fill="#191919"/>
</svg>
