<svg xmlns="http://www.w3.org/2000/svg" width="32.474" height="32.474" viewBox="0 0 32.474 32.474">
  <path id="Path_42" data-name="Path 42" d="M43.686-24.744c-.237-5.224-4.174-4.7-9.2-4.7l-.043-.028c-3.02,0-3.373.014-4.575.057-5.223.268-4.69,4.015-4.69,9.222,0,3.848-.287,6.385,1.3,7.965,1.379,1.381,3.267,1.312,7.979,1.312,4.575,0,6.553.126,7.979-1.3s1.312-3.317,1.312-7.964C43.752-23.195,43.74-23.552,43.686-24.744Zm-9.2,10.369a5.8,5.8,0,0,1-5.8-5.8,5.8,5.8,0,0,1,5.8-5.8,5.8,5.8,0,0,1,5.8,5.8,5.8,5.8,0,0,1-5.8,5.8ZM40.521-24.85a1.356,1.356,0,0,1-1.355-1.356,1.355,1.355,0,0,1,1.355-1.355,1.355,1.355,0,0,1,1.355,1.353A1.358,1.358,0,0,1,40.521-24.85Zm-2.267,4.674a3.767,3.767,0,0,1-3.764,3.769,3.766,3.766,0,0,1-3.769-3.765,3.767,3.767,0,0,1,3.764-3.769h.005a3.765,3.765,0,0,1,3.764,3.765ZM48.381-36.231H20.588a2.34,2.34,0,0,0-2.34,2.34h0V-6.1a2.341,2.341,0,0,0,2.34,2.341H48.381A2.341,2.341,0,0,0,50.722-6.1h0V-33.891a2.341,2.341,0,0,0-2.341-2.34ZM45.719-15.519A6.186,6.186,0,0,1,41.89-9.471a20.859,20.859,0,0,1-7.4.595c-4.248,0-7.221.284-9.4-1.9-2.132-2.132-1.9-5-1.9-9.4,0-4.3-.277-7.228,1.9-9.4A6.752,6.752,0,0,1,29.825-31.4c2.082-.093,7.235-.1,9.315,0a6.228,6.228,0,0,1,6.578,5.857,6.264,6.264,0,0,1,0,.712C45.811-22.752,45.818-17.6,45.719-15.519Z" transform="translate(-18.248 36.231)" fill="#191919"/>
</svg>
