<svg xmlns="http://www.w3.org/2000/svg" width="32.476" height="32.474" viewBox="0 0 32.476 32.474">
  <path id="Path_40" data-name="Path 40" d="M-79.6-36.231h-27.8a2.34,2.34,0,0,0-2.343,2.338V-6.1a2.341,2.341,0,0,0,2.34,2.341h27.793a2.341,2.341,0,0,0,2.343-2.338v-27.8A2.34,2.34,0,0,0-79.6-36.231ZM-98.21-11.677h-3.956v-11.9h3.956ZM-100.188-25.2h-.026a2.261,2.261,0,0,1-2.249-2.275,2.262,2.262,0,0,1,2.275-2.25,2.263,2.263,0,0,1,2.249,2.276A2.262,2.262,0,0,1-100.188-25.2Zm16.242,13.524H-87.9v-6.372c0-1.6-.573-2.691-2-2.691a2.162,2.162,0,0,0-2.028,1.447,2.7,2.7,0,0,0-.13.964v6.652h-3.966s.05-10.783,0-11.9h3.954v1.684a3.93,3.93,0,0,1,3.553-1.964c2.606,0,4.553,1.7,4.553,5.357Z" transform="translate(109.742 36.231)" fill="#191919"/>
</svg>
