<svg xmlns="http://www.w3.org/2000/svg" width="32.476" height="32.474" viewBox="0 0 32.476 32.474">
  <path id="Path_934" data-name="Path 934" d="M-119.929-33.888h0a2.343,2.343,0,0,0-2.343-2.343h-27.79a2.343,2.343,0,0,0-2.343,2.343V-6.1a2.343,2.343,0,0,0,2.343,2.343h27.79A2.343,2.343,0,0,0-119.929-6.1V-33.888Zm-11.392,17.836c1.091,3.379,2.112,6.538,2.112,6.538l-7.046-5.217L-143.3-9.514l2.709-8.385-7.038-5.141h8.7l2.676-8.283,2.676,8.283h8.619l-6.964,5.123-4.331,3.186Z" transform="translate(152.405 36.231)" fill="#191919"/>
</svg>
