<svg xmlns="http://www.w3.org/2000/svg" width="32.474" height="32.476" viewBox="0 0 32.474 32.476">
  <path id="Path_44" data-name="Path 44" d="M91.044-36.231H63.251a2.34,2.34,0,0,0-2.34,2.34V-6.1a2.339,2.339,0,0,0,2.338,2.343H91.044a2.341,2.341,0,0,0,2.341-2.34V-33.888a2.341,2.341,0,0,0-2.338-2.343Zm-5.058,11.7A12.973,12.973,0,0,1,73.62-10.974a12.967,12.967,0,0,1-7.587-2.034A9.186,9.186,0,0,0,72.787-14.9a4.57,4.57,0,0,1-4.265-3.167,4.557,4.557,0,0,0,2.061-.079,4.561,4.561,0,0,1-3.657-4.527,4.524,4.524,0,0,0,2.063.569A4.563,4.563,0,0,1,67.568-28.2a12.938,12.938,0,0,0,9.4,4.765,4.565,4.565,0,0,1,3.405-5.482,4.566,4.566,0,0,1,4.368,1.324,9.177,9.177,0,0,0,2.9-1.106,4.575,4.575,0,0,1-2,2.523,9.178,9.178,0,0,0,2.617-.711,9.223,9.223,0,0,1-2.259,2.357Z" transform="translate(-60.911 36.231)" fill="#191919"/>
</svg>
